{
copyright = "Copyright (c) 2015, Cadson Demak (info@cadsondemak.com)";
customParameters = (
{
name = description;
value = "Copyright (c) 2015, Cadson Demak (info@cadsondemak.com)";
},
{
name = license;

glyphs = (
{
glyphname = A;
lastChange = "2015-07-18 12:40:35 +0000";
layers = (
{
layerId = "EE9CB86C-5849-467B-879F-FFB2F6EA688D";
name = Regular;
paths = (
{
closed = 1;
nodes = (
"171 0 LINE SMOOTH",
"190 0 OFFCURVE",
"197 6 OFFCURVE",
"203 21 CURVE SMOOTH",
"248 139 LINE",
"491 139 LINE",
"537 21 LINE SMOOTH",
"543 6 OFFCURVE",
"550 0 OFFCURVE",
"569 0 CURVE SMOOTH",
"690 0 LINE SMOOTH",
"709 0 OFFCURVE",
"712 15 OFFCURVE",
"705 33 CURVE SMOOTH",
"446 650 LINE SMOOTH",
"437 672 OFFCURVE",
"429 680 OFFCURVE",
"407 680 CURVE SMOOTH",
"334 680 LINE SMOOTH",
"312 680 OFFCURVE",
"303 672 OFFCURVE",
"294 650 CURVE SMOOTH",
"35 33 LINE SMOOTH",
"28 15 OFFCURVE",
"31 0 OFFCURVE",
"50 0 CURVE SMOOTH"
);
},
{
closed = 1;
nodes = (
"370 470 LINE",
"453 254 LINE",
"286 254 LINE"
);
}
);
width = 740;
}
);
note = A;
unicode = 0041;
},
{
glyphname = Aacute;
lastChange = "2015-07-18 12:40:35 +0000";
layers = (
{
layerId = "EE9CB86C-5849-467B-879F-FFB2F6EA688D";
name = Regular;
paths = (
{
closed = 1;
nodes = (
"171 0 LINE SMOOTH",
"190 0 OFFCURVE",
"197 6 OFFCURVE",
"203 21 CURVE SMOOTH",
"248 139 LINE",
"491 139 LINE",
"537 21 LINE SMOOTH",
"543 6 OFFCURVE",
"550 0 OFFCURVE",
"569 0 CURVE SMOOTH",
"690 0 LINE SMOOTH",
"709 0 OFFCURVE",
"712 15 OFFCURVE",
"705 33 CURVE SMOOTH",
"446 650 LINE SMOOTH",
"437 672 OFFCURVE",
"429 680 OFFCURVE",
"407 680 CURVE SMOOTH",
"334 680 LINE SMOOTH",
"312 680 OFFCURVE",
"303 672 OFFCURVE",
"294 650 CURVE SMOOTH",
"35 33 LINE SMOOTH",
"28 15 OFFCURVE",
"31 0 OFFCURVE",
"50 0 CURVE SMOOTH"
);
},
{
closed = 1;
nodes = (
"370 470 LINE",
"453 254 LINE",
"286 254 LINE"
);
},
{
closed = 1;
nodes = (
"399 723 LINE SMOOTH",
"432 723 OFFCURVE",
"440 729 OFFCURVE",
"452 751 CURVE SMOOTH",
"517 873 LINE SMOOTH",
"531 899 OFFCURVE",
"518 912 OFFCURVE",
"491 912 CURVE SMOOTH",
"394 912 LINE SMOOTH",
"363 912 OFFCURVE",
"357 904 OFFCURVE",
"349 883 CURVE SMOOTH",
"304 757 LINE SMOOTH",
"297 737 OFFCURVE",
"303 723 OFFCURVE",
"329 723 CURVE SMOOTH"
);
}
);
width = 740;
}
);
note = Aacute;
unicode = 00C1;
},
{
glyphname = Abreve;
lastChange = "2015-07-18 12:40:35 +0000";
layers = (
{
layerId = "EE9CB86C-5849-467B-879F-FFB2F6EA688D";
name = Regular;
paths = (
{
closed = 1;
nodes = (
"171 0 LINE SMOOTH",
"190 0 OFFCURVE",
"197 6 OFFCURVE",
"203 21 CURVE SMOOTH",
"248 139 LINE",
"491 139 LINE",
"537 21 LINE SMOOTH",
"543 6 OFFCURVE",
"550 0 OFFCURVE",
"569 0 CURVE SMOOTH",
"690 0 LINE SMOOTH",
"709 0 OFFCURVE",
"712 15 OFFCURVE",
"705 33 CURVE SMOOTH",
"446 650 LINE SMOOTH",
"437 672 OFFCURVE",
"429 680 OFFCURVE",
"407 680 CURVE SMOOTH",
"334 680 LINE SMOOTH",
"312 680 OFFCURVE",
"303 672 OFFCURVE",
"294 650 CURVE SMOOTH",
"35 33 LINE SMOOTH",
"28 15 OFFCURVE",
"31 0 OFFCURVE",
"50 0 CURVE SMOOTH"
);
},
{
closed = 1;
nodes = (
"370 470 LINE",
"453 254 LINE",
"286 254 LINE"
);
},
{
closed = 1;
nodes = (
"489 750 OFFCURVE",
"547 822 OFFCURVE",
"547 918 CURVE SMOOTH",
"547 929 OFFCURVE",
"541 936 OFFCURVE",
"531 936 CURVE SMOOTH",
"444 936 LINE SMOOTH",
"430 936 OFFCURVE",
"427 929 OFFCURVE",
"427 917 CURVE SMOOTH",
"427 880 OFFCURVE",
"412 855 OFFCURVE",
"370 855 CURVE SMOOTH",
"327 855 OFFCURVE",
"313 880 OFFCURVE",
"313 917 CURVE SMOOTH",
"313 929 OFFCURVE",
"310 936 OFFCURVE",
"296 936 CURVE SMOOTH",
"209 936 LINE SMOOTH",
"199 936 OFFCURVE",
"193 929 OFFCURVE",
"193 918 CURVE SMOOTH",
"193 822 OFFCURVE",
"250 750 OFFCURVE",
"370 750 CURVE SMOOTH"
);
}
);
width = 740;
}
);
note = Abreve;
unicode = 0102;
},
{
glyphname = Abreveacute;
lastChange = "2015-07-18 12:40:34 +0000";
layers = (
{
layerId = "EE9CB86C-5849-467B-879F-FFB2F6EA688D";
name = Regular;
paths = (
{
closed = 1;
nodes = (
"171 0 LINE SMOOTH",
"190 0 OFFCURVE",
"197 6 OFFCURVE",
"203 21 CURVE SMOOTH",
"248 139 LINE",
"491 139 LINE",
"537 21 LINE SMOOTH",
"543 6 OFFCURVE",
"550 0 OFFCURVE",
"569 0 CURVE SMOOTH",
"690 0 LINE SMOOTH",
"709 0 OFFCURVE",
"712 15 OFFCURVE",
"705 33 CURVE SMOOTH",
"446 650 LINE SMOOTH",
"437 672 OFFCURVE",
"429 680 OFFCURVE",
"407 680 CURVE SMOOTH",
"334 680 LINE SMOOTH",
"312 680 OFFCURVE",
"303 672 OFFCURVE",
"294 650 CURVE SMOOTH",
"35 33 LINE SMOOTH",
"28 15 OFFCURVE",
"31 0 OFFCURVE",
"50 0 CURVE SMOOTH"
);
},
{
closed = 1;
nodes = (
"370 470 LINE",
"453 254 LINE",
"286 254 LINE"
);
},
{
closed = 1;
nodes = (
"480 732 OFFCURVE",
"548 794 OFFCURVE",
"548 880 CURVE SMOOTH",
"548 891 OFFCURVE",
"542 898 OFFCURVE",
"532 898 CURVE SMOOTH",
"449 898 LINE SMOOTH",
"435 898 OFFCURVE",
"432 891 OFFCURVE",
"432 879 CURVE SMOOTH",
"432 849 OFFCURVE",
"416 825 OFFCURVE",
"371 825 CURVE SMOOTH",
"325 825 OFFCURVE",
"310 849 OFFCURVE",
"310 879 CURVE SMOOTH",
"310 891 OFFCURVE",
"307 898 OFFCURVE",
"293 898 CURVE SMOOTH",
"210 898 LINE SMOOTH",
"200 898 OFFCURVE",
"194 891 OFFCURVE",
"194 880 CURVE SMOOTH",
"194 794 OFFCURVE",
"261 732 OFFCURVE",
"371 732 CURVE SMOOTH"
);
},
{
closed = 1;
nodes = (
"390 892 LINE SMOOTH",
"407 892 OFFCURVE",
"411 896 OFFCURVE",
"420 912 CURVE SMOOTH",
"471 1005 LINE SMOOTH",
"482 1026 OFFCURVE",
"479 1038 OFFCURVE",
"453 1038 CURVE SMOOTH",
"404 1038 LINE SMOOTH",
"380 1038 OFFCURVE",
"377 1035 OFFCURVE",
"370 1015 CURVE SMOOTH",
"336 921 LINE SMOOTH",
"330 905 OFFCURVE",
"328 892 OFFCURVE",
"349 892 CURVE SMOOTH"
);
}
);
width = 740;
}
);
note = Abreveacute;
unicode = 1EAE;
},
{
glyphname = Abrevedotbelow;
lastChange = "2015-07-18 12:40:34 +0000";
layers = (
{
layerId = "EE9CB86C-5849-467B-879F-FFB2F6EA688D";
name = Regular;
paths = (
{
closed = 1;
nodes = (
"171 0 LINE SMOOTH",
"190 0 OFFCURVE",
"197 6 OFFCURVE",
"203 21 CURVE SMOOTH",
"248 139 LINE",
"491 139 LINE",
"537 21 LINE SMOOTH",
"543 6 OFFCURVE",
"550 0 OFFCURVE",
"569 0 CURVE SMOOTH",
"690 0 LINE SMOOTH",
"709 0 OFFCURVE",
"712 15 OFFCURVE",
"705 33 CURVE SMOOTH",
"446 650 LINE SMOOTH",
"437 672 OFFCURVE",
"429 680 OFFCURVE",
"407 680 CURVE SMOOTH",
"334 680 LINE SMOOTH",
"312 680 OFFCURVE",
"303 672 OFFCURVE",
"294 650 CURVE SMOOTH",
"35 33 LINE SMOOTH",
"28 15 OFFCURVE",
"31 0 OFFCURVE",
"50 0 CURVE SMOOTH"
);
},
{
closed = 1;
nodes = (
"383 -195 LINE SMOOTH",
"416 -195 OFFCURVE",
"437 -169 OFFCURVE",
"437 -138 CURVE SMOOTH",
"437 -116 LINE SMOOTH",
"437 -84 OFFCURVE",
"415 -59 OFFCURVE",
"383 -59 CURVE SMOOTH",
"359 -59 LINE SMOOTH",
"328 -59 OFFCURVE",
"305 -84 OFFCURVE",
"305 -116 CURVE SMOOTH",
"305 -138 LINE SMOOTH",
"305 -169 OFFCURVE",
"328 -195 OFFCURVE",
"359 -195 CURVE SMOOTH"
);
},
{
closed = 1;
nodes = (
"370 470 LINE",
"453 254 LINE",
"286 254 LINE"
);
},
{
closed = 1;
nodes = (
"489 738 OFFCURVE",
"547 810 OFFCURVE",
"547 906 CURVE SMOOTH",
"547 917 OFFCURVE",
"541 924 OFFCURVE",
"531 924 CURVE SMOOTH",
"444 924 LINE SMOOTH",
"430 924 OFFCURVE",
"427 917 OFFCURVE",
"427 905 CURVE SMOOTH",
"427 868 OFFCURVE",
"412 843 OFFCURVE",
"370 843 CURVE SMOOTH",
"327 843 OFFCURVE",
"313 868 OFFCURVE",
"313 905 CURVE SMOOTH",
"313 917 OFFCURVE",
"310 924 OFFCURVE",
"296 924 CURVE SMOOTH",
"209 924 LINE SMOOTH",
"199 924 OFFCURVE",
"193 917 OFFCURVE",
"193 906 CURVE SMOOTH",
"193 810 OFFCURVE",
"250 738 OFFCURVE",
"370 738 CURVE SMOOTH"
);
}
);
width = 740;
}
);
note = Abrevedotbelow;
unicode = 1EB6;
},
{
glyphname = Abrevegrave;
lastChange = "2015-07-18 12:40:36 +0000";
layers = (
{
layerId = "EE9CB86C-5849-467B-879F-FFB2F6EA688D";
name = Regular;
paths = (
{
closed = 1;
nodes = (
"171 0 LINE SMOOTH",
"190 0 OFFCURVE",
"197 6 OFFCURVE",
"203 21 CURVE SMOOTH",
"248 139 LINE",
"491 139 LINE",
"537 21 LINE SMOOTH",
"543 6 OFFCURVE",
"550 0 OFFCURVE",
"569 0 CURVE SMOOTH",
"690 0 LINE SMOOTH",
"709 0 OFFCURVE",
"712 15 OFFCURVE",
"705 33 CURVE SMOOTH",
"446 650 LINE SMOOTH",
"437 672 OFFCURVE",
"429 680 OFFCURVE",
"407 680 CURVE SMOOTH",
"334 680 LINE SMOOTH",
"312 680 OFFCURVE",
"303 672 OFFCURVE",
"294 650 CURVE SMOOTH",
"35 33 LINE SMOOTH",
"28 15 OFFCURVE",
"31 0 OFFCURVE",
"50 0 CURVE SMOOTH"
);
},
{
closed = 1;
nodes = (
"370 470 LINE",
"453 254 LINE",
"286 254 LINE"
);
},
{
closed = 1;
nodes = (
"479 732 OFFCURVE",
"547 794 OFFCURVE",
"547 880 CURVE SMOOTH",
"547 891 OFFCURVE",
"541 898 OFFCURVE",
"531 898 CURVE SMOOTH",
"448 898 LINE SMOOTH",
"434 898 OFFCURVE",
"431 891 OFFCURVE",
"431 879 CURVE SMOOTH",
"431 849 OFFCURVE",
"415 825 OFFCURVE",
"370 825 CURVE SMOOTH",
"324 825 OFFCURVE",
"309 849 OFFCURVE",
"309 879 CURVE SMOOTH",
"309 891 OFFCURVE",
"306 898 OFFCURVE",
"292 898 CURVE SMOOTH",
"209 898 LINE SMOOTH",
"199 898 OFFCURVE",
"193 891 OFFCURVE",
"193 880 CURVE SMOOTH",
"193 794 OFFCURVE",
"260 732 OFFCURVE",
"370 732 CURVE SMOOTH"
);
},
{
closed = 1;
nodes = (
"392 892 LINE SMOOTH",
"413 892 OFFCURVE",
"411 905 OFFCURVE",
"405 921 CURVE SMOOTH",
"371 1015 LINE SMOOTH",
"364 1035 OFFCURVE",
"361 1038 OFFCURVE",
"337 1038 CURVE SMOOTH",
"288 1038 LINE SMOOTH",
"262 1038 OFFCURVE",
"259 1026 OFFCURVE",
"270 1005 CURVE SMOOTH",
"321 912 LINE SMOOTH",
"330 896 OFFCURVE",
"334 892 OFFCURVE",
"351 892 CURVE SMOOTH"
);
}
);
width = 740;
}
);
note = Abrevegrave;
unicode = 1EB0;
},
{
glyphname = Abrevehookabove;
lastChange = "2015-07-18 12:40:33 +0000";
layers = (
{
layerId = "EE9CB86C-5849-467B-879F-FFB2F6EA688D";
name = Regular;
paths = (
{
closed = 1;
nodes = (
"171 0 LINE SMOOTH",
"190 0 OFFCURVE",
"197 6 OFFCURVE",
"203 21 CURVE SMOOTH",
"248 139 LINE",
"491 139 LINE",
"537 21 LINE SMOOTH",
"543 6 OFFCURVE",
"550 0 OFFCURVE",
"569 0 CURVE SMOOTH",
"690 0 LINE SMOOTH",
"709 0 OFFCURVE",
"712 15 OFFCURVE",
"705 33 CURVE SMOOTH",
"446 650 LINE SMOOTH",
"437 672 OFFCURVE",
"429 680 OFFCURVE",
"407 680 CURVE SMOOTH",
"334 680 LINE SMOOTH",
"312 680 OFFCURVE",
"303 672 OFFCURVE",
"294 650 CURVE SMOOTH",
"35 33 LINE SMOOTH",
"28 15 OFFCURVE",
"31 0 OFFCURVE",
"50 0 CURVE SMOOTH"
);
},
{
closed = 1;
nodes = (
"370 470 LINE",
"453 254 LINE",
"286 254 LINE"
);
},
{
closed = 1;
nodes = (
"480 731 OFFCURVE",
"548 793 OFFCURVE",
"548 879 CURVE SMOOTH",
"548 890 OFFCURVE",
"542 897 OFFCURVE",
"532 897 CURVE SMOOTH",
"449 897 LINE SMOOTH",
"435 897 OFFCURVE",
"432 890 OFFCURVE",
"432 878 CURVE SMOOTH",
"432 848 OFFCURVE",
"416 824 OFFCURVE",
"371 824 CURVE SMOOTH",
"325 824 OFFCURVE",
"310 848 OFFCURVE",
"310 878 CURVE SMOOTH",
"310 890 OFFCURVE",
"307 897 OFFCURVE",
"293 897 CURVE SMOOTH",
"210 897 LINE SMOOTH",
"200 897 OFFCURVE",
"194 890 OFFCURVE",
"194 879 CURVE SMOOTH",
"194 793 OFFCURVE",
"261 731 OFFCURVE",
"371 731 CURVE SMOOTH"
);
},
{
closed = 1;
nodes = (
"394 872 LINE SMOOTH",
"406 872 OFFCURVE",
"412 879 OFFCURVE",
"412 891 CURVE SMOOTH",
"412 906 LINE",
"449 906 OFFCURVE",
"481 928 OFFCURVE",
"481 974 CURVE SMOOTH",
"481 1023 OFFCURVE",
"450 1049 OFFCURVE",
"382 1049 CURVE SMOOTH",
"348 1049 OFFCURVE",
"312 1041 OFFCURVE",
"289 1028 CURVE SMOOTH",
"284 1025 OFFCURVE",
"284 1022 OFFCURVE",
"286 1018 CURVE SMOOTH",
"305 978 LINE SMOOTH",
"307 974 OFFCURVE",
"310 974 OFFCURVE",
"313 976 CURVE",
"327 984 OFFCURVE",
"345 989 OFFCURVE",
"364 989 CURVE SMOOTH",
"383 989 OFFCURVE",
"392 983 OFFCURVE",
"392 970 CURVE SMOOTH",
"392 953 OFFCURVE",
"382 948 OFFCURVE",
"356 948 CURVE SMOOTH",
"335 948 OFFCURVE",
"327 940 OFFCURVE",
"327 922 CURVE SMOOTH",
"327 891 LINE SMOOTH",
"327 879 OFFCURVE",
"333 872 OFFCURVE",
"346 872 CURVE SMOOTH"
);
}
);
width = 740;
}
);
note = Abrevehookabove;
unicode = 1EB2;
},
{
glyphname = Abrevetilde;
lastChange = "2015-07-18 12:40:33 +0000";
layers = (
{
layerId = "EE9CB86C-5849-467B-879F-FFB2F6EA688D";
name = Regular;
paths = (
{
closed = 1;
nodes = (
"171 0 LINE SMOOTH",
"190 0 OFFCURVE",
"197 6 OFFCURVE",
"203 21 CURVE SMOOTH",
"248 139 LINE",
"491 139 LINE",
"537 21 LINE SMOOTH",
"543 6 OFFCURVE",
"550 0 OFFCURVE",
"569 0 CURVE SMOOTH",
"690 0 LINE SMOOTH",
"709 0 OFFCURVE",
"712 15 OFFCURVE",
"705 33 CURVE SMOOTH",
"446 650 LINE SMOOTH",
"437 672 OFFCURVE",
"429 680 OFFCURVE",
"407 680 CURVE SMOOTH",
"334 680 LINE SMOOTH",
"312 680 OFFCURVE",
"303 672 OFFCURVE",
"294 650 CURVE SMOOTH",
"35 33 LINE SMOOTH",
"28 15 OFFCURVE",
"31 0 OFFCURVE",
"50 0 CURVE SMOOTH"
);
},
{
closed = 1;
nodes = (
"370 470 LINE",
"453 254 LINE",
"286 254 LINE"
);
},
{
closed = 1;
nodes = (
"479 731 OFFCURVE",
"547 793 OFFCURVE",
"547 879 CURVE SMOOTH",
"547 890 OFFCURVE",
"541 897 OFFCURVE",
"531 897 CURVE SMOOTH",
"448 897 LINE SMOOTH",
"434 897 OFFCURVE",
"431 890 OFFCURVE",
"431 878 CURVE SMOOTH",
"431 848 OFFCURVE",
"415 824 OFFCURVE",
"370 824 CURVE SMOOTH",
"324 824 OFFCURVE",
"309 848 OFFCURVE",
"309 878 CURVE SMOOTH",
"309 890 OFFCURVE",
"306 897 OFFCURVE",
"292 897 CURVE SMOOTH",
"209 897 LINE SMOOTH",
"199 897 OFFCURVE",
"193 890 OFFCURVE",
"193 879 CURVE SMOOTH",
"193 793 OFFCURVE",
"260 731 OFFCURVE",
"370 731 CURVE SMOOTH"
);
},
{
closed = 1;
nodes = (
"478 919 OFFCURVE",
"503 937 OFFCURVE",
"531 977 CURVE SMOOTH",
"546 998 OFFCURVE",
"544 1007 OFFCURVE",
"520 1027 CURVE",
"495 1045 OFFCURVE",
"480 1047 OFFCURVE",
"469 1031 CURVE",
"452 1011 OFFCURVE",
"442 1006 OFFCURVE",
"422 1006 CURVE SMOOTH",
"381 1006 OFFCURVE",
"349 1044 OFFCURVE",
"287 1044 CURVE SMOOTH",
"244 1044 OFFCURVE",
"219 1022 OFFCURVE",
"195 986 CURVE",
"179 966 OFFCURVE",
"182 957 OFFCURVE",
"203 939 CURVE SMOOTH",
"228 919 OFFCURVE",
"243 917 OFFCURVE",
"255 932 CURVE",
"270 949 OFFCURVE",
"279 956 OFFCURVE",
"301 956 CURVE SMOOTH",
"342 956 OFFCURVE",
"381 919 OFFCURVE",
"431 919 CURVE SMOOTH"
);
}
);
width = 740;
}
);
note = Abrevetilde;
unicode = 1EB4;
},
{
glyphname = Acaron;
lastChange = "2015-07-18 12:40:33 +0000";
layers = (
{
layerId = "EE9CB86C-5849-467B-879F-FFB2F6EA688D";
name = Regular;
paths = (
{
closed = 1;
nodes = (
"171 0 LINE SMOOTH",
"190 0 OFFCURVE",
"197 6 OFFCURVE",
"203 21 CURVE SMOOTH",
"248 139 LINE",
"491 139 LINE",
"537 21 LINE SMOOTH",
"543 6 OFFCURVE",
"550 0 OFFCURVE",
"569 0 CURVE SMOOTH",
"690 0 LINE SMOOTH",
"709 0 OFFCURVE",
"712 15 OFFCURVE",
"705 33 CURVE SMOOTH",
"446 650 LINE SMOOTH",
"437 672 OFFCURVE",
"429 680 OFFCURVE",
"407 680 CURVE SMOOTH",
"334 680 LINE SMOOTH",
"312 680 OFFCURVE",
"303 672 OFFCURVE",
"294 650 CURVE SMOOTH",
"35 33 LINE SMOOTH",
"28 15 OFFCURVE",
"31 0 OFFCURVE",
"50 0 CURVE SMOOTH"
);
},
{
closed = 1;
nodes = (
"370 470 LINE",
"453 254 LINE",
"286 254 LINE"
);
},
{
closed = 1;
nodes = (
"409 740 LINE SMOOTH",
"438 740 OFFCURVE",
"442 746 OFFCURVE",
"455 764 CURVE SMOOTH",
"555 897 LINE SMOOTH",
"573 920 OFFCURVE",
"567 936 OFFCURVE",
"541 936 CURVE SMOOTH",
"476 936 LINE SMOOTH",
"447 936 OFFCURVE",
"440 931 OFFCURVE",
"429 914 CURVE SMOOTH",
"370 825 LINE",
"310 914 LINE SMOOTH",
"299 931 OFFCURVE",
"292 936 OFFCURVE",
"263 936 CURVE SMOOTH",
"198 936 LINE SMOOTH",
"172 936 OFFCURVE",
"166 920 OFFCURVE",
"184 897 CURVE SMOOTH",
"284 764 LINE SMOOTH",
"298 746 OFFCURVE",
"301 740 OFFCURVE",
"330 740 CURVE SMOOTH"
);
}
);
width = 740;
}
);
note = Acaron;
unicode = 01CD;
},
{
glyphname = Acircumflex;
lastChange = "2015-07-18 12:40:34 +0000";
layers = (
{
layerId = "EE9CB86C-5849-467B-879F-FFB2F6EA688D";
name = Regular;
paths = (
{
closed = 1;
nodes = (
"171 0 LINE SMOOTH",
"190 0 OFFCURVE",
"197 6 OFFCURVE",
"203 21 CURVE SMOOTH",
"248 139 LINE",
"491 139 LINE",
"537 21 LINE SMOOTH",
"543 6 OFFCURVE",
"550 0 OFFCURVE",
"569 0 CURVE SMOOTH",
"690 0 LINE SMOOTH",
"709 0 OFFCURVE",
"712 15 OFFCURVE",
"705 33 CURVE SMOOTH",
"446 650 LINE SMOOTH",
"437 672 OFFCURVE",
"429 680 OFFCURVE",
"407 680 CURVE SMOOTH",
"334 680 LINE SMOOTH",
"312 680 OFFCURVE",
"303 672 OFFCURVE",
"294 650 CURVE SMOOTH",
"35 33 LINE SMOOTH",
"28 15 OFFCURVE",
"31 0 OFFCURVE",
"50 0 CURVE SMOOTH"
);
},
{
closed = 1;
nodes = (
"370 470 LINE",
"453 254 LINE",
"286 254 LINE"
);
},
{
closed = 1;
nodes = (
"263 722 LINE SMOOTH",
"292 722 OFFCURVE",
"300 729 OFFCURVE",
"311 746 CURVE SMOOTH",
"370 834 LINE",
"429 746 LINE SMOOTH",
"440 729 OFFCURVE",
"448 722 OFFCURVE",
"477 722 CURVE SMOOTH",
"538 722 LINE SMOOTH",
"564 722 OFFCURVE",
"573 738 OFFCURVE",
"555 762 CURVE SMOOTH",
"455 895 LINE SMOOTH",
"442 912 OFFCURVE",
"438 919 OFFCURVE",
"409 919 CURVE SMOOTH",
"330 919 LINE SMOOTH",
"301 919 OFFCURVE",
"298 912 OFFCURVE",
"284 895 CURVE",
"184 762 LINE SMOOTH",
"166 738 OFFCURVE",
"176 722 OFFCURVE",
"202 722 CURVE SMOOTH"
);
}
);
width = 740;
}
);
note = Acircumflex;
unicode = 00C2;
},
{
glyphname = Acircumflexacute;
lastChange = "2015-07-18 12:40:34 +0000";
layers = (
{
layerId = "EE9CB86C-5849-467B-879F-FFB2F6EA688D";
name = Regular;
paths = (
{
closed = 1;
nodes = (
"171 0 LINE SMOOTH",
"190 0 OFFCURVE",
"197 6 OFFCURVE",
"203 21 CURVE SMOOTH",
"248 139 LINE",
"491 139 LINE",
"537 21 LINE SMOOTH",
"543 6 OFFCURVE",
"550 0 OFFCURVE",
"569 0 CURVE SMOOTH",
"690 0 LINE SMOOTH",
"709 0 OFFCURVE",
"712 15 OFFCURVE",
"705 33 CURVE SMOOTH",
"446 650 LINE SMOOTH",
"437 672 OFFCURVE",
"429 680 OFFCURVE",
"407 680 CURVE SMOOTH",
"334 680 LINE SMOOTH",
"312 680 OFFCURVE",
"303 672 OFFCURVE",
"294 650 CURVE SMOOTH",
"35 33 LINE SMOOTH",
"28 15 OFFCURVE",
"31 0 OFFCURVE",
"50 0 CURVE SMOOTH"
);
},
{
closed = 1;
nodes = (
"370 470 LINE",
"453 254 LINE",
"286 254 LINE"
);
},
{
closed = 1;
nodes = (
"267 729 LINE SMOOTH",
"294 729 OFFCURVE",
"303 734 OFFCURVE",
"314 751 CURVE",
"370 826 LINE",
"426 751 LINE",
"437 734 OFFCURVE",
"445 729 OFFCURVE",
"473 729 CURVE SMOOTH",
"531 729 LINE SMOOTH",
"557 729 OFFCURVE",
"566 746 OFFCURVE",
"547 769 CURVE SMOOTH",
"449 890 LINE SMOOTH",
"436 907 OFFCURVE",
"431 914 OFFCURVE",
"402 914 CURVE SMOOTH",
"337 914 LINE SMOOTH",
"309 914 OFFCURVE",
"304 907 OFFCURVE",
"290 890 CURVE SMOOTH",
"192 769 LINE SMOOTH",
"174 746 OFFCURVE",
"182 729 OFFCURVE",
"209 729 CURVE SMOOTH"
);
},
{
closed = 1;
nodes = (
"541 872 LINE SMOOTH",
"570 872 OFFCURVE",
"577 876 OFFCURVE",
"590 899 CURVE SMOOTH",
"636 983 LINE SMOOTH",
"649 1007 OFFCURVE",
"643 1022 OFFCURVE",
"617 1022 CURVE SMOOTH",
"555 1022 LINE SMOOTH",
"528 1022 OFFCURVE",
"523 1014 OFFCURVE",
"516 993 CURVE SMOOTH",
"482 901 LINE SMOOTH",
"476 885 OFFCURVE",
"483 872 OFFCURVE",
"504 872 CURVE SMOOTH"
);
}
);
width = 740;
}
);
note = Acircumflexacute;
unicode = 1EA4;
},
{
glyphname = Acircumflexdotbelow;
lastChange = "2015-07-18 12:40:33 +0000";
layers = (
{
layerId = "EE9CB86C-5849-467B-879F-FFB2F6EA688D";
name = Regular;
paths = (
{
closed = 1;
nodes = (
"171 0 LINE SMOOTH",
"190 0 OFFCURVE",
"197 6 OFFCURVE",
"203 21 CURVE SMOOTH",
"248 139 LINE",
"491 139 LINE",
"537 21 LINE SMOOTH",
"543 6 OFFCURVE",
"550 0 OFFCURVE",
"569 0 CURVE SMOOTH",
"690 0 LINE SMOOTH",
"709 0 OFFCURVE",
"712 15 OFFCURVE",
"705 33 CURVE SMOOTH",
"446 650 LINE SMOOTH",
"437 672 OFFCURVE",
"429 680 OFFCURVE",
"407 680 CURVE SMOOTH",
"334 680 LINE SMOOTH",
"312 680 OFFCURVE",
"303 672 OFFCURVE",
"294 650 CURVE SMOOTH",
"35 33 LINE SMOOTH",
"28 15 OFFCURVE",
"31 0 OFFCURVE",
"50 0 CURVE SMOOTH"
);
},
{
closed = 1;
nodes = (
"382 -195 LINE SMOOTH",
"415 -195 OFFCURVE",
"436 -169 OFFCURVE",
"436 -138 CURVE SMOOTH",
"436 -116 LINE SMOOTH",
"436 -84 OFFCURVE",
"414 -59 OFFCURVE",
"382 -59 CURVE SMOOTH",
"358 -59 LINE SMOOTH",
"327 -59 OFFCURVE",
"304 -84 OFFCURVE",
"304 -116 CURVE SMOOTH",
"304 -138 LINE SMOOTH",
"304 -169 OFFCURVE",
"327 -195 OFFCURVE",
"358 -195 CURVE SMOOTH"
);
},
{
closed = 1;
nodes = (
"370 470 LINE",
"453 254 LINE",
"286 254 LINE"
);
},
{
closed = 1;
nodes = (
"263 734 LINE SMOOTH",
"292 734 OFFCURVE",
"300 741 OFFCURVE",
"311 758 CURVE SMOOTH",
"370 846 LINE",
"429 758 LINE SMOOTH",
"440 741 OFFCURVE",
"448 734 OFFCURVE",
"477 734 CURVE SMOOTH",
"538 734 LINE SMOOTH",
"564 734 OFFCURVE",
"573 750 OFFCURVE",
"555 774 CURVE SMOOTH",
"455 907 LINE SMOOTH",
"442 924 OFFCURVE",
"438 931 OFFCURVE",
"409 931 CURVE SMOOTH",
"330 931 LINE SMOOTH",
"301 931 OFFCURVE",
"298 924 OFFCURVE",
"284 907 CURVE",
"184 774 LINE SMOOTH",
"166 750 OFFCURVE",
"176 734 OFFCURVE",
"202 734 CURVE SMOOTH"
);
}
);
width = 740;
}
);
note = Acircumflexdotbelow;
unicode = 1EAC;
},
{
glyphname = Acircumflexgrave;
lastChange = "2015-07-18 12:40:35 +0000";
layers = (
{
layerId = "EE9CB86C-5849-467B-879F-FFB2F6EA688D";
name = Regular;
paths = (
{
closed = 1;
nodes = (
"171 0 LINE SMOOTH",
"190 0 OFFCURVE",
"197 6 OFFCURVE",
"203 21 CURVE SMOOTH",
"248 139 LINE",
"491 139 LINE",
"537 21 LINE SMOOTH",
"543 6 OFFCURVE",
"550 0 OFFCURVE",
"569 0 CURVE SMOOTH",
"690 0 LINE SMOOTH",
"709 0 OFFCURVE",
"712 15 OFFCURVE",
"705 33 CURVE SMOOTH",
"446 650 LINE SMOOTH",
"437 672 OFFCURVE",
"429 680 OFFCURVE",
"407 680 CURVE SMOOTH",
"334 680 LINE SMOOTH",
"312 680 OFFCURVE",
"303 672 OFFCURVE",
"294 650 CURVE SMOOTH",
"35 33 LINE SMOOTH",
"28 15 OFFCURVE",
"31 0 OFFCURVE",
"50 0 CURVE SMOOTH"
);
},
{
closed = 1;
nodes = (
"370 470 LINE",
"453 254 LINE",
"286 254 LINE"
);
},
{
closed = 1;
nodes = (
"236 872 LINE SMOOTH",
"257 872 OFFCURVE",
"264 885 OFFCURVE",
"258 901 CURVE SMOOTH",
"224 993 LINE SMOOTH",
"217 1014 OFFCURVE",
"212 1022 OFFCURVE",
"185 1022 CURVE SMOOTH",
"123 1022 LINE SMOOTH",
"97 1022 OFFCURVE",
"91 1007 OFFCURVE",
"104 983 CURVE SMOOTH",
"150 899 LINE SMOOTH",
"163 876 OFFCURVE",
"170 872 OFFCURVE",
"199 872 CURVE SMOOTH"
);
},
{
closed = 1;
nodes = (
"267 729 LINE SMOOTH",
"295 729 OFFCURVE",
"303 734 OFFCURVE",
"314 751 CURVE",
"370 826 LINE",
"426 751 LINE",
"437 734 OFFCURVE",
"446 729 OFFCURVE",
"473 729 CURVE SMOOTH",
"531 729 LINE SMOOTH",
"558 729 OFFCURVE",
"566 746 OFFCURVE",
"548 769 CURVE SMOOTH",
"450 890 LINE SMOOTH",
"436 907 OFFCURVE",
"431 914 OFFCURVE",
"403 914 CURVE SMOOTH",
"338 914 LINE SMOOTH",
"309 914 OFFCURVE",
"304 907 OFFCURVE",
"291 890 CURVE SMOOTH",
"193 769 LINE SMOOTH",
"174 746 OFFCURVE",
"183 729 OFFCURVE",
"209 729 CURVE SMOOTH"
);
}
);
width = 740;
}
);
note = Acircumflexgrave;
unicode = 1EA6;
},
{
glyphname = Acircumflexhookabove;
lastChange = "2015-07-18 12:40:33 +0000";
layers = (
{
layerId = "EE9CB86C-5849-467B-879F-FFB2F6EA688D";
name = Regular;
paths = (
{
closed = 1;
nodes = (
"171 0 LINE SMOOTH",
"190 0 OFFCURVE",
"197 6 OFFCURVE",
"203 21 CURVE SMOOTH",
"248 139 LINE",
"491 139 LINE",
"537 21 LINE SMOOTH",
"543 6 OFFCURVE",
"550 0 OFFCURVE",
"569 0 CURVE SMOOTH",
"690 0 LINE SMOOTH",
"709 0 OFFCURVE",
"712 15 OFFCURVE",
"705 33 CURVE SMOOTH",
"446 650 LINE SMOOTH",
"437 672 OFFCURVE",
"429 680 OFFCURVE",
"407 680 CURVE SMOOTH",
"334 680 LINE SMOOTH",
"312 680 OFFCURVE",
"303 672 OFFCURVE",
"294 650 CURVE SMOOTH",
"35 33 LINE SMOOTH",
"28 15 OFFCURVE",
"31 0 OFFCURVE",
"50 0 CURVE SMOOTH"
);
},
{
closed = 1;
nodes = (
"370 470 LINE",
"453 254 LINE",
"286 254 LINE"
);
},
{
closed = 1;
nodes = (
"267 729 LINE SMOOTH",
"295 729 OFFCURVE",
"303 734 OFFCURVE",
"314 751 CURVE",
"370 826 LINE",
"426 751 LINE SMOOTH",
"438 734 OFFCURVE",
"446 729 OFFCURVE",
"473 729 CURVE SMOOTH",
"531 729 LINE SMOOTH",
"558 729 OFFCURVE",
"566 746 OFFCURVE",
"548 769 CURVE SMOOTH",
"450 890 LINE SMOOTH",
"436 907 OFFCURVE",
"431 914 OFFCURVE",
"403 914 CURVE SMOOTH",
"338 914 LINE SMOOTH",
"309 914 OFFCURVE",
"304 907 OFFCURVE",
"291 890 CURVE SMOOTH",
"193 769 LINE SMOOTH",
"174 746 OFFCURVE",
"183 729 OFFCURVE",
"209 729 CURVE SMOOTH"
);
},
{
closed = 1;
nodes = (
"553 861 LINE SMOOTH",
"565 861 OFFCURVE",
"571 868 OFFCURVE",
"571 880 CURVE SMOOTH",
"571 895 LINE",
"608 895 OFFCURVE",
"640 917 OFFCURVE",
"640 963 CURVE SMOOTH",
"640 1012 OFFCURVE",
"609 1038 OFFCURVE",
"541 1038 CURVE SMOOTH",
"507 1038 OFFCURVE",
"471 1030 OFFCURVE",
"448 1017 CURVE SMOOTH",
"443 1014 OFFCURVE",
"443 1011 OFFCURVE",
"445 1007 CURVE SMOOTH",
"464 967 LINE SMOOTH",
"466 963 OFFCURVE",
"469 963 OFFCURVE",
"472 965 CURVE",
"486 973 OFFCURVE",
"504 978 OFFCURVE",
"523 978 CURVE SMOOTH",
"542 978 OFFCURVE",
"551 972 OFFCURVE",
"551 959 CURVE SMOOTH",
"551 942 OFFCURVE",
"541 937 OFFCURVE",
"515 937 CURVE SMOOTH",
"494 937 OFFCURVE",
"486 929 OFFCURVE",
"486 911 CURVE SMOOTH",
"486 880 LINE SMOOTH",
"486 868 OFFCURVE",
"492 861 OFFCURVE",
"505 861 CURVE SMOOTH"
);
}
);
width = 740;
}
);
note = Acircumflexhookabove;
unicode = 1EA8;
},
{
glyphname = Acircumflextilde;
lastChange = "2015-07-18 12:40:34 +0000";
layers = (
{
layerId = "EE9CB86C-5849-467B-879F-FFB2F6EA688D";
name = Regular;
paths = (
{
closed = 1;
nodes = (
"171 0 LINE SMOOTH",
"190 0 OFFCURVE",
"197 6 OFFCURVE",
"203 21 CURVE SMOOTH",
"248 139 LINE",
"491 139 LINE",
"537 21 LINE SMOOTH",
"543 6 OFFCURVE",
"550 0 OFFCURVE",
"569 0 CURVE SMOOTH",
"690 0 LINE SMOOTH",
"709 0 OFFCURVE",
"712 15 OFFCURVE",
"705 33 CURVE SMOOTH",
"446 650 LINE SMOOTH",
"437 672 OFFCURVE",
"429 680 OFFCURVE",
"407 680 CURVE SMOOTH",
"334 680 LINE SMOOTH",
"312 680 OFFCURVE",
"303 672 OFFCURVE",
"294 650 CURVE SMOOTH",
"35 33 LINE SMOOTH",
"28 15 OFFCURVE",
"31 0 OFFCURVE",
"50 0 CURVE SMOOTH"
);
},
{
closed = 1;
nodes = (
"370 470 LINE",
"453 254 LINE",
"286 254 LINE"
);
},
{
closed = 1;
nodes = (
"267 729 LINE SMOOTH",
"295 729 OFFCURVE",
"303 734 OFFCURVE",
"314 751 CURVE",
"370 826 LINE",
"426 751 LINE SMOOTH",
"438 734 OFFCURVE",
"446 729 OFFCURVE",
"473 729 CURVE SMOOTH",
"531 729 LINE SMOOTH",
"558 729 OFFCURVE",
"566 746 OFFCURVE",
"548 769 CURVE SMOOTH",
"450 890 LINE SMOOTH",
"436 907 OFFCURVE",
"431 914 OFFCURVE",
"403 914 CURVE SMOOTH",
"338 914 LINE SMOOTH",
"309 914 OFFCURVE",
"304 907 OFFCURVE",
"291 890 CURVE SMOOTH",
"193 769 LINE SMOOTH",
"174 746 OFFCURVE",
"183 729 OFFCURVE",
"209 729 CURVE SMOOTH"
);
},
{
closed = 1;
nodes = (
"488 926 OFFCURVE",
"513 944 OFFCURVE",
"541 984 CURVE SMOOTH",
"556 1005 OFFCURVE",
"554 1014 OFFCURVE",
"530 1034 CURVE",
"505 1052 OFFCURVE",
"490 1054 OFFCURVE",
"479 1038 CURVE",
"462 1018 OFFCURVE",
"452 1013 OFFCURVE",
"432 1013 CURVE SMOOTH",
"391 1013 OFFCURVE",
"359 1051 OFFCURVE",
"297 1051 CURVE SMOOTH",
"254 1051 OFFCURVE",
"229 1029 OFFCURVE",
"205 993 CURVE",
"189 973 OFFCURVE",
"192 964 OFFCURVE",
"213 946 CURVE SMOOTH",
"238 926 OFFCURVE",
"253 924 OFFCURVE",
"265 939 CURVE",
"280 956 OFFCURVE",
"289 963 OFFCURVE",
"311 963 CURVE SMOOTH",
"352 963 OFFCURVE",
"391 926 OFFCURVE",
"441 926 CURVE SMOOTH"
);
}
);
width = 740;
}
);
note = Acircumflextilde;
unicode = 1EAA;
},
{
glyphname = Adieresis;
lastChange = "2015-07-18 12:40:36 +0000";
layers = (
{
layerId = "EE9CB86C-5849-467B-879F-FFB2F6EA688D";
name = Regular;
paths = (
{
closed = 1;
nodes = (
"171 0 LINE SMOOTH",
"190 0 OFFCURVE",
"197 6 OFFCURVE",
"203 21 CURVE SMOOTH",
"248 139 LINE",
"491 139 LINE",
"537 21 LINE SMOOTH",
"543 6 OFFCURVE",
"550 0 OFFCURVE",
"569 0 CURVE SMOOTH",
"690 0 LINE SMOOTH",
"709 0 OFFCURVE",
"712 15 OFFCURVE",
"705 33 CURVE SMOOTH",
"446 650 LINE SMOOTH",
"437 672 OFFCURVE",
"429 680 OFFCURVE",
"407 680 CURVE SMOOTH",
"334 680 LINE SMOOTH",
"312 680 OFFCURVE",
"303 672 OFFCURVE",
"294 650 CURVE SMOOTH",
"35 33 LINE SMOOTH",
"28 15 OFFCURVE",
"31 0 OFFCURVE",
"50 0 CURVE SMOOTH"
);
},
{
closed = 1;
nodes = (
"370 470 LINE",
"453 254 LINE",
"286 254 LINE"
);
},
{
closed = 1;
nodes = (
"279 717 LINE SMOOTH",
"312 717 OFFCURVE",
"333 743 OFFCURVE",
"333 774 CURVE SMOOTH",
"333 796 LINE SMOOTH",
"333 828 OFFCURVE",
"311 853 OFFCURVE",
"279 853 CURVE SMOOTH",
"256 853 LINE SMOOTH",
"224 853 OFFCURVE",
"202 828 OFFCURVE",
"202 796 CURVE SMOOTH",
"202 774 LINE SMOOTH",
"202 743 OFFCURVE",
"224 717 OFFCURVE",
"256 717 CURVE SMOOTH"
);
},
{
closed = 1;
nodes = (
"485 717 LINE SMOOTH",
"518 717 OFFCURVE",
"539 743 OFFCURVE",
"539 774 CURVE SMOOTH",
"539 796 LINE SMOOTH",
"539 828 OFFCURVE",
"517 853 OFFCURVE",
"485 853 CURVE SMOOTH",
"461 853 LINE SMOOTH",
"430 853 OFFCURVE",
"407 828 OFFCURVE",
"407 796 CURVE SMOOTH",
"407 774 LINE SMOOTH",
"407 743 OFFCURVE",
"430 717 OFFCURVE",
"461 717 CURVE SMOOTH"
);
}
);
width = 740;
}
);
note = Adieresis;
unicode = 00C4;
},
{
glyphname = Adotbelow;
lastChange = "2015-07-18 12:40:35 +0000";
layers = (
{
layerId = "EE9CB86C-5849-467B-879F-FFB2F6EA688D";
name = Regular;
paths = (
{
closed = 1;
nodes = (
"171 0 LINE SMOOTH",
"190 0 OFFCURVE",
"197 6 OFFCURVE",
"203 21 CURVE SMOOTH",
"248 139 LINE",
"491 139 LINE",
"537 21 LINE SMOOTH",
"543 6 OFFCURVE",
"550 0 OFFCURVE",
"569 0 CURVE SMOOTH",
"690 0 LINE SMOOTH",
"709 0 OFFCURVE",
"712 15 OFFCURVE",
"705 33 CURVE SMOOTH",
"446 650 LINE SMOOTH",
"437 672 OFFCURVE",
"429 680 OFFCURVE",
"407 680 CURVE SMOOTH",
"334 680 LINE SMOOTH",
"312 680 OFFCURVE",
"303 672 OFFCURVE",
"294 650 CURVE SMOOTH",
"35 33 LINE SMOOTH",
"28 15 OFFCURVE",
"31 0 OFFCURVE",
"50 0 CURVE SMOOTH"
);
},
{
closed = 1;
nodes = (
"383 -195 LINE SMOOTH",
"416 -195 OFFCURVE",
"437 -169 OFFCURVE",
"437 -138 CURVE SMOOTH",
"437 -116 LINE SMOOTH",
"437 -84 OFFCURVE",
"415 -59 OFFCURVE",
"383 -59 CURVE SMOOTH",
"359 -59 LINE SMOOTH",
"328 -59 OFFCURVE",
"305 -84 OFFCURVE",
"305 -116 CURVE SMOOTH",
"305 -138 LINE SMOOTH",
"305 -169 OFFCURVE",
"328 -195 OFFCURVE",
"359 -195 CURVE SMOOTH"
);
},
{
closed = 1;
nodes = (
"370 470 LINE",
"453 254 LINE",
"286 254 LINE"
);
}
);
width = 740;
}
);
note = Adotbelow;
unicode = 1EA0;
},
{
glyphname = Agrave;
lastChange = "2015-07-18 12:40:36 +0000";
layers = (
{
layerId = "EE9CB86C-5849-467B-879F-FFB2F6EA688D";
name = Regular;
paths = (
{
closed = 1;
nodes = (
"171 0 LINE SMOOTH",
"190 0 OFFCURVE",
"197 6 OFFCURVE",
"203 21 CURVE SMOOTH",
"248 139 LINE",
"491 139 LINE",
"537 21 LINE SMOOTH",
"543 6 OFFCURVE",
"550 0 OFFCURVE",
"569 0 CURVE SMOOTH",
"690 0 LINE SMOOTH",
"709 0 OFFCURVE",
"712 15 OFFCURVE",
"705 33 CURVE SMOOTH",
"446 650 LINE SMOOTH",
"437 672 OFFCURVE",
"429 680 OFFCURVE",
"407 680 CURVE SMOOTH",
"334 680 LINE SMOOTH",
"312 680 OFFCURVE",
"303 672 OFFCURVE",
"294 650 CURVE SMOOTH",
"35 33 LINE SMOOTH",
"28 15 OFFCURVE",
"31 0 OFFCURVE",
"50 0 CURVE SMOOTH"
);
},
{
closed = 1;
nodes = (
"370 470 LINE",
"453 254 LINE",
"286 254 LINE"
);
},
{
closed = 1;
nodes = (
"413 723 LINE SMOOTH",
"439 723 OFFCURVE",
"446 737 OFFCURVE",
"439 757 CURVE SMOOTH",
"393 883 LINE SMOOTH",
"385 905 OFFCURVE",
"380 912 OFFCURVE",
"348 912 CURVE SMOOTH",
"252 912 LINE SMOOTH",
"225 912 OFFCURVE",
"211 899 OFFCURVE",
"225 873 CURVE SMOOTH",
"291 751 LINE SMOOTH",
"303 729 OFFCURVE",
"310 723 OFFCURVE",
"343 723 CURVE SMOOTH"
);
}
);
width = 740;
}
);
note = Agrave;
unicode = 00C0;
},
{
glyphname = Ahookabove;
lastChange = "2015-07-18 12:40:34 +0000";
layers = (
{
layerId = "EE9CB86C-5849-467B-879F-FFB2F6EA688D";
name = Regular;
paths = (
{
closed = 1;
nodes = (
"171 0 LINE SMOOTH",
"190 0 OFFCURVE",
"197 6 OFFCURVE",
"203 21 CURVE SMOOTH",
"248 139 LINE",
"491 139 LINE",
"537 21 LINE SMOOTH",
"543 6 OFFCURVE",
"550 0 OFFCURVE",
"569 0 CURVE SMOOTH",
"690 0 LINE SMOOTH",
"709 0 OFFCURVE",
"712 15 OFFCURVE",
"705 33 CURVE SMOOTH",
"446 650 LINE SMOOTH",
"437 672 OFFCURVE",
"429 680 OFFCURVE",
"407 680 CURVE SMOOTH",
"334 680 LINE SMOOTH",
"312 680 OFFCURVE",
"303 672 OFFCURVE",
"294 650 CURVE SMOOTH",
"35 33 LINE SMOOTH",
"28 15 OFFCURVE",
"31 0 OFFCURVE",
"50 0 CURVE SMOOTH"
);
},
{
closed = 1;
nodes = (
"370 470 LINE",
"453 254 LINE",
"286 254 LINE"
);
},
{
closed = 1;
nodes = (
"394 729 LINE SMOOTH",
"410 729 OFFCURVE",
"417 737 OFFCURVE",
"417 752 CURVE SMOOTH",
"417 771 LINE",
"468 771 OFFCURVE",
"512 807 OFFCURVE",
"512 869 CURVE SMOOTH",
"512 934 OFFCURVE",
"467 972 OFFCURVE",
"375 972 CURVE SMOOTH",
"334 972 OFFCURVE",
"284 961 OFFCURVE",
"256 942 CURVE SMOOTH",
"250 938 OFFCURVE",
"250 935 OFFCURVE",
"252 929 CURVE",
"276 875 LINE",
"279 870 OFFCURVE",
"282 870 OFFCURVE",
"287 872 CURVE",
"310 883 OFFCURVE",
"331 891 OFFCURVE",
"358 891 CURVE SMOOTH",
"388 891 OFFCURVE",
"402 882 OFFCURVE",
"402 863 CURVE SMOOTH",
"402 840 OFFCURVE",
"386 831 OFFCURVE",
"348 831 CURVE SMOOTH",
"320 831 OFFCURVE",
"312 821 OFFCURVE",
"312 800 CURVE SMOOTH",
"312 752 LINE SMOOTH",
"312 737 OFFCURVE",
"319 729 OFFCURVE",
"335 729 CURVE SMOOTH"
);
}
);
width = 740;
}
);
note = Ahookabove;
unicode = 1EA2;
},
{
glyphname = Amacron;
lastChange = "2015-07-18 12:40:33 +0000";
layers = (
{
layerId = "EE9CB86C-5849-467B-879F-FFB2F6EA688D";
name = Regular;
paths = (
{
closed = 1;
nodes = (
"171 0 LINE SMOOTH",
"190 0 OFFCURVE",
"197 6 OFFCURVE",
"203 21 CURVE SMOOTH",
"248 139 LINE",
"491 139 LINE",
"537 21 LINE SMOOTH",
"543 6 OFFCURVE",
"550 0 OFFCURVE",
"569 0 CURVE SMOOTH",
"690 0 LINE SMOOTH",
"709 0 OFFCURVE",
"712 15 OFFCURVE",
"705 33 CURVE SMOOTH",
"446 650 LINE SMOOTH",
"437 672 OFFCURVE",
"429 680 OFFCURVE",
"407 680 CURVE SMOOTH",
"334 680 LINE SMOOTH",
"312 680 OFFCURVE",
"303 672 OFFCURVE",
"294 650 CURVE SMOOTH",
"35 33 LINE SMOOTH",
"28 15 OFFCURVE",
"31 0 OFFCURVE",
"50 0 CURVE SMOOTH"
);
},
{
closed = 1;
nodes = (
"370 470 LINE",
"453 254 LINE",
"286 254 LINE"
);
},
{
closed = 1;
nodes = (
"506 765 LINE SMOOTH",
"539 765 OFFCURVE",
"548 778 OFFCURVE",
"548 808 CURVE SMOOTH",
"548 844 LINE SMOOTH",
"548 873 OFFCURVE",
"539 887 OFFCURVE",
"506 887 CURVE SMOOTH",
"235 887 LINE SMOOTH",
"202 887 OFFCURVE",
"193 873 OFFCURVE",
"193 844 CURVE SMOOTH",
"193 808 LINE SMOOTH",
"193 778 OFFCURVE",
"202 765 OFFCURVE",
"235 765 CURVE SMOOTH"
);
}
);
width = 740;
}
);
note = Amacron;
unicode = 0100;
},
{
glyphname = Aogonek;
lastChange = "2015-07-18 12:40:33 +0000";
layers = (
{
layerId = "EE9CB86C-5849-467B-879F-FFB2F6EA688D";
name = Regular;
paths = (
{
closed = 1;
nodes = (
"171 0 LINE SMOOTH",
"190 0 OFFCURVE",
"197 6 OFFCURVE",
"203 21 CURVE SMOOTH",
"248 139 LINE",
"491 139 LINE",
"537 21 LINE SMOOTH",
"543 6 OFFCURVE",
"550 0 OFFCURVE",
"569 0 CURVE SMOOTH",
"690 0 LINE SMOOTH",
"709 0 OFFCURVE",
"712 15 OFFCURVE",
"705 33 CURVE SMOOTH",
"446 650 LINE SMOOTH",
"437 672 OFFCURVE",
"429 680 OFFCURVE",
"407 680 CURVE SMOOTH",
"334 680 LINE SMOOTH",
"312 680 OFFCURVE",
"303 672 OFFCURVE",
"294 650 CURVE SMOOTH",
"35 33 LINE SMOOTH",
"28 15 OFFCURVE",
"31 0 OFFCURVE",
"50 0 CURVE SMOOTH"
);
},
{
closed = 1;
nodes = (
"610 -214 OFFCURVE",
"638 -211 OFFCURVE",
"660 -200 CURVE SMOOTH",
"673 -194 OFFCURVE",
"673 -190 OFFCURVE",
"670 -183 CURVE SMOOTH",
"652 -144 LINE SMOOTH",
"649 -137 OFFCURVE",
"645 -136 OFFCURVE",
"638 -139 CURVE",
"632 -142 OFFCURVE",
"625 -143 OFFCURVE",
"616 -143 CURVE SMOOTH",
"600 -143 OFFCURVE",
"592 -134 OFFCURVE",
"592 -116 CURVE SMOOTH",
"592 -87 OFFCURVE",
"605 -66 OFFCURVE",
"652 -11 CURVE SMOOTH",
"659 -3 OFFCURVE",
"654 5 OFFCURVE",
"642 5 CURVE SMOOTH",
"564 5 LINE SMOOTH",
"551 5 OFFCURVE",
"547 1 OFFCURVE",
"539 -8 CURVE SMOOTH",
"495 -58 OFFCURVE",
"478 -95 OFFCURVE",
"478 -131 CURVE SMOOTH",
"478 -176 OFFCURVE",
"507 -214 OFFCURVE",
"572 -214 CURVE SMOOTH"
);
},
{
closed = 1;
nodes = (
"370 470 LINE",
"453 254 LINE",
"286 254 LINE"
);
}
);
width = 740;
}
);
note = Aogonek;
unicode = 0104;
},
{
glyphname = Aring;
lastChange = "2015-07-18 12:40:33 +0000";
layers = (
{
layerId = "EE9CB86C-5849-467B-879F-FFB2F6EA688D";
name = Regular;
paths = (
{
closed = 1;
nodes = (
"171 0 LINE SMOOTH",
"190 0 OFFCURVE",
"197 6 OFFCURVE",
"203 21 CURVE SMOOTH",
"248 139 LINE",
"491 139 LINE",
"537 21 LINE SMOOTH",
"543 6 OFFCURVE",
"550 0 OFFCURVE",
"569 0 CURVE SMOOTH",
"690 0 LINE SMOOTH",
"709 0 OFFCURVE",
"712 15 OFFCURVE",
"705 33 CURVE SMOOTH",
"446 650 LINE SMOOTH",
"437 672 OFFCURVE",
"429 680 OFFCURVE",
"407 680 CURVE SMOOTH",
"334 680 LINE SMOOTH",
"312 680 OFFCURVE",
"303 672 OFFCURVE",
"294 650 CURVE SMOOTH",
"35 33 LINE SMOOTH",
"28 15 OFFCURVE",
"31 0 OFFCURVE",
"50 0 CURVE SMOOTH"
);
},
{
closed = 1;
nodes = (
"370 470 LINE",
"453 254 LINE",
"286 254 LINE"
);
},
{
closed = 1;
nodes = (
"437 635 OFFCURVE",
"491 688 OFFCURVE",
"491 755 CURVE SMOOTH",
"491 822 OFFCURVE",
"437 876 OFFCURVE",
"370 876 CURVE SMOOTH",
"303 876 OFFCURVE",
"250 822 OFFCURVE",
"250 755 CURVE SMOOTH",
"250 688 OFFCURVE",
"303 635 OFFCURVE",
"370 635 CURVE SMOOTH"
);
},
{
closed = 1;
nodes = (
"344 709 OFFCURVE",
"324 729 OFFCURVE",
"324 755 CURVE SMOOTH",
"324 780 OFFCURVE",
"344 801 OFFCURVE",
"370 801 CURVE SMOOTH",
"395 801 OFFCURVE",
"416 780 OFFCURVE",
"416 755 CURVE SMOOTH",
"416 729 OFFCURVE",
"395 709 OFFCURVE",
"370 709 CURVE SMOOTH"
);
}
);
width = 740;
}
);
note = Aring;
unicode = 00C5;
},
{
glyphname = Aringacute;
lastChange = "2015-07-18 12:40:33 +0000";
layers = (
{
layerId = "EE9CB86C-5849-467B-879F-FFB2F6EA688D";
name = Regular;
paths = (
{
closed = 1;
nodes = (
"171 0 LINE SMOOTH",
"190 0 OFFCURVE",
"197 6 OFFCURVE",
"203 21 CURVE SMOOTH",
"248 139 LINE",
"491 139 LINE",
"537 21 LINE SMOOTH",
"543 6 OFFCURVE",
"550 0 OFFCURVE",
"569 0 CURVE SMOOTH",
"690 0 LINE SMOOTH",
"709 0 OFFCURVE",
"712 15 OFFCURVE",
"705 33 CURVE SMOOTH",
"446 650 LINE SMOOTH",
"437 672 OFFCURVE",
"429 680 OFFCURVE",
"407 680 CURVE SMOOTH",
"334 680 LINE SMOOTH",
"312 680 OFFCURVE",
"303 672 OFFCURVE",
"294 650 CURVE SMOOTH",
"35 33 LINE SMOOTH",
"28 15 OFFCURVE",
"31 0 OFFCURVE",
"50 0 CURVE SMOOTH"
);
},
{
closed = 1;
nodes = (
"370 470 LINE",
"453 254 LINE",
"286 254 LINE"
);
},
{
closed = 1;
nodes = (
"437 635 OFFCURVE",
"491 688 OFFCURVE",
"491 755 CURVE SMOOTH",
"491 822 OFFCURVE",
"437 876 OFFCURVE",
"370 876 CURVE SMOOTH",
"303 876 OFFCURVE",
"250 822 OFFCURVE",
"250 755 CURVE SMOOTH",
"250 688 OFFCURVE",
"303 635 OFFCURVE",
"370 635 CURVE SMOOTH"
);
},
{
closed = 1;
nodes = (
"344 709 OFFCURVE",
"324 729 OFFCURVE",
"324 755 CURVE SMOOTH",
"324 780 OFFCURVE",
"344 801 OFFCURVE",
"370 801 CURVE SMOOTH",
"395 801 OFFCURVE",
"416 780 OFFCURVE",
"416 755 CURVE SMOOTH",
"416 729 OFFCURVE",
"395 709 OFFCURVE",
"370 709 CURVE SMOOTH"
);
},
{
closed = 1;
nodes = (
"397 899 LINE SMOOTH",
"430 899 OFFCURVE",
"438 905 OFFCURVE",
"450 927 CURVE SMOOTH",
"515 1049 LINE SMOOTH",
"529 1075 OFFCURVE",
"516 1088 OFFCURVE",
"489 1088 CURVE SMOOTH",
"392 1088 LINE SMOOTH",
"361 1088 OFFCURVE",
"355 1080 OFFCURVE",
"347 1059 CURVE SMOOTH",
"302 933 LINE SMOOTH",
"295 913 OFFCURVE",
"301 899 OFFCURVE",
"327 899 CURVE SMOOTH"
);
}
);
width = 740;
}
);
note = Aringacute;
unicode = 01FA;
},
{
glyphname = Atilde;
lastChange = "2015-07-18 12:40:34 +0000";
layers = (
{
layerId = "EE9CB86C-5849-467B-879F-FFB2F6EA688D";
name = Regular;
paths = (
{
closed = 1;
nodes = (
"171 0 LINE SMOOTH",
"190 0 OFFCURVE",
"197 6 OFFCURVE",
"203 21 CURVE SMOOTH",
"248 139 LINE",
"491 139 LINE",
"537 21 LINE SMOOTH",
"543 6 OFFCURVE",
"550 0 OFFCURVE",
"569 0 CURVE SMOOTH",
"690 0 LINE SMOOTH",
"709 0 OFFCURVE",
"712 15 OFFCURVE",
"705 33 CURVE SMOOTH",
"446 650 LINE SMOOTH",
"437 672 OFFCURVE",
"429 680 OFFCURVE",
"407 680 CURVE SMOOTH",
"334 680 LINE SMOOTH",
"312 680 OFFCURVE",
"303 672 OFFCURVE",
"294 650 CURVE SMOOTH",
"35 33 LINE SMOOTH",
"28 15 OFFCURVE",
"31 0 OFFCURVE",
"50 0 CURVE SMOOTH"
);
},
{
closed = 1;
nodes = (
"370 470 LINE",
"453 254 LINE",
"286 254 LINE"
);
},
{
closed = 1;
nodes = (
"526 730 OFFCURVE",
"558 755 OFFCURVE",
"593 807 CURVE SMOOTH",
"612 834 OFFCURVE",
"609 848 OFFCURVE",
"578 872 CURVE SMOOTH",
"546 896 OFFCURVE",
"528 900 OFFCURVE",
"513 881 CURVE SMOOTH",
"492 855 OFFCURVE",
"480 846 OFFCURVE",
"454 846 CURVE SMOOTH",
"402 846 OFFCURVE",
"363 897 OFFCURVE",
"283 897 CURVE SMOOTH",
"229 897 OFFCURVE",
"198 868 OFFCURVE",
"165 824 CURVE SMOOTH",
"146 798 OFFCURVE",
"149 784 OFFCURVE",
"178 761 CURVE SMOOTH",
"209 736 OFFCURVE",
"227 731 OFFCURVE",
"242 749 CURVE SMOOTH",
"262 772 OFFCURVE",
"274 781 OFFCURVE",
"300 781 CURVE SMOOTH",
"352 781 OFFCURVE",
"402 730 OFFCURVE",
"467 730 CURVE SMOOTH"
);
}
);
width = 740;
}
);
note = Atilde;
unicode = 00C3;
},
{
glyphname = AE;
lastChange = "2015-07-18 12:40:35 +0000";
layers = (
{
layerId = "EE9CB86C-5849-467B-879F-FFB2F6EA688D";
name = Regular;
paths = (
{
closed = 1;
nodes = (
"174 0 LINE SMOOTH",
"193 0 OFFCURVE",
"197 4 OFFCURVE",
"202 18 CURVE SMOOTH",
"248 141 LINE",
"400 141 LINE",
"400 43 LINE SMOOTH",
"400 14 OFFCURVE",
"412 0 OFFCURVE",
"445 0 CURVE SMOOTH",
"817 0 LINE SMOOTH",
"850 0 OFFCURVE",
"860 13 OFFCURVE",
"860 42 CURVE SMOOTH",
"860 78 LINE SMOOTH",
"860 108 OFFCURVE",
"850 121 OFFCURVE",
"817 121 CURVE SMOOTH",
"554 121 LINE",
"554 280 LINE",
"729 280 LINE SMOOTH",
"762 280 OFFCURVE",
"771 294 OFFCURVE",
"771 323 CURVE SMOOTH",
"771 358 LINE SMOOTH",
"771 387 OFFCURVE",
"762 400 OFFCURVE",
"729 400 CURVE SMOOTH",
"554 400 LINE",
"554 558 LINE",
"818 558 LINE SMOOTH",
"851 558 OFFCURVE",
"860 572 OFFCURVE",
"860 601 CURVE SMOOTH",
"860 638 LINE SMOOTH",
"860 667 OFFCURVE",
"851 680 OFFCURVE",
"818 680 CURVE SMOOTH",
"334 680 LINE SMOOTH",
"311 680 OFFCURVE",
"303 672 OFFCURVE",
"294 650 CURVE SMOOTH",
"35 33 LINE SMOOTH",
"27 15 OFFCURVE",
"32 0 OFFCURVE",
"50 0 CURVE SMOOTH"
);
},
{
closed = 1;
nodes = (
"394 558 LINE",
"400 558 LINE",
"400 254 LINE",
"282 254 LINE"
);
}
);
width = 891;
}
);
note = AE;
unicode = 00C6;
},
{
glyphname = AEacute;
lastChange = "2015-07-18 12:40:36 +0000";
layers = (
{
layerId = "EE9CB86C-5849-467B-879F-FFB2F6EA688D";
name = Regular;
paths = (
{
closed = 1;
nodes = (
"174 0 LINE SMOOTH",
"193 0 OFFCURVE",
"197 4 OFFCURVE",
"202 18 CURVE SMOOTH",
"248 141 LINE",
"400 141 LINE",
"400 43 LINE SMOOTH",
"400 14 OFFCURVE",
"412 0 OFFCURVE",
"445 0 CURVE SMOOTH",
"817 0 LINE SMOOTH",
"850 0 OFFCURVE",
"860 13 OFFCURVE",
"860 42 CURVE SMOOTH",
"860 78 LINE SMOOTH",
"860 108 OFFCURVE",
"850 121 OFFCURVE",
"817 121 CURVE SMOOTH",
"554 121 LINE",
"554 280 LINE",
"729 280 LINE SMOOTH",
"762 280 OFFCURVE",
"771 294 OFFCURVE",
"771 323 CURVE SMOOTH",
"771 358 LINE SMOOTH",
"771 387 OFFCURVE",
"762 400 OFFCURVE",
"729 400 CURVE SMOOTH",
"554 400 LINE",
"554 558 LINE",
"818 558 LINE SMOOTH",
"851 558 OFFCURVE",
"860 572 OFFCURVE",
"860 601 CURVE SMOOTH",
"860 638 LINE SMOOTH",
"860 667 OFFCURVE",
"851 680 OFFCURVE",
"818 680 CURVE SMOOTH",
"334 680 LINE SMOOTH",
"311 680 OFFCURVE",
"303 672 OFFCURVE",
"294 650 CURVE SMOOTH",
"35 33 LINE SMOOTH",
"27 15 OFFCURVE",
"32 0 OFFCURVE",
"50 0 CURVE SMOOTH"
);
},
{
closed = 1;
nodes = (
"394 558 LINE",
"400 558 LINE",
"400 254 LINE",
"282 254 LINE"
);
},
{
closed = 1;
nodes = (
"524 723 LINE SMOOTH",
"557 723 OFFCURVE",
"565 729 OFFCURVE",
"577 751 CURVE SMOOTH",
"642 873 LINE SMOOTH",
"656 899 OFFCURVE",
"643 912 OFFCURVE",
"616 912 CURVE SMOOTH",
"519 912 LINE SMOOTH",
"488 912 OFFCURVE",
"482 904 OFFCURVE",
"474 883 CURVE SMOOTH",
"429 757 LINE SMOOTH",
"422 737 OFFCURVE",
"428 723 OFFCURVE",
"454 723 CURVE SMOOTH"
);
}
);
width = 894;
}
);
note = AEacute;
unicode = 01FC;
},
{
glyphname = B;
lastChange = "2015-07-18 12:40:35 +0000";
layers = (
{
layerId = "EE9CB86C-5849-467B-879F-FFB2F6EA688D";
name = Regular;
paths = (
{
closed = 1;
nodes = (
"389 0 LINE SMOOTH",
"552 0 OFFCURVE",
"628 91 OFFCURVE",
"628 202 CURVE SMOOTH",
"628 279 OFFCURVE",
"595 330 OFFCURVE",
"525 353 CURVE",
"578 375 OFFCURVE",
"609 428 OFFCURVE",
"609 490 CURVE SMOOTH",
"609 604 OFFCURVE",
"541 680 OFFCURVE",
"389 680 CURVE SMOOTH",
"96 680 LINE SMOOTH",
"63 680 OFFCURVE",
"51 665 OFFCURVE",
"51 636 CURVE SMOOTH",
"51 43 LINE SMOOTH",
"51 14 OFFCURVE",
"63 0 OFFCURVE",
"96 0 CURVE SMOOTH"
);
},
{
closed = 1;
nodes = (
"216 292 LINE",
"369 292 LINE SMOOTH",
"427 292 OFFCURVE",
"464 264 OFFCURVE",
"464 206 CURVE SMOOTH",
"464 158 OFFCURVE",
"438 121 OFFCURVE",
"377 121 CURVE SMOOTH",
"216 121 LINE"
);
},
{
closed = 1;
nodes = (
"216 559 LINE",
"361 559 LINE SMOOTH",
"418 559 OFFCURVE",
"445 538 OFFCURVE",
"445 483 CURVE SMOOTH",
"445 433 OFFCURVE",
"415 405 OFFCURVE",
"361 405 CURVE SMOOTH",
"216 405 LINE"
);
}
);
width = 659;
}
);
note = B;
unicode = 0042;
},
{
glyphname = C;
lastChange = "2015-07-18 12:40:28 +0000";
layers = (
{
layerId = "EE9CB86C-5849-467B-879F-FFB2F6EA688D";
name = Regular;
paths = (
{
closed = 1;
nodes = (
"501 -15 OFFCURVE",
"583 2 OFFCURVE",
"637 41 CURVE SMOOTH",
"650 51 OFFCURVE",
"652 55 OFFCURVE",
"645 68 CURVE SMOOTH",
"606 135 LINE SMOOTH",
"597 150 OFFCURVE",
"590 148 OFFCURVE",
"575 140 CURVE SMOOTH",
"536 118 OFFCURVE",
"488 104 OFFCURVE",
"417 104 CURVE SMOOTH",
"286 104 OFFCURVE",
"195 177 OFFCURVE",
"195 340 CURVE SMOOTH",
"195 500 OFFCURVE",
"278 576 OFFCURVE",
"412 576 CURVE SMOOTH",
"480 576 OFFCURVE",
"529 559 OFFCURVE",
"563 540 CURVE SMOOTH",
"578 532 OFFCURVE",
"585 530 OFFCURVE",
"594 545 CURVE SMOOTH",
"629 606 LINE SMOOTH",
"637 620 OFFCURVE",
"638 630 OFFCURVE",
"625 639 CURVE SMOOTH",
"571 675 OFFCURVE",
"489 695 OFFCURVE",
"392 695 CURVE SMOOTH",
"162 695 OFFCURVE",
"31 572 OFFCURVE",
"31 340 CURVE SMOOTH",
"31 108 OFFCURVE",
"167 -15 OFFCURVE",
"396 -15 CURVE SMOOTH"
);
}
);
width = 678;
}
);
note = C;
unicode = 0043;
},
{
glyphname = Cacute;
lastChange = "2015-07-18 12:40:33 +0000";
layers = (
{
layerId = "EE9CB86C-5849-467B-879F-FFB2F6EA688D";
name = Regular;
paths = (
{
closed = 1;
nodes = (
"501 -15 OFFCURVE",
"583 2 OFFCURVE",
"637 41 CURVE SMOOTH",
"650 51 OFFCURVE",
"652 55 OFFCURVE",
"645 68 CURVE SMOOTH",
"606 135 LINE SMOOTH",
"597 150 OFFCURVE",
"590 148 OFFCURVE",
"575 140 CURVE SMOOTH",
"536 118 OFFCURVE",
"488 104 OFFCURVE",
"417 104 CURVE SMOOTH",
"286 104 OFFCURVE",
"195 177 OFFCURVE",
"195 340 CURVE SMOOTH",
"195 500 OFFCURVE",
"278 576 OFFCURVE",
"412 576 CURVE SMOOTH",
"480 576 OFFCURVE",
"529 559 OFFCURVE",
"563 540 CURVE SMOOTH",
"578 532 OFFCURVE",
"585 530 OFFCURVE",
"594 545 CURVE SMOOTH",
"629 606 LINE SMOOTH",
"637 620 OFFCURVE",
"638 630 OFFCURVE",
"625 639 CURVE SMOOTH",
"571 675 OFFCURVE",
"489 695 OFFCURVE",
"392 695 CURVE SMOOTH",
"162 695 OFFCURVE",
"31 572 OFFCURVE",
"31 340 CURVE SMOOTH",
"31 108 OFFCURVE",
"167 -15 OFFCURVE",
"396 -15 CURVE SMOOTH"
);
},
{
closed = 1;
nodes = (
"400 747 LINE SMOOTH",
"433 747 OFFCURVE",
"441 753 OFFCURVE",
"453 775 CURVE SMOOTH",
"518 897 LINE SMOOTH",
"532 923 OFFCURVE",
"519 936 OFFCURVE",
"492 936 CURVE SMOOTH",
"395 936 LINE SMOOTH",
"364 936 OFFCURVE",
"358 928 OFFCURVE",
"350 907 CURVE SMOOTH",
"305 781 LINE SMOOTH",
"298 761 OFFCURVE",
"304 747 OFFCURVE",
"330 747 CURVE SMOOTH"
);
}
);
width = 678;
}
);
note = Cacute;
unicode = 0106;
},
{
glyphname = Ccaron;
lastChange = "2015-07-18 12:40:35 +0000";
layers = (
{
layerId = "EE9CB86C-5849-467B-879F-FFB2F6EA688D";
name = Regular;
paths = (
{
closed = 1;
nodes = (
"501 -15 OFFCURVE",
"583 2 OFFCURVE",
"637 41 CURVE SMOOTH",
"650 51 OFFCURVE",
"652 55 OFFCURVE",
"645 68 CURVE SMOOTH",
"606 135 LINE SMOOTH",
"597 150 OFFCURVE",
"590 148 OFFCURVE",
"575 140 CURVE SMOOTH",
"536 118 OFFCURVE",
"488 104 OFFCURVE",
"417 104 CURVE SMOOTH",
"286 104 OFFCURVE",
"195 177 OFFCURVE",
"195 340 CURVE SMOOTH",
"195 500 OFFCURVE",
"278 576 OFFCURVE",
"412 576 CURVE SMOOTH",
"480 576 OFFCURVE",
"529 559 OFFCURVE",
"563 540 CURVE SMOOTH",
"578 532 OFFCURVE",
"585 530 OFFCURVE",
"594 545 CURVE SMOOTH",
"629 606 LINE SMOOTH",
"637 620 OFFCURVE",
"638 630 OFFCURVE",
"625 639 CURVE SMOOTH",
"571 675 OFFCURVE",
"489 695 OFFCURVE",
"392 695 CURVE SMOOTH",
"162 695 OFFCURVE",
"31 572 OFFCURVE",
"31 340 CURVE SMOOTH",
"31 108 OFFCURVE",
"167 -15 OFFCURVE",
"396 -15 CURVE SMOOTH"
);
},
{
closed = 1;
nodes = (
"436 752 LINE SMOOTH",
"465 752 OFFCURVE",
"469 758 OFFCURVE",
"482 776 CURVE SMOOTH",
"582 909 LINE SMOOTH",
"600 932 OFFCURVE",
"594 948 OFFCURVE",
"568 948 CURVE SMOOTH",
"503 948 LINE SMOOTH",
"474 948 OFFCURVE",
"467 943 OFFCURVE",
"456 926 CURVE SMOOTH",
"397 837 LINE",
"337 926 LINE SMOOTH",
"326 943 OFFCURVE",
"319 948 OFFCURVE",
"290 948 CURVE SMOOTH",
"225 948 LINE SMOOTH",
"199 948 OFFCURVE",
"193 932 OFFCURVE",
"211 909 CURVE SMOOTH",
"311 776 LINE SMOOTH",
"325 758 OFFCURVE",
"328 752 OFFCURVE",
"357 752 CURVE SMOOTH"
);
}
);
width = 678;
}
);
note = Ccaron;
unicode = 010C;
},
{
glyphname = Ccedilla;
lastChange = "2015-07-18 12:40:34 +0000";
layers = (
{
layerId = "EE9CB86C-5849-467B-879F-FFB2F6EA688D";
name = Regular;
paths = (
{
closed = 1;
nodes = (
"501 -15 OFFCURVE",
"583 2 OFFCURVE",
"637 41 CURVE SMOOTH",
"650 51 OFFCURVE",
"652 55 OFFCURVE",
"645 68 CURVE SMOOTH",
"606 135 LINE SMOOTH",
"597 150 OFFCURVE",
"590 148 OFFCURVE",
"575 140 CURVE SMOOTH",
"536 118 OFFCURVE",
"488 104 OFFCURVE",
"417 104 CURVE SMOOTH",
"286 104 OFFCURVE",
"195 177 OFFCURVE",
"195 340 CURVE SMOOTH",
"195 500 OFFCURVE",
"278 576 OFFCURVE",
"412 576 CURVE SMOOTH",
"480 576 OFFCURVE",
"529 559 OFFCURVE",
"563 540 CURVE SMOOTH",
"578 532 OFFCURVE",
"585 530 OFFCURVE",
"594 545 CURVE SMOOTH",
"629 606 LINE SMOOTH",
"637 620 OFFCURVE",
"638 630 OFFCURVE",
"625 639 CURVE SMOOTH",
"571 675 OFFCURVE",
"489 695 OFFCURVE",
"392 695 CURVE SMOOTH",
"162 695 OFFCURVE",
"31 572 OFFCURVE",
"31 340 CURVE SMOOTH",
"31 108 OFFCURVE",
"167 -15 OFFCURVE",
"396 -15 CURVE SMOOTH"
);
},
{
closed = 1;
nodes = (
"456 -229 OFFCURVE",
"495 -192 OFFCURVE",
"495 -144 CURVE SMOOTH",
"495 -99 OFFCURVE",
"471 -76 OFFCURVE",
"426 -70 CURVE",
"449 -20 LINE SMOOTH",
"454 -10 OFFCURVE",
"451 -4 OFFCURVE",
"439 -4 CURVE SMOOTH",
"356 -4 LINE SMOOTH",
"342 -4 OFFCURVE",
"338 -7 OFFCURVE",
"334 -18 CURVE SMOOTH",
"307 -86 LINE SMOOTH",
"303 -96 OFFCURVE",
"307 -102 OFFCURVE",
"317 -102 CURVE SMOOTH",
"333 -102 LINE SMOOTH",
"371 -102 OFFCURVE",
"389 -107 OFFCURVE",
"389 -131 CURVE SMOOTH",
"389 -148 OFFCURVE",
"379 -156 OFFCURVE",
"353 -156 CURVE SMOOTH",
"339 -156 OFFCURVE",
"321 -152 OFFCURVE",
"308 -146 CURVE SMOOTH",
"299 -142 OFFCURVE",
"294 -141 OFFCURVE",
"290 -150 CURVE",
"273 -194 LINE SMOOTH",
"269 -204 OFFCURVE",
"271 -206 OFFCURVE",
"283 -212 CURVE SMOOTH",
"302 -222 OFFCURVE",
"341 -229 OFFCURVE",
"374 -229 CURVE SMOOTH"
);
}
);
width = 678;
}
);
note = Ccedilla;
unicode = 00C7;
},
{
glyphname = Ccircumflex;
lastChange = "2015-07-18 12:40:35 +0000";
layers = (
{
layerId = "EE9CB86C-5849-467B-879F-FFB2F6EA688D";
name = Regular;
paths = (
{
closed = 1;
nodes = (
"501 -15 OFFCURVE",
"583 2 OFFCURVE",
"637 41 CURVE SMOOTH",
"650 51 OFFCURVE",
"652 55 OFFCURVE",
"645 68 CURVE SMOOTH",
"606 135 LINE SMOOTH",
"597 150 OFFCURVE",
"590 148 OFFCURVE",
"575 140 CURVE SMOOTH",
"536 118 OFFCURVE",
"488 104 OFFCURVE",
"417 104 CURVE SMOOTH",
"286 104 OFFCURVE",
"195 177 OFFCURVE",
"195 340 CURVE SMOOTH",
"195 500 OFFCURVE",
"278 576 OFFCURVE",
"412 576 CURVE SMOOTH",
"480 576 OFFCURVE",
"529 559 OFFCURVE",
"563 540 CURVE SMOOTH",
"578 532 OFFCURVE",
"585 530 OFFCURVE",
"594 545 CURVE SMOOTH",
"629 606 LINE SMOOTH",
"637 620 OFFCURVE",
"638 630 OFFCURVE",
"625 639 CURVE SMOOTH",
"571 675 OFFCURVE",
"489 695 OFFCURVE",
"392 695 CURVE SMOOTH",
"162 695 OFFCURVE",
"31 572 OFFCURVE",
"31 340 CURVE SMOOTH",
"31 108 OFFCURVE",
"167 -15 OFFCURVE",
"396 -15 CURVE SMOOTH"
);
},
{
closed = 1;
nodes = (
"271 734 LINE SMOOTH",
"300 734 OFFCURVE",
"308 741 OFFCURVE",
"319 758 CURVE SMOOTH",
"378 846 LINE",
"437 758 LINE SMOOTH",
"448 741 OFFCURVE",
"456 734 OFFCURVE",
"485 734 CURVE SMOOTH",
"546 734 LINE SMOOTH",
"572 734 OFFCURVE",
"581 750 OFFCURVE",
"563 774 CURVE SMOOTH",
"463 907 LINE SMOOTH",
"450 924 OFFCURVE",
"446 931 OFFCURVE",
"417 931 CURVE SMOOTH",
"338 931 LINE SMOOTH",
"309 931 OFFCURVE",
"306 924 OFFCURVE",
"292 907 CURVE",
"192 774 LINE SMOOTH",
"174 750 OFFCURVE",
"184 734 OFFCURVE",
"210 734 CURVE SMOOTH"
);
}
);
width = 678;
}
);
note = Ccircumflex;
unicode = 0108;
},
{
glyphname = Cdotaccent;
lastChange = "2015-07-18 12:40:33 +0000";
layers = (
{
layerId = "EE9CB86C-5849-467B-879F-FFB2F6EA688D";
name = Regular;
paths = (
{
closed = 1;
nodes = (
"501 -15 OFFCURVE",
"583 2 OFFCURVE",
"637 41 CURVE SMOOTH",
"650 51 OFFCURVE",
"652 55 OFFCURVE",
"645 68 CURVE SMOOTH",
"606 135 LINE SMOOTH",
"597 150 OFFCURVE",
"590 148 OFFCURVE",
"575 140 CURVE SMOOTH",
"536 118 OFFCURVE",
"488 104 OFFCURVE",
"417 104 CURVE SMOOTH",
"286 104 OFFCURVE",
"195 177 OFFCURVE",
"195 340 CURVE SMOOTH",
"195 500 OFFCURVE",
"278 576 OFFCURVE",
"412 576 CURVE SMOOTH",
"480 576 OFFCURVE",
"529 559 OFFCURVE",
"563 540 CURVE SMOOTH",
"578 532 OFFCURVE",
"585 530 OFFCURVE",
"594 545 CURVE SMOOTH",
"629 606 LINE SMOOTH",
"637 620 OFFCURVE",
"638 630 OFFCURVE",
"625 639 CURVE SMOOTH",
"571 675 OFFCURVE",
"489 695 OFFCURVE",
"392 695 CURVE SMOOTH",
"162 695 OFFCURVE",
"31 572 OFFCURVE",
"31 340 CURVE SMOOTH",
"31 108 OFFCURVE",
"167 -15 OFFCURVE",
"396 -15 CURVE SMOOTH"
);
},
{
closed = 1;
nodes = (
"388 761 LINE SMOOTH",
"420 761 OFFCURVE",
"442 787 OFFCURVE",
"442 818 CURVE SMOOTH",
"442 840 LINE SMOOTH",
"442 872 OFFCURVE",
"419 897 OFFCURVE",
"388 897 CURVE SMOOTH",
"364 897 LINE SMOOTH",
"332 897 OFFCURVE",
"310 872 OFFCURVE",
"310 840 CURVE SMOOTH",
"310 818 LINE SMOOTH",
"310 787 OFFCURVE",
"332 761 OFFCURVE",
"364 761 CURVE SMOOTH"
);
}
);
width = 678;
}
);
note = Cdotaccent;
unicode = 010A;
},
{
glyphname = D;
lastChange = "2015-07-18 12:40:34 +0000";
layers = (
{
layerId = "EE9CB86C-5849-467B-879F-FFB2F6EA688D";
name = Regular;
paths = (
{
closed = 1;
nodes = (
"306 0 LINE SMOOTH",
"526 0 OFFCURVE",
"655 103 OFFCURVE",
"655 340 CURVE SMOOTH",
"655 582 OFFCURVE",
"526 680 OFFCURVE",
"306 680 CURVE SMOOTH",
"96 680 LINE SMOOTH",
"63 680 OFFCURVE",
"51 665 OFFCURVE",
"51 636 CURVE SMOOTH",
"51 43 LINE SMOOTH",
"51 14 OFFCURVE",
"63 0 OFFCURVE",
"96 0 CURVE SMOOTH"
);
},
{
closed = 1;
nodes = (
"216 558 LINE",
"314 558 LINE SMOOTH",
"427 558 OFFCURVE",
"491 507 OFFCURVE",
"491 340 CURVE SMOOTH",
"491 173 OFFCURVE",
"427 121 OFFCURVE",
"314 121 CURVE SMOOTH",
"216 121 LINE"
);
}
);
width = 686;
}
);
note = D;
unicode = 0044;
},
{
glyphname = Eth;
lastChange = "2015-07-18 12:40:34 +0000";
layers = (
{
layerId = "EE9CB86C-5849-467B-879F-FFB2F6EA688D";
name = Regular;
paths = (
{
closed = 1;
nodes = (
"349 0 LINE SMOOTH",
"568 0 OFFCURVE",
"698 103 OFFCURVE",
"698 340 CURVE SMOOTH",
"698 582 OFFCURVE",
"568 680 OFFCURVE",
"349 680 CURVE SMOOTH",
"139 680 LINE SMOOTH",
"105 680 OFFCURVE",
"94 665 OFFCURVE",
"94 636 CURVE SMOOTH",
"94 401 LINE",
"51 401 LINE SMOOTH",
"19 401 OFFCURVE",
"11 389 OFFCURVE",
"11 359 CURVE SMOOTH",
"11 321 LINE SMOOTH",
"11 292 OFFCURVE",
"19 280 OFFCURVE",
"51 280 CURVE SMOOTH",
"94 280 LINE",
"94 43 LINE SMOOTH",
"94 14 OFFCURVE",
"105 0 OFFCURVE",
"139 0 CURVE SMOOTH"
);
},
{
closed = 1;
nodes = (
"259 280 LINE",
"379 280 LINE SMOOTH",
"411 280 OFFCURVE",
"419 292 OFFCURVE",
"419 321 CURVE SMOOTH",
"419 359 LINE SMOOTH",
"419 389 OFFCURVE",
"411 401 OFFCURVE",
"379 401 CURVE SMOOTH",
"259 401 LINE",
"259 558 LINE",
"357 558 LINE SMOOTH",
"470 558 OFFCURVE",
"534 507 OFFCURVE",
"534 340 CURVE SMOOTH",
"534 173 OFFCURVE",
"470 121 OFFCURVE",
"357 121 CURVE SMOOTH",
"259 121 LINE"
);
}
);
width = 729;
}
);
note = Eth;
unicode = 00D0;
},
{
glyphname = Dcaron;
lastChange = "2015-07-18 12:40:35 +0000";
layers = (
{
layerId = "EE9CB86C-5849-467B-879F-FFB2F6EA688D";
name = Regular;
paths = (
{
closed = 1;
nodes = (
"306 0 LINE SMOOTH",
"526 0 OFFCURVE",
"655 103 OFFCURVE",
"655 340 CURVE SMOOTH",
"655 582 OFFCURVE",
"526 680 OFFCURVE",
"306 680 CURVE SMOOTH",
"96 680 LINE SMOOTH",
"63 680 OFFCURVE",
"51 665 OFFCURVE",
"51 636 CURVE SMOOTH",
"51 43 LINE SMOOTH",
"51 14 OFFCURVE",
"63 0 OFFCURVE",
"96 0 CURVE SMOOTH"
);
},
{
closed = 1;
nodes = (
"216 558 LINE",
"314 558 LINE SMOOTH",
"427 558 OFFCURVE",
"491 507 OFFCURVE",
"491 340 CURVE SMOOTH",
"491 173 OFFCURVE",
"427 121 OFFCURVE",
"314 121 CURVE SMOOTH",
"216 121 LINE"
);
},
{
closed = 1;
nodes = (
"348 752 LINE SMOOTH",
"377 752 OFFCURVE",
"381 758 OFFCURVE",
"394 776 CURVE SMOOTH",
"494 909 LINE SMOOTH",
"512 932 OFFCURVE",
"506 948 OFFCURVE",
"480 948 CURVE SMOOTH",
"415 948 LINE SMOOTH",
"386 948 OFFCURVE",
"379 943 OFFCURVE",
"368 926 CURVE SMOOTH",
"309 837 LINE",
"249 926 LINE SMOOTH",
"238 943 OFFCURVE",
"231 948 OFFCURVE",
"202 948 CURVE SMOOTH",
"137 948 LINE SMOOTH",
"111 948 OFFCURVE",
"105 932 OFFCURVE",
"123 909 CURVE SMOOTH",
"223 776 LINE SMOOTH",
"237 758 OFFCURVE",
"240 752 OFFCURVE",
"269 752 CURVE SMOOTH"
);
}
);
width = 686;
}
);
note = Dcaron;
unicode = 010E;
},
{
glyphname = Dcroat;
lastChange = "2015-07-18 12:40:33 +0000";
layers = (
{
layerId = "EE9CB86C-5849-467B-879F-FFB2F6EA688D";
name = Regular;
paths = (
{
closed = 1;
nodes = (
"339 0 LINE SMOOTH",
"558 0 OFFCURVE",
"688 103 OFFCURVE",
"688 340 CURVE SMOOTH",
"688 582 OFFCURVE",
"558 680 OFFCURVE",
"339 680 CURVE SMOOTH",
"129 680 LINE SMOOTH",
"95 680 OFFCURVE",
"84 665 OFFCURVE",
"84 636 CURVE SMOOTH",
"84 401 LINE",
"43 401 LINE SMOOTH",
"10 401 OFFCURVE",
"1 388 OFFCURVE",
"1 358 CURVE SMOOTH",
"1 322 LINE SMOOTH",
"1 293 OFFCURVE",
"10 280 OFFCURVE",
"43 280 CURVE SMOOTH",
"84 280 LINE",
"84 43 LINE SMOOTH",
"84 14 OFFCURVE",
"95 0 OFFCURVE",
"129 0 CURVE SMOOTH"
);
},
{
closed = 1;
nodes = (
"249 280 LINE",
"366 280 LINE SMOOTH",
"399 280 OFFCURVE",
"409 293 OFFCURVE",
"409 322 CURVE SMOOTH",
"409 358 LINE SMOOTH",
"409 388 OFFCURVE",
"399 401 OFFCURVE",
"366 401 CURVE SMOOTH",
"249 401 LINE",
"249 558 LINE",
"347 558 LINE SMOOTH",
"460 558 OFFCURVE",
"524 507 OFFCURVE",
"524 340 CURVE SMOOTH",
"524 173 OFFCURVE",
"460 121 OFFCURVE",
"347 121 CURVE SMOOTH",
"249 121 LINE"
);
}
);
width = 719;
}
);
note = Dcroat;
unicode = 0110;
},
{
glyphname = Ddotbelow;
lastChange = "2015-07-18 12:40:35 +0000";
layers = (
{
layerId = "EE9CB86C-5849-467B-879F-FFB2F6EA688D";
name = Regular;
paths = (
{
closed = 1;
nodes = (
"306 0 LINE SMOOTH",
"526 0 OFFCURVE",
"655 103 OFFCURVE",
"655 340 CURVE SMOOTH",
"655 582 OFFCURVE",
"526 680 OFFCURVE",
"306 680 CURVE SMOOTH",
"96 680 LINE SMOOTH",
"63 680 OFFCURVE",
"51 665 OFFCURVE",
"51 636 CURVE SMOOTH",
"51 43 LINE SMOOTH",
"51 14 OFFCURVE",
"63 0 OFFCURVE",
"96 0 CURVE SMOOTH"
);
},
{
closed = 1;
nodes = (
"312 -195 LINE SMOOTH",
"345 -195 OFFCURVE",
"366 -169 OFFCURVE",
"366 -138 CURVE SMOOTH",
"366 -116 LINE SMOOTH",
"366 -84 OFFCURVE",
"344 -59 OFFCURVE",
"312 -59 CURVE SMOOTH",
"288 -59 LINE SMOOTH",
"257 -59 OFFCURVE",
"234 -84 OFFCURVE",
"234 -116 CURVE SMOOTH",
"234 -138 LINE SMOOTH",
"234 -169 OFFCURVE",
"257 -195 OFFCURVE",
"288 -195 CURVE SMOOTH"
);
},
{
closed = 1;
nodes = (
"216 558 LINE",
"314 558 LINE SMOOTH",
"427 558 OFFCURVE",
"491 507 OFFCURVE",
"491 340 CURVE SMOOTH",
"491 173 OFFCURVE",
"427 121 OFFCURVE",
"314 121 CURVE SMOOTH",
"216 121 LINE"
);
}
);
width = 686;
}
);
note = Ddotbelow;
unicode = 1E0C;
},
{
glyphname = Dlinebelow;
lastChange = "2015-07-18 12:40:35 +0000";
layers = (
{
layerId = "EE9CB86C-5849-467B-879F-FFB2F6EA688D";
name = Regular;
paths = (
{
closed = 1;
nodes = (
"306 0 LINE SMOOTH",
"526 0 OFFCURVE",
"655 103 OFFCURVE",
"655 340 CURVE SMOOTH",
"655 582 OFFCURVE",
"526 680 OFFCURVE",
"306 680 CURVE SMOOTH",
"96 680 LINE SMOOTH",
"63 680 OFFCURVE",
"51 665 OFFCURVE",
"51 636 CURVE SMOOTH",
"51 43 LINE SMOOTH",
"51 14 OFFCURVE",
"63 0 OFFCURVE",
"96 0 CURVE SMOOTH"
);
},
{
closed = 1;
nodes = (
"410 -174 LINE SMOOTH",
"443 -174 OFFCURVE",
"452 -161 OFFCURVE",
"452 -132 CURVE SMOOTH",
"452 -107 LINE SMOOTH",
"452 -78 OFFCURVE",
"443 -64 OFFCURVE",
"410 -64 CURVE SMOOTH",
"158 -64 LINE SMOOTH",
"125 -64 OFFCURVE",
"116 -78 OFFCURVE",
"116 -107 CURVE SMOOTH",
"116 -132 LINE SMOOTH",
"116 -161 OFFCURVE",
"125 -174 OFFCURVE",
"158 -174 CURVE SMOOTH"
);
},
{
closed = 1;
nodes = (
"216 558 LINE",
"314 558 LINE SMOOTH",
"427 558 OFFCURVE",
"491 507 OFFCURVE",
"491 340 CURVE SMOOTH",
"491 173 OFFCURVE",
"427 121 OFFCURVE",
"314 121 CURVE SMOOTH",
"216 121 LINE"
);
}
);
width = 686;
}
);
note = Dlinebelow;
unicode = 1E0E;
},
{
glyphname = E;
lastChange = "2015-07-18 12:40:28 +0000";
layers = (
{
layerId = "EE9CB86C-5849-467B-879F-FFB2F6EA688D";
name = Regular;
paths = (
{
closed = 1;
nodes = (
"510 0 LINE SMOOTH",
"543 0 OFFCURVE",
"552 13 OFFCURVE",
"552 42 CURVE SMOOTH",
"552 78 LINE SMOOTH",
"552 108 OFFCURVE",
"543 121 OFFCURVE",
"510 121 CURVE SMOOTH",
"216 121 LINE",
"216 280 LINE",
"422 280 LINE SMOOTH",
"455 280 OFFCURVE",
"464 294 OFFCURVE",
"464 323 CURVE SMOOTH",
"464 358 LINE SMOOTH",
"464 387 OFFCURVE",
"455 400 OFFCURVE",
"422 400 CURVE SMOOTH",
"216 400 LINE",
"216 558 LINE",
"511 558 LINE SMOOTH",
"544 558 OFFCURVE",
"553 572 OFFCURVE",
"553 601 CURVE SMOOTH",
"553 638 LINE SMOOTH",
"553 667 OFFCURVE",
"544 680 OFFCURVE",
"511 680 CURVE SMOOTH",
"96 680 LINE SMOOTH",
"63 680 OFFCURVE",
"51 665 OFFCURVE",
"51 636 CURVE SMOOTH",
"51 43 LINE SMOOTH",
"51 14 OFFCURVE",
"63 0 OFFCURVE",
"96 0 CURVE SMOOTH"
);
}
);
width = 574;
}
);
note = E;
unicode = 0045;
},
{
glyphname = Eacute;
lastChange = "2015-07-18 12:40:34 +0000";
layers = (
{
layerId = "EE9CB86C-5849-467B-879F-FFB2F6EA688D";
name = Regular;
paths = (
{
closed = 1;
nodes = (
"510 0 LINE SMOOTH",
"543 0 OFFCURVE",
"552 13 OFFCURVE",
"552 42 CURVE SMOOTH",
"552 78 LINE SMOOTH",
"552 108 OFFCURVE",
"543 121 OFFCURVE",
"510 121 CURVE SMOOTH",
"216 121 LINE",
"216 280 LINE",
"422 280 LINE SMOOTH",
"455 280 OFFCURVE",
"464 294 OFFCURVE",
"464 323 CURVE SMOOTH",
"464 358 LINE SMOOTH",
"464 387 OFFCURVE",
"455 400 OFFCURVE",
"422 400 CURVE SMOOTH",
"216 400 LINE",
"216 558 LINE",
"511 558 LINE SMOOTH",
"544 558 OFFCURVE",
"553 572 OFFCURVE",
"553 601 CURVE SMOOTH",
"553 638 LINE SMOOTH",
"553 667 OFFCURVE",
"544 680 OFFCURVE",
"511 680 CURVE SMOOTH",
"96 680 LINE SMOOTH",
"63 680 OFFCURVE",
"51 665 OFFCURVE",
"51 636 CURVE SMOOTH",
"51 43 LINE SMOOTH",
"51 14 OFFCURVE",
"63 0 OFFCURVE",
"96 0 CURVE SMOOTH"
);
},
{
closed = 1;
nodes = (
"311 747 LINE SMOOTH",
"344 747 OFFCURVE",
"352 753 OFFCURVE",
"364 775 CURVE SMOOTH",
"429 897 LINE SMOOTH",
"443 923 OFFCURVE",
"430 936 OFFCURVE",
"403 936 CURVE SMOOTH",
"306 936 LINE SMOOTH",
"275 936 OFFCURVE",
"269 928 OFFCURVE",
"261 907 CURVE SMOOTH",
"216 781 LINE SMOOTH",
"209 761 OFFCURVE",
"215 747 OFFCURVE",
"241 747 CURVE SMOOTH"
);
}
);
width = 574;
}
);
note = Eacute;
unicode = 00C9;
},
{
glyphname = Ebreve;
lastChange = "2015-07-18 12:40:35 +0000";
layers = (
{
layerId = "EE9CB86C-5849-467B-879F-FFB2F6EA688D";
name = Regular;
paths = (
{
closed = 1;
nodes = (
"510 0 LINE SMOOTH",
"543 0 OFFCURVE",
"552 13 OFFCURVE",
"552 42 CURVE SMOOTH",
"552 78 LINE SMOOTH",
"552 108 OFFCURVE",
"543 121 OFFCURVE",
"510 121 CURVE SMOOTH",
"216 121 LINE",
"216 280 LINE",
"422 280 LINE SMOOTH",
"455 280 OFFCURVE",
"464 294 OFFCURVE",
"464 323 CURVE SMOOTH",
"464 358 LINE SMOOTH",
"464 387 OFFCURVE",
"455 400 OFFCURVE",
"422 400 CURVE SMOOTH",
"216 400 LINE",
"216 558 LINE",
"511 558 LINE SMOOTH",
"544 558 OFFCURVE",
"553 572 OFFCURVE",
"553 601 CURVE SMOOTH",
"553 638 LINE SMOOTH",
"553 667 OFFCURVE",
"544 680 OFFCURVE",
"511 680 CURVE SMOOTH",
"96 680 LINE SMOOTH",
"63 680 OFFCURVE",
"51 665 OFFCURVE",
"51 636 CURVE SMOOTH",
"51 43 LINE SMOOTH",
"51 14 OFFCURVE",
"63 0 OFFCURVE",
"96 0 CURVE SMOOTH"
);
},
{
closed = 1;
nodes = (
"428 750 OFFCURVE",
"486 822 OFFCURVE",
"486 918 CURVE SMOOTH",
"486 929 OFFCURVE",
"480 936 OFFCURVE",
"470 936 CURVE SMOOTH",
"383 936 LINE SMOOTH",
"369 936 OFFCURVE",
"366 929 OFFCURVE",
"366 917 CURVE SMOOTH",
"366 880 OFFCURVE",
"351 855 OFFCURVE",
"309 855 CURVE SMOOTH",
"266 855 OFFCURVE",
"252 880 OFFCURVE",
"252 917 CURVE SMOOTH",
"252 929 OFFCURVE",
"249 936 OFFCURVE",
"235 936 CURVE SMOOTH",
"148 936 LINE SMOOTH",
"138 936 OFFCURVE",
"132 929 OFFCURVE",
"132 918 CURVE SMOOTH",
"132 822 OFFCURVE",
"189 750 OFFCURVE",
"309 750 CURVE SMOOTH"
);
}
);
width = 574;
}
);
note = Ebreve;
unicode = 0114;
},
{
glyphname = Ecaron;
lastChange = "2015-07-18 12:40:35 +0000";
layers = (
{
layerId = "EE9CB86C-5849-467B-879F-FFB2F6EA688D";
name = Regular;
paths = (
{
closed = 1;
nodes = (
"510 0 LINE SMOOTH",
"543 0 OFFCURVE",
"552 13 OFFCURVE",
"552 42 CURVE SMOOTH",
"552 78 LINE SMOOTH",
"552 108 OFFCURVE",
"543 121 OFFCURVE",
"510 121 CURVE SMOOTH",
"216 121 LINE",
"216 280 LINE",
"422 280 LINE SMOOTH",
"455 280 OFFCURVE",
"464 294 OFFCURVE",
"464 323 CURVE SMOOTH",
"464 358 LINE SMOOTH",
"464 387 OFFCURVE",
"455 400 OFFCURVE",
"422 400 CURVE SMOOTH",
"216 400 LINE",
"216 558 LINE",
"511 558 LINE SMOOTH",
"544 558 OFFCURVE",
"553 572 OFFCURVE",
"553 601 CURVE SMOOTH",
"553 638 LINE SMOOTH",
"553 667 OFFCURVE",
"544 680 OFFCURVE",
"511 680 CURVE SMOOTH",
"96 680 LINE SMOOTH",
"63 680 OFFCURVE",
"51 665 OFFCURVE",
"51 636 CURVE SMOOTH",
"51 43 LINE SMOOTH",
"51 14 OFFCURVE",
"63 0 OFFCURVE",
"96 0 CURVE SMOOTH"
);
},
{
closed = 1;
nodes = (
"346 752 LINE SMOOTH",
"375 752 OFFCURVE",
"379 758 OFFCURVE",
"392 776 CURVE SMOOTH",
"492 909 LINE SMOOTH",
"510 932 OFFCURVE",
"504 948 OFFCURVE",
"478 948 CURVE SMOOTH",
"413 948 LINE SMOOTH",
"384 948 OFFCURVE",
"377 943 OFFCURVE",
"366 926 CURVE SMOOTH",
"307 837 LINE",
"247 926 LINE SMOOTH",
"236 943 OFFCURVE",
"229 948 OFFCURVE",
"200 948 CURVE SMOOTH",
"135 948 LINE SMOOTH",
"109 948 OFFCURVE",
"103 932 OFFCURVE",
"121 909 CURVE SMOOTH",
"221 776 LINE SMOOTH",
"235 758 OFFCURVE",
"238 752 OFFCURVE",
"267 752 CURVE SMOOTH"
);
}
);
width = 574;
}
);
note = Ecaron;
unicode = 011A;
},
{
glyphname = Ecircumflex;
lastChange = "2015-07-18 12:40:35 +0000";
layers = (
{
layerId = "EE9CB86C-5849-467B-879F-FFB2F6EA688D";
name = Regular;
paths = (
{
closed = 1;
nodes = (
"510 0 LINE SMOOTH",
"543 0 OFFCURVE",
"552 13 OFFCURVE",
"552 42 CURVE SMOOTH",
"552 78 LINE SMOOTH",
"552 108 OFFCURVE",
"543 121 OFFCURVE",
"510 121 CURVE SMOOTH",
"216 121 LINE",
"216 280 LINE",
"422 280 LINE SMOOTH",
"455 280 OFFCURVE",
"464 294 OFFCURVE",
"464 323 CURVE SMOOTH",
"464 358 LINE SMOOTH",
"464 387 OFFCURVE",
"455 400 OFFCURVE",
"422 400 CURVE SMOOTH",
"216 400 LINE",
"216 558 LINE",
"511 558 LINE SMOOTH",
"544 558 OFFCURVE",
"553 572 OFFCURVE",
"553 601 CURVE SMOOTH",
"553 638 LINE SMOOTH",
"553 667 OFFCURVE",
"544 680 OFFCURVE",
"511 680 CURVE SMOOTH",
"96 680 LINE SMOOTH",
"63 680 OFFCURVE",
"51 665 OFFCURVE",
"51 636 CURVE SMOOTH",
"51 43 LINE SMOOTH",
"51 14 OFFCURVE",
"63 0 OFFCURVE",
"96 0 CURVE SMOOTH"
);
},
{
closed = 1;
nodes = (
"193 746 LINE SMOOTH",
"222 746 OFFCURVE",
"230 753 OFFCURVE",
"241 770 CURVE SMOOTH",
"300 858 LINE",
"359 770 LINE SMOOTH",
"370 753 OFFCURVE",
"378 746 OFFCURVE",
"407 746 CURVE SMOOTH",
"468 746 LINE SMOOTH",
"494 746 OFFCURVE",
"503 762 OFFCURVE",
"485 786 CURVE SMOOTH",
"385 919 LINE SMOOTH",
"372 936 OFFCURVE",
"368 943 OFFCURVE",
"339 943 CURVE SMOOTH",
"260 943 LINE SMOOTH",
"231 943 OFFCURVE",
"228 936 OFFCURVE",
"214 919 CURVE",
"114 786 LINE SMOOTH",
"96 762 OFFCURVE",
"106 746 OFFCURVE",
"132 746 CURVE SMOOTH"
);
}
);
width = 574;
}
);
note = Ecircumflex;
unicode = 00CA;
},
{
glyphname = Ecircumflexacute;
lastChange = "2015-07-18 12:40:35 +0000";
layers = (
{
layerId = "EE9CB86C-5849-467B-879F-FFB2F6EA688D";
name = Regular;
paths = (
{
closed = 1;
nodes = (
"510 0 LINE SMOOTH",
"543 0 OFFCURVE",
"552 13 OFFCURVE",
"552 42 CURVE SMOOTH",
"552 78 LINE SMOOTH",
"552 108 OFFCURVE",
"543 121 OFFCURVE",
"510 121 CURVE SMOOTH",
"216 121 LINE",
"216 280 LINE",
"422 280 LINE SMOOTH",
"455 280 OFFCURVE",
"464 294 OFFCURVE",
"464 323 CURVE SMOOTH",
"464 358 LINE SMOOTH",
"464 387 OFFCURVE",
"455 400 OFFCURVE",
"422 400 CURVE SMOOTH",
"216 400 LINE",
"216 558 LINE",
"511 558 LINE SMOOTH",
"544 558 OFFCURVE",
"553 572 OFFCURVE",
"553 601 CURVE SMOOTH",
"553 638 LINE SMOOTH",
"553 667 OFFCURVE",
"544 680 OFFCURVE",
"511 680 CURVE SMOOTH",
"96 680 LINE SMOOTH",
"63 680 OFFCURVE",
"51 665 OFFCURVE",
"51 636 CURVE SMOOTH",
"51 43 LINE SMOOTH",
"51 14 OFFCURVE",
"63 0 OFFCURVE",
"96 0 CURVE SMOOTH"
);
},
{
closed = 1;
nodes = (
"196 729 LINE SMOOTH",
"223 729 OFFCURVE",
"232 734 OFFCURVE",
"243 751 CURVE",
"299 826 LINE",
"355 751 LINE",
"366 734 OFFCURVE",
"374 729 OFFCURVE",
"402 729 CURVE SMOOTH",
"460 729 LINE SMOOTH",
"486 729 OFFCURVE",
"495 746 OFFCURVE",
"476 769 CURVE SMOOTH",
"378 890 LINE SMOOTH",
"365 907 OFFCURVE",
"360 914 OFFCURVE",
"331 914 CURVE SMOOTH",
"266 914 LINE SMOOTH",
"238 914 OFFCURVE",
"233 907 OFFCURVE",
"219 890 CURVE SMOOTH",
"121 769 LINE SMOOTH",
"103 746 OFFCURVE",
"111 729 OFFCURVE",
"138 729 CURVE SMOOTH"
);
},
{
closed = 1;
nodes = (
"470 872 LINE SMOOTH",
"499 872 OFFCURVE",
"506 876 OFFCURVE",
"519 899 CURVE SMOOTH",
"565 983 LINE SMOOTH",
"578 1007 OFFCURVE",
"572 1022 OFFCURVE",
"546 1022 CURVE SMOOTH",
"484 1022 LINE SMOOTH",
"457 1022 OFFCURVE",
"452 1014 OFFCURVE",
"445 993 CURVE SMOOTH",
"411 901 LINE SMOOTH",
"405 885 OFFCURVE",
"412 872 OFFCURVE",
"433 872 CURVE SMOOTH"
);
}
);
width = 578;
}
);
note = Ecircumflexacute;
unicode = 1EBE;
},
{
glyphname = Ecircumflexdotbelow;
lastChange = "2015-07-18 12:40:33 +0000";
layers = (
{
layerId = "EE9CB86C-5849-467B-879F-FFB2F6EA688D";
name = Regular;
paths = (
{
closed = 1;
nodes = (
"510 0 LINE SMOOTH",
"543 0 OFFCURVE",
"552 13 OFFCURVE",
"552 42 CURVE SMOOTH",
"552 78 LINE SMOOTH",
"552 108 OFFCURVE",
"543 121 OFFCURVE",
"510 121 CURVE SMOOTH",
"216 121 LINE",
"216 280 LINE",
"422 280 LINE SMOOTH",
"455 280 OFFCURVE",
"464 294 OFFCURVE",
"464 323 CURVE SMOOTH",
"464 358 LINE SMOOTH",
"464 387 OFFCURVE",
"455 400 OFFCURVE",
"422 400 CURVE SMOOTH",
"216 400 LINE",
"216 558 LINE",
"511 558 LINE SMOOTH",
"544 558 OFFCURVE",
"553 572 OFFCURVE",
"553 601 CURVE SMOOTH",
"553 638 LINE SMOOTH",
"553 667 OFFCURVE",
"544 680 OFFCURVE",
"511 680 CURVE SMOOTH",
"96 680 LINE SMOOTH",
"63 680 OFFCURVE",
"51 665 OFFCURVE",
"51 636 CURVE SMOOTH",
"51 43 LINE SMOOTH",
"51 14 OFFCURVE",
"63 0 OFFCURVE",
"96 0 CURVE SMOOTH"
);
},
{
closed = 1;
nodes = (
"312 -195 LINE SMOOTH",
"345 -195 OFFCURVE",
"366 -169 OFFCURVE",
"366 -138 CURVE SMOOTH",
"366 -116 LINE SMOOTH",
"366 -84 OFFCURVE",
"344 -59 OFFCURVE",
"312 -59 CURVE SMOOTH",
"288 -59 LINE SMOOTH",
"257 -59 OFFCURVE",
"234 -84 OFFCURVE",
"234 -116 CURVE SMOOTH",
"234 -138 LINE SMOOTH",
"234 -169 OFFCURVE",
"257 -195 OFFCURVE",
"288 -195 CURVE SMOOTH"
);
},
{
closed = 1;
nodes = (
"188 734 LINE SMOOTH",
"217 734 OFFCURVE",
"225 741 OFFCURVE",
"236 758 CURVE SMOOTH",
"295 846 LINE",
"354 758 LINE SMOOTH",
"365 741 OFFCURVE",
"373 734 OFFCURVE",
"402 734 CURVE SMOOTH",
"463 734 LINE SMOOTH",
"489 734 OFFCURVE",
"498 750 OFFCURVE",
"480 774 CURVE SMOOTH",
"380 907 LINE SMOOTH",
"367 924 OFFCURVE",
"363 931 OFFCURVE",
"334 931 CURVE SMOOTH",
"255 931 LINE SMOOTH",
"226 931 OFFCURVE",
"223 924 OFFCURVE",
"209 907 CURVE",
"109 774 LINE SMOOTH",
"91 750 OFFCURVE",
"101 734 OFFCURVE",
"127 734 CURVE SMOOTH"
);
}
);
width = 574;
}
);
note = Ecircumflexdotbelow;
unicode = 1EC6;
},
{
glyphname = Ecircumflexgrave;
lastChange = "2015-07-18 12:40:33 +0000";
layers = (
{
layerId = "EE9CB86C-5849-467B-879F-FFB2F6EA688D";
name = Regular;
paths = (
{
closed = 1;
nodes = (
"510 0 LINE SMOOTH",
"543 0 OFFCURVE",
"552 13 OFFCURVE",
"552 42 CURVE SMOOTH",
"552 78 LINE SMOOTH",
"552 108 OFFCURVE",
"543 121 OFFCURVE",
"510 121 CURVE SMOOTH",
"216 121 LINE",
"216 280 LINE",
"422 280 LINE SMOOTH",
"455 280 OFFCURVE",
"464 294 OFFCURVE",
"464 323 CURVE SMOOTH",
"464 358 LINE SMOOTH",
"464 387 OFFCURVE",
"455 400 OFFCURVE",
"422 400 CURVE SMOOTH",
"216 400 LINE",
"216 558 LINE",
"511 558 LINE SMOOTH",
"544 558 OFFCURVE",
"553 572 OFFCURVE",
"553 601 CURVE SMOOTH",
"553 638 LINE SMOOTH",
"553 667 OFFCURVE",
"544 680 OFFCURVE",
"511 680 CURVE SMOOTH",
"96 680 LINE SMOOTH",
"63 680 OFFCURVE",
"51 665 OFFCURVE",
"51 636 CURVE SMOOTH",
"51 43 LINE SMOOTH",
"51 14 OFFCURVE",
"63 0 OFFCURVE",
"96 0 CURVE SMOOTH"
);
},
{
closed = 1;
nodes = (
"174 872 LINE SMOOTH",
"195 872 OFFCURVE",
"202 885 OFFCURVE",
"196 901 CURVE SMOOTH",
"162 993 LINE SMOOTH",
"155 1014 OFFCURVE",
"150 1022 OFFCURVE",
"123 1022 CURVE SMOOTH",
"61 1022 LINE SMOOTH",
"35 1022 OFFCURVE",
"29 1007 OFFCURVE",
"42 983 CURVE SMOOTH",
"88 899 LINE SMOOTH",
"101 876 OFFCURVE",
"108 872 OFFCURVE",
"137 872 CURVE SMOOTH"
);
},
{
closed = 1;
nodes = (
"205 729 LINE SMOOTH",
"233 729 OFFCURVE",
"241 734 OFFCURVE",
"252 751 CURVE",
"308 826 LINE",
"364 751 LINE",
"375 734 OFFCURVE",
"384 729 OFFCURVE",
"411 729 CURVE SMOOTH",
"469 729 LINE SMOOTH",
"496 729 OFFCURVE",
"504 746 OFFCURVE",
"486 769 CURVE SMOOTH",
"388 890 LINE SMOOTH",
"374 907 OFFCURVE",
"369 914 OFFCURVE",
"341 914 CURVE SMOOTH",
"276 914 LINE SMOOTH",
"247 914 OFFCURVE",
"242 907 OFFCURVE",
"229 890 CURVE SMOOTH",
"131 769 LINE SMOOTH",
"112 746 OFFCURVE",
"121 729 OFFCURVE",
"147 729 CURVE SMOOTH"
);
}
);
width = 573;
}
);
note = Ecircumflexgrave;
unicode = 1EC0;
},
{
glyphname = Ecircumflexhookabove;
lastChange = "2015-07-18 12:40:34 +0000";
layers = (
{
layerId = "EE9CB86C-5849-467B-879F-FFB2F6EA688D";
name = Regular;
paths = (
{
closed = 1;
nodes = (
"510 0 LINE SMOOTH",
"543 0 OFFCURVE",
"552 13 OFFCURVE",
"552 42 CURVE SMOOTH",
"552 78 LINE SMOOTH",
"552 108 OFFCURVE",
"543 121 OFFCURVE",
"510 121 CURVE SMOOTH",
"216 121 LINE",
"216 280 LINE",
"422 280 LINE SMOOTH",
"455 280 OFFCURVE",
"464 294 OFFCURVE",
"464 323 CURVE SMOOTH",
"464 358 LINE SMOOTH",
"464 387 OFFCURVE",
"455 400 OFFCURVE",
"422 400 CURVE SMOOTH",
"216 400 LINE",
"216 558 LINE",
"511 558 LINE SMOOTH",
"544 558 OFFCURVE",
"553 572 OFFCURVE",
"553 601 CURVE SMOOTH",
"553 638 LINE SMOOTH",
"553 667 OFFCURVE",
"544 680 OFFCURVE",
"511 680 CURVE SMOOTH",
"96 680 LINE SMOOTH",
"63 680 OFFCURVE",
"51 665 OFFCURVE",
"51 636 CURVE SMOOTH",
"51 43 LINE SMOOTH",
"51 14 OFFCURVE",
"63 0 OFFCURVE",
"96 0 CURVE SMOOTH"
);
},
{
closed = 1;
nodes = (
"196 729 LINE SMOOTH",
"224 729 OFFCURVE",
"232 734 OFFCURVE",
"243 751 CURVE",
"299 826 LINE",
"355 751 LINE SMOOTH",
"367 734 OFFCURVE",
"375 729 OFFCURVE",
"402 729 CURVE SMOOTH",
"460 729 LINE SMOOTH",
"487 729 OFFCURVE",
"495 746 OFFCURVE",
"477 769 CURVE SMOOTH",
"379 890 LINE SMOOTH",
"365 907 OFFCURVE",
"360 914 OFFCURVE",
"332 914 CURVE SMOOTH",
"267 914 LINE SMOOTH",
"238 914 OFFCURVE",
"233 907 OFFCURVE",
"220 890 CURVE SMOOTH",
"122 769 LINE SMOOTH",
"103 746 OFFCURVE",
"112 729 OFFCURVE",
"138 729 CURVE SMOOTH"
);
},
{
closed = 1;
nodes = (
"482 861 LINE SMOOTH",
"494 861 OFFCURVE",
"500 868 OFFCURVE",
"500 880 CURVE SMOOTH",
"500 895 LINE",
"537 895 OFFCURVE",
"569 917 OFFCURVE",
"569 963 CURVE SMOOTH",
"569 1012 OFFCURVE",
"538 1038 OFFCURVE",
"470 1038 CURVE SMOOTH",
"436 1038 OFFCURVE",
"400 1030 OFFCURVE",
"377 1017 CURVE SMOOTH",
"372 1014 OFFCURVE",
"372 1011 OFFCURVE",
"374 1007 CURVE SMOOTH",
"393 967 LINE SMOOTH",
"395 963 OFFCURVE",
"398 963 OFFCURVE",
"401 965 CURVE",
"415 973 OFFCURVE",
"433 978 OFFCURVE",
"452 978 CURVE SMOOTH",
"471 978 OFFCURVE",
"480 972 OFFCURVE",
"480 959 CURVE SMOOTH",
"480 942 OFFCURVE",
"470 937 OFFCURVE",
"444 937 CURVE SMOOTH",
"423 937 OFFCURVE",
"415 929 OFFCURVE",
"415 911 CURVE SMOOTH",
"415 880 LINE SMOOTH",
"415 868 OFFCURVE",
"421 861 OFFCURVE",
"434 861 CURVE SMOOTH"
);
}
);
width = 579;
}
);
note = Ecircumflexhookabove;
unicode = 1EC2;
},
{
glyphname = Ecircumflextilde;
lastChange = "2015-07-18 12:40:34 +0000";
layers = (
{
layerId = "EE9CB86C-5849-467B-879F-FFB2F6EA688D";
name = Regular;
paths = (
{
closed = 1;
nodes = (
"510 0 LINE SMOOTH",
"543 0 OFFCURVE",
"552 13 OFFCURVE",
"552 42 CURVE SMOOTH",
"552 78 LINE SMOOTH",
"552 108 OFFCURVE",
"543 121 OFFCURVE",
"510 121 CURVE SMOOTH",
"216 121 LINE",
"216 280 LINE",
"422 280 LINE SMOOTH",
"455 280 OFFCURVE",
"464 294 OFFCURVE",
"464 323 CURVE SMOOTH",
"464 358 LINE SMOOTH",
"464 387 OFFCURVE",
"455 400 OFFCURVE",
"422 400 CURVE SMOOTH",
"216 400 LINE",
"216 558 LINE",
"511 558 LINE SMOOTH",
"544 558 OFFCURVE",
"553 572 OFFCURVE",
"553 601 CURVE SMOOTH",
"553 638 LINE SMOOTH",
"553 667 OFFCURVE",
"544 680 OFFCURVE",
"511 680 CURVE SMOOTH",
"96 680 LINE SMOOTH",
"63 680 OFFCURVE",
"51 665 OFFCURVE",
"51 636 CURVE SMOOTH",
"51 43 LINE SMOOTH",
"51 14 OFFCURVE",
"63 0 OFFCURVE",
"96 0 CURVE SMOOTH"
);
},
{
closed = 1;
nodes = (
"218 729 LINE SMOOTH",
"246 729 OFFCURVE",
"254 734 OFFCURVE",
"265 751 CURVE",
"321 826 LINE",
"377 751 LINE SMOOTH",
"389 734 OFFCURVE",
"397 729 OFFCURVE",
"424 729 CURVE SMOOTH",
"482 729 LINE SMOOTH",
"509 729 OFFCURVE",
"517 746 OFFCURVE",
"499 769 CURVE SMOOTH",
"401 890 LINE SMOOTH",
"387 907 OFFCURVE",
"382 914 OFFCURVE",
"354 914 CURVE SMOOTH",
"289 914 LINE SMOOTH",
"260 914 OFFCURVE",
"255 907 OFFCURVE",
"242 890 CURVE SMOOTH",
"144 769 LINE SMOOTH",
"125 746 OFFCURVE",
"134 729 OFFCURVE",
"160 729 CURVE SMOOTH"
);
},
{
closed = 1;
nodes = (
"439 926 OFFCURVE",
"464 944 OFFCURVE",
"492 984 CURVE SMOOTH",
"507 1005 OFFCURVE",
"505 1014 OFFCURVE",
"481 1034 CURVE",
"456 1052 OFFCURVE",
"441 1054 OFFCURVE",
"430 1038 CURVE",
"413 1018 OFFCURVE",
"403 1013 OFFCURVE",
"383 1013 CURVE SMOOTH",
"342 1013 OFFCURVE",
"310 1051 OFFCURVE",
"248 1051 CURVE SMOOTH",
"205 1051 OFFCURVE",
"180 1029 OFFCURVE",
"156 993 CURVE",
"140 973 OFFCURVE",
"143 964 OFFCURVE",
"164 946 CURVE SMOOTH",
"189 926 OFFCURVE",
"204 924 OFFCURVE",
"216 939 CURVE",
"231 956 OFFCURVE",
"240 963 OFFCURVE",
"262 963 CURVE SMOOTH",
"303 963 OFFCURVE",
"342 926 OFFCURVE",
"392 926 CURVE SMOOTH"
);
}
);
width = 574;
}
);
note = Ecircumflextilde;
unicode = 1EC4;
},
{
glyphname = Edieresis;
lastChange = "2015-07-18 12:40:34 +0000";
layers = (
{
layerId = "EE9CB86C-5849-467B-879F-FFB2F6EA688D";
name = Regular;
paths = (
{
closed = 1;
nodes = (
"510 0 LINE SMOOTH",
"543 0 OFFCURVE",
"552 13 OFFCURVE",
"552 42 CURVE SMOOTH",
"552 78 LINE SMOOTH",
"552 108 OFFCURVE",
"543 121 OFFCURVE",
"510 121 CURVE SMOOTH",
"216 121 LINE",
"216 280 LINE",
"422 280 LINE SMOOTH",
"455 280 OFFCURVE",
"464 294 OFFCURVE",
"464 323 CURVE SMOOTH",
"464 358 LINE SMOOTH",
"464 387 OFFCURVE",
"455 400 OFFCURVE",
"422 400 CURVE SMOOTH",
"216 400 LINE",
"216 558 LINE",
"511 558 LINE SMOOTH",
"544 558 OFFCURVE",
"553 572 OFFCURVE",
"553 601 CURVE SMOOTH",
"553 638 LINE SMOOTH",
"553 667 OFFCURVE",
"544 680 OFFCURVE",
"511 680 CURVE SMOOTH",
"96 680 LINE SMOOTH",
"63 680 OFFCURVE",
"51 665 OFFCURVE",
"51 636 CURVE SMOOTH",
"51 43 LINE SMOOTH",
"51 14 OFFCURVE",
"63 0 OFFCURVE",
"96 0 CURVE SMOOTH"
);
},
{
closed = 1;
nodes = (
"208 744 LINE SMOOTH",
"241 744 OFFCURVE",
"262 770 OFFCURVE",
"262 801 CURVE SMOOTH",
"262 823 LINE SMOOTH",
"262 855 OFFCURVE",
"240 880 OFFCURVE",
"208 880 CURVE SMOOTH",
"185 880 LINE SMOOTH",
"153 880 OFFCURVE",
"131 855 OFFCURVE",
"131 823 CURVE SMOOTH",
"131 801 LINE SMOOTH",
"131 770 OFFCURVE",
"153 744 OFFCURVE",
"185 744 CURVE SMOOTH"
);
},
{
closed = 1;
nodes = (
"414 744 LINE SMOOTH",
"447 744 OFFCURVE",
"468 770 OFFCURVE",
"468 801 CURVE SMOOTH",
"468 823 LINE SMOOTH",
"468 855 OFFCURVE",
"446 880 OFFCURVE",
"414 880 CURVE SMOOTH",
"390 880 LINE SMOOTH",
"359 880 OFFCURVE",
"336 855 OFFCURVE",
"336 823 CURVE SMOOTH",
"336 801 LINE SMOOTH",
"336 770 OFFCURVE",
"359 744 OFFCURVE",
"390 744 CURVE SMOOTH"
);
}
);
width = 574;
}
);
note = Edieresis;
unicode = 00CB;
},
{
glyphname = Edotaccent;
lastChange = "2015-07-18 12:40:36 +0000";
layers = (
{
layerId = "EE9CB86C-5849-467B-879F-FFB2F6EA688D";
name = Regular;
paths = (
{
closed = 1;
nodes = (
"510 0 LINE SMOOTH",
"543 0 OFFCURVE",
"552 13 OFFCURVE",
"552 42 CURVE SMOOTH",
"552 78 LINE SMOOTH",
"552 108 OFFCURVE",
"543 121 OFFCURVE",
"510 121 CURVE SMOOTH",
"216 121 LINE",
"216 280 LINE",
"422 280 LINE SMOOTH",
"455 280 OFFCURVE",
"464 294 OFFCURVE",
"464 323 CURVE SMOOTH",
"464 358 LINE SMOOTH",
"464 387 OFFCURVE",
"455 400 OFFCURVE",
"422 400 CURVE SMOOTH",
"216 400 LINE",
"216 558 LINE",
"511 558 LINE SMOOTH",
"544 558 OFFCURVE",
"553 572 OFFCURVE",
"553 601 CURVE SMOOTH",
"553 638 LINE SMOOTH",
"553 667 OFFCURVE",
"544 680 OFFCURVE",
"511 680 CURVE SMOOTH",
"96 680 LINE SMOOTH",
"63 680 OFFCURVE",
"51 665 OFFCURVE",
"51 636 CURVE SMOOTH",
"51 43 LINE SMOOTH",
"51 14 OFFCURVE",
"63 0 OFFCURVE",
"96 0 CURVE SMOOTH"
);
},
{
closed = 1;
nodes = (
"317 761 LINE SMOOTH",
"349 761 OFFCURVE",
"371 787 OFFCURVE",
"371 818 CURVE SMOOTH",
"371 840 LINE SMOOTH",
"371 872 OFFCURVE",
"348 897 OFFCURVE",
"317 897 CURVE SMOOTH",
"293 897 LINE SMOOTH",
"261 897 OFFCURVE",
"239 872 OFFCURVE",
"239 840 CURVE SMOOTH",
"239 818 LINE SMOOTH",
"239 787 OFFCURVE",
"261 761 OFFCURVE",
"293 761 CURVE SMOOTH"
);
}
);
width = 574;
}
);
note = Edotaccent;
unicode = 0116;
},
{
glyphname = Edotbelow;
lastChange = "2015-07-18 12:40:35 +0000";
layers = (
{
layerId = "EE9CB86C-5849-467B-879F-FFB2F6EA688D";
name = Regular;
paths = (
{
closed = 1;
nodes = (
"510 0 LINE SMOOTH",
"543 0 OFFCURVE",
"552 13 OFFCURVE",
"552 42 CURVE SMOOTH",
"552 78 LINE SMOOTH",
"552 108 OFFCURVE",
"543 121 OFFCURVE",
"510 121 CURVE SMOOTH",
"216 121 LINE",
"216 280 LINE",
"422 280 LINE SMOOTH",
"455 280 OFFCURVE",
"464 294 OFFCURVE",
"464 323 CURVE SMOOTH",
"464 358 LINE SMOOTH",
"464 387 OFFCURVE",
"455 400 OFFCURVE",
"422 400 CURVE SMOOTH",
"216 400 LINE",
"216 558 LINE",
"511 558 LINE SMOOTH",
"544 558 OFFCURVE",
"553 572 OFFCURVE",
"553 601 CURVE SMOOTH",
"553 638 LINE SMOOTH",
"553 667 OFFCURVE",
"544 680 OFFCURVE",
"511 680 CURVE SMOOTH",
"96 680 LINE SMOOTH",
"63 680 OFFCURVE",
"51 665 OFFCURVE",
"51 636 CURVE SMOOTH",
"51 43 LINE SMOOTH",
"51 14 OFFCURVE",
"63 0 OFFCURVE",
"96 0 CURVE SMOOTH"
);
},
{
closed = 1;
nodes = (
"312 -195 LINE SMOOTH",
"345 -195 OFFCURVE",
"366 -169 OFFCURVE",
"366 -138 CURVE SMOOTH",
"366 -116 LINE SMOOTH",
"366 -84 OFFCURVE",
"344 -59 OFFCURVE",
"312 -59 CURVE SMOOTH",
"288 -59 LINE SMOOTH",
"257 -59 OFFCURVE",
"234 -84 OFFCURVE",
"234 -116 CURVE SMOOTH",
"234 -138 LINE SMOOTH",
"234 -169 OFFCURVE",
"257 -195 OFFCURVE",
"288 -195 CURVE SMOOTH"
);
}
);
width = 574;
}
);
note = Edotbelow;
unicode = 1EB8;
},
{
glyphname = Egrave;
lastChange = "2015-07-18 12:40:35 +0000";
layers = (
{
layerId = "EE9CB86C-5849-467B-879F-FFB2F6EA688D";
name = Regular;
paths = (
{
closed = 1;
nodes = (
"510 0 LINE SMOOTH",
"543 0 OFFCURVE",
"552 13 OFFCURVE",
"552 42 CURVE SMOOTH",
"552 78 LINE SMOOTH",
"552 108 OFFCURVE",
"543 121 OFFCURVE",
"510 121 CURVE SMOOTH",
"216 121 LINE",
"216 280 LINE",
"422 280 LINE SMOOTH",
"455 280 OFFCURVE",
"464 294 OFFCURVE",
"464 323 CURVE SMOOTH",
"464 358 LINE SMOOTH",
"464 387 OFFCURVE",
"455 400 OFFCURVE",
"422 400 CURVE SMOOTH",
"216 400 LINE",
"216 558 LINE",
"511 558 LINE SMOOTH",
"544 558 OFFCURVE",
"553 572 OFFCURVE",
"553 601 CURVE SMOOTH",
"553 638 LINE SMOOTH",
"553 667 OFFCURVE",
"544 680 OFFCURVE",
"511 680 CURVE SMOOTH",
"96 680 LINE SMOOTH",
"63 680 OFFCURVE",
"51 665 OFFCURVE",
"51 636 CURVE SMOOTH",
"51 43 LINE SMOOTH",
"51 14 OFFCURVE",
"63 0 OFFCURVE",
"96 0 CURVE SMOOTH"
);
},
{
closed = 1;
nodes = (
"363 747 LINE SMOOTH",
"389 747 OFFCURVE",
"396 761 OFFCURVE",
"389 781 CURVE SMOOTH",
"343 907 LINE SMOOTH",
"335 929 OFFCURVE",
"330 936 OFFCURVE",
"298 936 CURVE SMOOTH",
"202 936 LINE SMOOTH",
"175 936 OFFCURVE",
"161 923 OFFCURVE",
"175 897 CURVE SMOOTH",
"241 775 LINE SMOOTH",
"253 753 OFFCURVE",
"260 747 OFFCURVE",
"293 747 CURVE SMOOTH"
);
}
);
width = 574;
}
);
note = Egrave;
unicode = 00C8;
},
{
glyphname = Ehookabove;
lastChange = "2015-07-18 12:40:35 +0000";
layers = (
{
layerId = "EE9CB86C-5849-467B-879F-FFB2F6EA688D";
name = Regular;
paths = (
{
closed = 1;
nodes = (
"510 0 LINE SMOOTH",
"543 0 OFFCURVE",
"552 13 OFFCURVE",
"552 42 CURVE SMOOTH",
"552 78 LINE SMOOTH",
"552 108 OFFCURVE",
"543 121 OFFCURVE",
"510 121 CURVE SMOOTH",
"216 121 LINE",
"216 280 LINE",
"422 280 LINE SMOOTH",
"455 280 OFFCURVE",
"464 294 OFFCURVE",
"464 323 CURVE SMOOTH",
"464 358 LINE SMOOTH",
"464 387 OFFCURVE",
"455 400 OFFCURVE",
"422 400 CURVE SMOOTH",
"216 400 LINE",
"216 558 LINE",
"511 558 LINE SMOOTH",
"544 558 OFFCURVE",
"553 572 OFFCURVE",
"553 601 CURVE SMOOTH",
"553 638 LINE SMOOTH",
"553 667 OFFCURVE",
"544 680 OFFCURVE",
"511 680 CURVE SMOOTH",
"96 680 LINE SMOOTH",
"63 680 OFFCURVE",
"51 665 OFFCURVE",
"51 636 CURVE SMOOTH",
"51 43 LINE SMOOTH",
"51 14 OFFCURVE",
"63 0 OFFCURVE",
"96 0 CURVE SMOOTH"
);
},
{
closed = 1;
nodes = (
"307 729 LINE SMOOTH",
"323 729 OFFCURVE",
"330 737 OFFCURVE",
"330 752 CURVE SMOOTH",
"330 771 LINE",
"381 771 OFFCURVE",
"425 807 OFFCURVE",
"425 869 CURVE SMOOTH",
"425 934 OFFCURVE",
"380 972 OFFCURVE",
"288 972 CURVE SMOOTH",
"247 972 OFFCURVE",
"197 961 OFFCURVE",
"169 942 CURVE SMOOTH",
"163 938 OFFCURVE",
"163 935 OFFCURVE",
"165 929 CURVE",
"189 875 LINE",
"192 870 OFFCURVE",
"195 870 OFFCURVE",
"200 872 CURVE",
"223 883 OFFCURVE",
"244 891 OFFCURVE",
"271 891 CURVE SMOOTH",
"301 891 OFFCURVE",
"315 882 OFFCURVE",
"315 863 CURVE SMOOTH",
"315 840 OFFCURVE",
"299 831 OFFCURVE",
"261 831 CURVE SMOOTH",
"233 831 OFFCURVE",
"225 821 OFFCURVE",
"225 800 CURVE SMOOTH",
"225 752 LINE SMOOTH",
"225 737 OFFCURVE",
"232 729 OFFCURVE",
"248 729 CURVE SMOOTH"
);
}
);
width = 574;
}
);
note = Ehookabove;
unicode = 1EBA;
},
{
glyphname = Emacron;
lastChange = "2015-07-18 12:40:35 +0000";
layers = (
{
layerId = "EE9CB86C-5849-467B-879F-FFB2F6EA688D";
name = Regular;
paths = (
{
closed = 1;
nodes = (
"510 0 LINE SMOOTH",
"543 0 OFFCURVE",
"552 13 OFFCURVE",
"552 42 CURVE SMOOTH",
"552 78 LINE SMOOTH",
"552 108 OFFCURVE",
"543 121 OFFCURVE",
"510 121 CURVE SMOOTH",
"216 121 LINE",
"216 280 LINE",
"422 280 LINE SMOOTH",
"455 280 OFFCURVE",
"464 294 OFFCURVE",
"464 323 CURVE SMOOTH",
"464 358 LINE SMOOTH",
"464 387 OFFCURVE",
"455 400 OFFCURVE",
"422 400 CURVE SMOOTH",
"216 400 LINE",
"216 558 LINE",
"511 558 LINE SMOOTH",
"544 558 OFFCURVE",
"553 572 OFFCURVE",
"553 601 CURVE SMOOTH",
"553 638 LINE SMOOTH",
"553 667 OFFCURVE",
"544 680 OFFCURVE",
"511 680 CURVE SMOOTH",
"96 680 LINE SMOOTH",
"63 680 OFFCURVE",
"51 665 OFFCURVE",
"51 636 CURVE SMOOTH",
"51 43 LINE SMOOTH",
"51 14 OFFCURVE",
"63 0 OFFCURVE",
"96 0 CURVE SMOOTH"
);
},
{
closed = 1;
nodes = (
"429 765 LINE SMOOTH",
"462 765 OFFCURVE",
"471 778 OFFCURVE",
"471 808 CURVE SMOOTH",
"471 844 LINE SMOOTH",
"471 873 OFFCURVE",
"462 887 OFFCURVE",
"429 887 CURVE SMOOTH",
"158 887 LINE SMOOTH",
"125 887 OFFCURVE",
"116 873 OFFCURVE",
"116 844 CURVE SMOOTH",
"116 808 LINE SMOOTH",
"116 778 OFFCURVE",
"125 765 OFFCURVE",
"158 765 CURVE SMOOTH"
);
}
);
width = 574;
}
);
note = Emacron;
unicode = 0112;
},
{
glyphname = Eogonek;
lastChange = "2015-07-18 12:40:33 +0000";
layers = (
{
layerId = "EE9CB86C-5849-467B-879F-FFB2F6EA688D";
name = Regular;
paths = (
{
closed = 1;
nodes = (
"510 0 LINE SMOOTH",
"543 0 OFFCURVE",
"552 13 OFFCURVE",
"552 42 CURVE SMOOTH",
"552 78 LINE SMOOTH",
"552 108 OFFCURVE",
"543 121 OFFCURVE",
"510 121 CURVE SMOOTH",
"216 121 LINE",
"216 280 LINE",
"422 280 LINE SMOOTH",
"455 280 OFFCURVE",
"464 294 OFFCURVE",
"464 323 CURVE SMOOTH",
"464 358 LINE SMOOTH",
"464 387 OFFCURVE",
"455 400 OFFCURVE",
"422 400 CURVE SMOOTH",
"216 400 LINE",
"216 558 LINE",
"511 558 LINE SMOOTH",
"544 558 OFFCURVE",
"553 572 OFFCURVE",
"553 601 CURVE SMOOTH",
"553 638 LINE SMOOTH",
"553 667 OFFCURVE",
"544 680 OFFCURVE",
"511 680 CURVE SMOOTH",
"96 680 LINE SMOOTH",
"63 680 OFFCURVE",
"51 665 OFFCURVE",
"51 636 CURVE SMOOTH",
"51 43 LINE SMOOTH",
"51 14 OFFCURVE",
"63 0 OFFCURVE",
"96 0 CURVE SMOOTH"
);
},
{
closed = 1;
nodes = (
"468 -213 OFFCURVE",
"496 -210 OFFCURVE",
"518 -199 CURVE SMOOTH",
"531 -193 OFFCURVE",
"531 -189 OFFCURVE",
"528 -182 CURVE SMOOTH",
"510 -143 LINE SMOOTH",
"507 -136 OFFCURVE",
"503 -135 OFFCURVE",
"496 -138 CURVE",
"490 -141 OFFCURVE",
"483 -142 OFFCURVE",
"474 -142 CURVE SMOOTH",
"458 -142 OFFCURVE",
"450 -133 OFFCURVE",
"450 -115 CURVE SMOOTH",
"450 -86 OFFCURVE",
"463 -65 OFFCURVE",
"510 -10 CURVE SMOOTH",
"517 -2 OFFCURVE",
"512 6 OFFCURVE",
"500 6 CURVE SMOOTH",
"422 6 LINE SMOOTH",
"409 6 OFFCURVE",
"405 2 OFFCURVE",
"397 -7 CURVE SMOOTH",
"353 -57 OFFCURVE",
"336 -94 OFFCURVE",
"336 -130 CURVE SMOOTH",
"336 -175 OFFCURVE",
"365 -213 OFFCURVE",
"430 -213 CURVE SMOOTH"
);
}
);
width = 574;
}
);
note = Eogonek;
unicode = 0118;
},
{
glyphname = Etilde;
lastChange = "2015-07-18 12:40:35 +0000";
layers = (
{
layerId = "EE9CB86C-5849-467B-879F-FFB2F6EA688D";
name = Regular;
paths = (
{
closed = 1;
nodes = (
"510 0 LINE SMOOTH",
"543 0 OFFCURVE",
"552 13 OFFCURVE",
"552 42 CURVE SMOOTH",
"552 78 LINE SMOOTH",
"552 108 OFFCURVE",
"543 121 OFFCURVE",
"510 121 CURVE SMOOTH",
"216 121 LINE",
"216 280 LINE",
"422 280 LINE SMOOTH",
"455 280 OFFCURVE",
"464 294 OFFCURVE",
"464 323 CURVE SMOOTH",
"464 358 LINE SMOOTH",
"464 387 OFFCURVE",
"455 400 OFFCURVE",
"422 400 CURVE SMOOTH",
"216 400 LINE",
"216 558 LINE",
"511 558 LINE SMOOTH",
"544 558 OFFCURVE",
"553 572 OFFCURVE",
"553 601 CURVE SMOOTH",
"553 638 LINE SMOOTH",
"553 667 OFFCURVE",
"544 680 OFFCURVE",
"511 680 CURVE SMOOTH",
"96 680 LINE SMOOTH",
"63 680 OFFCURVE",
"51 665 OFFCURVE",
"51 636 CURVE SMOOTH",
"51 43 LINE SMOOTH",
"51 14 OFFCURVE",
"63 0 OFFCURVE",
"96 0 CURVE SMOOTH"
);
},
{
closed = 1;
nodes = (
"477 742 OFFCURVE",
"509 767 OFFCURVE",
"544 819 CURVE SMOOTH",
"563 846 OFFCURVE",
"560 860 OFFCURVE",
"529 884 CURVE SMOOTH",
"497 908 OFFCURVE",
"479 912 OFFCURVE",
"464 893 CURVE SMOOTH",
"443 867 OFFCURVE",
"431 858 OFFCURVE",
"405 858 CURVE SMOOTH",
"353 858 OFFCURVE",
"314 909 OFFCURVE",
"234 909 CURVE SMOOTH",
"180 909 OFFCURVE",
"149 880 OFFCURVE",
"116 836 CURVE SMOOTH",
"97 810 OFFCURVE",
"100 796 OFFCURVE",
"129 773 CURVE SMOOTH",
"160 748 OFFCURVE",
"178 743 OFFCURVE",
"193 761 CURVE SMOOTH",
"213 784 OFFCURVE",
"225 793 OFFCURVE",
"251 793 CURVE SMOOTH",
"303 793 OFFCURVE",
"353 742 OFFCURVE",
"418 742 CURVE SMOOTH"
);
}
);
width = 576;
}
);
note = Etilde;
unicode = 1EBC;
},
{
glyphname = F;
lastChange = "2015-07-18 12:40:28 +0000";
layers = (
{
layerId = "EE9CB86C-5849-467B-879F-FFB2F6EA688D";
name = Regular;
paths = (
{
closed = 1;
nodes = (
"171 0 LINE SMOOTH",
"205 0 OFFCURVE",
"216 14 OFFCURVE",
"216 43 CURVE SMOOTH",
"216 279 LINE",
"422 279 LINE SMOOTH",
"455 279 OFFCURVE",
"464 293 OFFCURVE",
"464 322 CURVE SMOOTH",
"464 359 LINE SMOOTH",
"464 388 OFFCURVE",
"455 401 OFFCURVE",
"422 401 CURVE SMOOTH",
"216 401 LINE",
"216 558 LINE",
"511 558 LINE SMOOTH",
"544 558 OFFCURVE",
"553 572 OFFCURVE",
"553 601 CURVE SMOOTH",
"553 638 LINE SMOOTH",
"553 667 OFFCURVE",
"544 680 OFFCURVE",
"511 680 CURVE SMOOTH",
"96 680 LINE SMOOTH",
"63 680 OFFCURVE",
"51 665 OFFCURVE",
"51 636 CURVE SMOOTH",
"51 43 LINE SMOOTH",
"51 14 OFFCURVE",
"63 0 OFFCURVE",
"96 0 CURVE SMOOTH"
);
}
);
width = 564;
}
);
note = F;
unicode = 0046;
},
{
glyphname = G;
lastChange = "2015-07-18 12:40:28 +0000";
layers = (
{
layerId = "EE9CB86C-5849-467B-879F-FFB2F6EA688D";
name = Regular;
paths = (
{
closed = 1;
nodes = (
"506 -15 OFFCURVE",
"591 8 OFFCURVE",
"652 47 CURVE SMOOTH",
"669 58 OFFCURVE",
"672 68 OFFCURVE",
"672 90 CURVE SMOOTH",
"672 344 LINE SMOOTH",
"672 378 OFFCURVE",
"660 397 OFFCURVE",
"621 397 CURVE SMOOTH",
"409 397 LINE SMOOTH",
"376 397 OFFCURVE",
"367 385 OFFCURVE",
"367 356 CURVE SMOOTH",
"367 320 LINE SMOOTH",
"367 291 OFFCURVE",
"376 278 OFFCURVE",
"409 278 CURVE SMOOTH",
"518 278 LINE",
"518 124 LINE",
"492 112 OFFCURVE",
"446 105 OFFCURVE",
"405 105 CURVE SMOOTH",
"277 105 OFFCURVE",
"195 176 OFFCURVE",
"195 340 CURVE SMOOTH",
"195 503 OFFCURVE",
"284 576 OFFCURVE",
"417 576 CURVE SMOOTH",
"485 576 OFFCURVE",
"534 559 OFFCURVE",
"569 540 CURVE SMOOTH",
"584 532 OFFCURVE",
"590 530 OFFCURVE",
"599 545 CURVE SMOOTH",
"637 609 LINE SMOOTH",
"645 623 OFFCURVE",
"644 630 OFFCURVE",
"631 639 CURVE SMOOTH",
"577 675 OFFCURVE",
"493 695 OFFCURVE",
"396 695 CURVE SMOOTH",
"168 695 OFFCURVE",
"31 572 OFFCURVE",
"31 340 CURVE SMOOTH",
"31 108 OFFCURVE",
"167 -15 OFFCURVE",
"396 -15 CURVE SMOOTH"
);
}
);
width = 703;
}
);
note = G;
unicode = 0047;
},
{
glyphname = Gbreve;
lastChange = "2015-07-18 12:40:35 +0000";
layers = (
{
layerId = "EE9CB86C-5849-467B-879F-FFB2F6EA688D";
name = Regular;
paths = (
{
closed = 1;
nodes = (
"506 -15 OFFCURVE",
"591 8 OFFCURVE",
"652 47 CURVE SMOOTH",
"669 58 OFFCURVE",
"672 68 OFFCURVE",
"672 90 CURVE SMOOTH",
"672 344 LINE SMOOTH",
"672 378 OFFCURVE",
"660 397 OFFCURVE",
"621 397 CURVE SMOOTH",
"409 397 LINE SMOOTH",
"376 397 OFFCURVE",
"367 385 OFFCURVE",
"367 356 CURVE SMOOTH",
"367 320 LINE SMOOTH",
"367 291 OFFCURVE",
"376 278 OFFCURVE",
"409 278 CURVE SMOOTH",
"518 278 LINE",
"518 124 LINE",
"492 112 OFFCURVE",
"446 105 OFFCURVE",
"405 105 CURVE SMOOTH",
"277 105 OFFCURVE",
"195 176 OFFCURVE",
"195 340 CURVE SMOOTH",
"195 503 OFFCURVE",
"284 576 OFFCURVE",
"417 576 CURVE SMOOTH",
"485 576 OFFCURVE",
"534 559 OFFCURVE",
"569 540 CURVE SMOOTH",
"584 532 OFFCURVE",
"590 530 OFFCURVE",
"599 545 CURVE SMOOTH",
"637 609 LINE SMOOTH",
"645 623 OFFCURVE",
"644 630 OFFCURVE",
"631 639 CURVE SMOOTH",
"577 675 OFFCURVE",
"493 695 OFFCURVE",
"396 695 CURVE SMOOTH",
"168 695 OFFCURVE",
"31 572 OFFCURVE",
"31 340 CURVE SMOOTH",
"31 108 OFFCURVE",
"167 -15 OFFCURVE",
"396 -15 CURVE SMOOTH"
);
},
{
closed = 1;
nodes = (
"510 726 OFFCURVE",
"568 798 OFFCURVE",
"568 894 CURVE SMOOTH",
"568 905 OFFCURVE",
"562 912 OFFCURVE",
"552 912 CURVE SMOOTH",
"465 912 LINE SMOOTH",
"451 912 OFFCURVE",
"448 905 OFFCURVE",
"448 893 CURVE SMOOTH",
"448 856 OFFCURVE",
"433 831 OFFCURVE",
"391 831 CURVE SMOOTH",
"348 831 OFFCURVE",
"334 856 OFFCURVE",
"334 893 CURVE SMOOTH",
"334 905 OFFCURVE",
"331 912 OFFCURVE",
"317 912 CURVE SMOOTH",
"230 912 LINE SMOOTH",
"220 912 OFFCURVE",
"214 905 OFFCURVE",
"214 894 CURVE SMOOTH",
"214 798 OFFCURVE",
"271 726 OFFCURVE",
"391 726 CURVE SMOOTH"
);
}
);
width = 703;
}
);
note = Gbreve;
unicode = 011E;
},
{
glyphname = Gcaron;
lastChange = "2015-07-18 12:40:33 +0000";
layers = (
{
layerId = "EE9CB86C-5849-467B-879F-FFB2F6EA688D";
name = Regular;
paths = (
{
closed = 1;
nodes = (
"506 -15 OFFCURVE",
"591 8 OFFCURVE",
"652 47 CURVE SMOOTH",
"669 58 OFFCURVE",
"672 68 OFFCURVE",
"672 90 CURVE SMOOTH",
"672 344 LINE SMOOTH",
"672 378 OFFCURVE",
"660 397 OFFCURVE",
"621 397 CURVE SMOOTH",
"409 397 LINE SMOOTH",
"376 397 OFFCURVE",
"367 385 OFFCURVE",
"367 356 CURVE SMOOTH",
"367 320 LINE SMOOTH",
"367 291 OFFCURVE",
"376 278 OFFCURVE",
"409 278 CURVE SMOOTH",
"518 278 LINE",
"518 124 LINE",
"492 112 OFFCURVE",
"446 105 OFFCURVE",
"405 105 CURVE SMOOTH",
"277 105 OFFCURVE",
"195 176 OFFCURVE",
"195 340 CURVE SMOOTH",
"195 503 OFFCURVE",
"284 576 OFFCURVE",
"417 576 CURVE SMOOTH",
"485 576 OFFCURVE",
"534 559 OFFCURVE",
"569 540 CURVE SMOOTH",
"584 532 OFFCURVE",
"590 530 OFFCURVE",
"599 545 CURVE SMOOTH",
"637 609 LINE SMOOTH",
"645 623 OFFCURVE",
"644 630 OFFCURVE",
"631 639 CURVE SMOOTH",
"577 675 OFFCURVE",
"493 695 OFFCURVE",
"396 695 CURVE SMOOTH",
"168 695 OFFCURVE",
"31 572 OFFCURVE",
"31 340 CURVE SMOOTH",
"31 108 OFFCURVE",
"167 -15 OFFCURVE",
"396 -15 CURVE SMOOTH"
);
},
{
closed = 1;
nodes = (
"438 740 LINE SMOOTH",
"467 740 OFFCURVE",
"471 746 OFFCURVE",
"484 764 CURVE SMOOTH",
"584 897 LINE SMOOTH",
"602 920 OFFCURVE",
"596 936 OFFCURVE",
"570 936 CURVE SMOOTH",
"505 936 LINE SMOOTH",
"476 936 OFFCURVE",
"469 931 OFFCURVE",
"458 914 CURVE SMOOTH",
"399 825 LINE",
"339 914 LINE SMOOTH",
"328 931 OFFCURVE",
"321 936 OFFCURVE",
"292 936 CURVE SMOOTH",
"227 936 LINE SMOOTH",
"201 936 OFFCURVE",
"195 920 OFFCURVE",
"213 897 CURVE SMOOTH",
"313 764 LINE SMOOTH",
"327 746 OFFCURVE",
"330 740 OFFCURVE",
"359 740 CURVE SMOOTH"
);
}
);
width = 703;
}
);
note = Gcaron;
unicode = 01E6;
},
{
glyphname = Gcircumflex;
lastChange = "2015-07-18 12:40:35 +0000";
layers = (
{
layerId = "EE9CB86C-5849-467B-879F-FFB2F6EA688D";
name = Regular;
paths = (
{
closed = 1;
nodes = (
"506 -15 OFFCURVE",
"591 8 OFFCURVE",
"652 47 CURVE SMOOTH",
"669 58 OFFCURVE",
"672 68 OFFCURVE",
"672 90 CURVE SMOOTH",
"672 344 LINE SMOOTH",
"672 378 OFFCURVE",
"660 397 OFFCURVE",
"621 397 CURVE SMOOTH",
"409 397 LINE SMOOTH",
"376 397 OFFCURVE",
"367 385 OFFCURVE",
"367 356 CURVE SMOOTH",
"367 320 LINE SMOOTH",
"367 291 OFFCURVE",
"376 278 OFFCURVE",
"409 278 CURVE SMOOTH",
"518 278 LINE",
"518 124 LINE",
"492 112 OFFCURVE",
"446 105 OFFCURVE",
"405 105 CURVE SMOOTH",
"277 105 OFFCURVE",
"195 176 OFFCURVE",
"195 340 CURVE SMOOTH",
"195 503 OFFCURVE",
"284 576 OFFCURVE",
"417 576 CURVE SMOOTH",
"485 576 OFFCURVE",
"534 559 OFFCURVE",
"569 540 CURVE SMOOTH",
"584 532 OFFCURVE",
"590 530 OFFCURVE",
"599 545 CURVE SMOOTH",
"637 609 LINE SMOOTH",
"645 623 OFFCURVE",
"644 630 OFFCURVE",
"631 639 CURVE SMOOTH",
"577 675 OFFCURVE",
"493 695 OFFCURVE",
"396 695 CURVE SMOOTH",
"168 695 OFFCURVE",
"31 572 OFFCURVE",
"31 340 CURVE SMOOTH",
"31 108 OFFCURVE",
"167 -15 OFFCURVE",
"396 -15 CURVE SMOOTH"
);
},
{
closed = 1;
nodes = (
"289 722 LINE SMOOTH",
"318 722 OFFCURVE",
"326 729 OFFCURVE",
"337 746 CURVE SMOOTH",
"396 834 LINE",
"455 746 LINE SMOOTH",
"466 729 OFFCURVE",
"474 722 OFFCURVE",
"503 722 CURVE SMOOTH",
"564 722 LINE SMOOTH",
"590 722 OFFCURVE",
"599 738 OFFCURVE",
"581 762 CURVE SMOOTH",
"481 895 LINE SMOOTH",
"468 912 OFFCURVE",
"464 919 OFFCURVE",
"435 919 CURVE SMOOTH",
"356 919 LINE SMOOTH",
"327 919 OFFCURVE",
"324 912 OFFCURVE",
"310 895 CURVE",
"210 762 LINE SMOOTH",
"192 738 OFFCURVE",
"202 722 OFFCURVE",
"228 722 CURVE SMOOTH"
);
}
);
width = 703;
}
);
note = Gcircumflex;
unicode = 011C;
},
{
glyphname = Gcommaaccent;
lastChange = "2015-07-18 12:40:34 +0000";
layers = (
{
layerId = "EE9CB86C-5849-467B-879F-FFB2F6EA688D";
name = Regular;
paths = (
{
closed = 1;
nodes = (
"506 -15 OFFCURVE",
"591 8 OFFCURVE",
"652 47 CURVE SMOOTH",
"669 58 OFFCURVE",
"672 68 OFFCURVE",
"672 90 CURVE SMOOTH",
"672 344 LINE SMOOTH",
"672 378 OFFCURVE",
"660 397 OFFCURVE",
"621 397 CURVE SMOOTH",
"409 397 LINE SMOOTH",
"376 397 OFFCURVE",
"367 385 OFFCURVE",
"367 356 CURVE SMOOTH",
"367 320 LINE SMOOTH",
"367 291 OFFCURVE",
"376 278 OFFCURVE",
"409 278 CURVE SMOOTH",
"518 278 LINE",
"518 124 LINE",
"492 112 OFFCURVE",
"446 105 OFFCURVE",
"405 105 CURVE SMOOTH",
"277 105 OFFCURVE",
"195 176 OFFCURVE",
"195 340 CURVE SMOOTH",
"195 503 OFFCURVE",
"284 576 OFFCURVE",
"417 576 CURVE SMOOTH",
"485 576 OFFCURVE",
"534 559 OFFCURVE",
"569 540 CURVE SMOOTH",
"584 532 OFFCURVE",
"590 530 OFFCURVE",
"599 545 CURVE SMOOTH",
"637 609 LINE SMOOTH",
"645 623 OFFCURVE",
"644 630 OFFCURVE",
"631 639 CURVE SMOOTH",
"577 675 OFFCURVE",
"493 695 OFFCURVE",
"396 695 CURVE SMOOTH",
"168 695 OFFCURVE",
"31 572 OFFCURVE",
"31 340 CURVE SMOOTH",
"31 108 OFFCURVE",
"167 -15 OFFCURVE",
"396 -15 CURVE SMOOTH"
);
},
{
closed = 1;
nodes = (
"384 -251 LINE SMOOTH",
"404 -251 OFFCURVE",
"413 -244 OFFCURVE",
"418 -231 CURVE",
"484 -77 LINE SMOOTH",
"496 -48 OFFCURVE",
"491 -36 OFFCURVE",
"459 -36 CURVE SMOOTH",
"393 -36 LINE SMOOTH",
"366 -36 OFFCURVE",
"357 -42 OFFCURVE",
"350 -67 CURVE SMOOTH",
"304 -222 LINE SMOOTH",
"299 -239 OFFCURVE",
"303 -251 OFFCURVE",
"324 -251 CURVE SMOOTH"
);
}
);
width = 703;
}
);
note = Gcommaaccent;
unicode = 0122;
},
{
glyphname = Gdotaccent;
lastChange = "2015-07-18 12:40:35 +0000";
layers = (
{
layerId = "EE9CB86C-5849-467B-879F-FFB2F6EA688D";
name = Regular;
paths = (
{
closed = 1;
nodes = (
"506 -15 OFFCURVE",
"591 8 OFFCURVE",
"652 47 CURVE SMOOTH",
"669 58 OFFCURVE",
"672 68 OFFCURVE",
"672 90 CURVE SMOOTH",
"672 344 LINE SMOOTH",
"672 378 OFFCURVE",
"660 397 OFFCURVE",
"621 397 CURVE SMOOTH",
"409 397 LINE SMOOTH",
"376 397 OFFCURVE",
"367 385 OFFCURVE",
"367 356 CURVE SMOOTH",
"367 320 LINE SMOOTH",
"367 291 OFFCURVE",
"376 278 OFFCURVE",
"409 278 CURVE SMOOTH",
"518 278 LINE",
"518 124 LINE",
"492 112 OFFCURVE",
"446 105 OFFCURVE",
"405 105 CURVE SMOOTH",
"277 105 OFFCURVE",
"195 176 OFFCURVE",
"195 340 CURVE SMOOTH",
"195 503 OFFCURVE",
"284 576 OFFCURVE",
"417 576 CURVE SMOOTH",
"485 576 OFFCURVE",
"534 559 OFFCURVE",
"569 540 CURVE SMOOTH",
"584 532 OFFCURVE",
"590 530 OFFCURVE",
"599 545 CURVE SMOOTH",
"637 609 LINE SMOOTH",
"645 623 OFFCURVE",
"644 630 OFFCURVE",
"631 639 CURVE SMOOTH",
"577 675 OFFCURVE",
"493 695 OFFCURVE",
"396 695 CURVE SMOOTH",
"168 695 OFFCURVE",
"31 572 OFFCURVE",
"31 340 CURVE SMOOTH",
"31 108 OFFCURVE",
"167 -15 OFFCURVE",
"396 -15 CURVE SMOOTH"
);
},
{
closed = 1;
nodes = (
"402 745 LINE SMOOTH",
"434 745 OFFCURVE",
"456 771 OFFCURVE",
"456 802 CURVE SMOOTH",
"456 824 LINE SMOOTH",
"456 856 OFFCURVE",
"433 881 OFFCURVE",
"402 881 CURVE SMOOTH",
"378 881 LINE SMOOTH",
"346 881 OFFCURVE",
"324 856 OFFCURVE",
"324 824 CURVE SMOOTH",
"324 802 LINE SMOOTH",
"324 771 OFFCURVE",
"346 745 OFFCURVE",
"378 745 CURVE SMOOTH"
);
}
);
width = 703;
}
);
note = Gdotaccent;
unicode = 0120;
},
{
glyphname = Gmacron;
lastChange = "2015-07-18 12:40:35 +0000";
layers = (
{
layerId = "EE9CB86C-5849-467B-879F-FFB2F6EA688D";
name = Regular;
paths = (
{
closed = 1;
nodes = (
"506 -15 OFFCURVE",
"591 8 OFFCURVE",
"652 47 CURVE SMOOTH",
"669 58 OFFCURVE",
"672 68 OFFCURVE",
"672 90 CURVE SMOOTH",
"672 344 LINE SMOOTH",
"672 378 OFFCURVE",
"660 397 OFFCURVE",
"621 397 CURVE SMOOTH",
"409 397 LINE SMOOTH",
"376 397 OFFCURVE",
"367 385 OFFCURVE",
"367 356 CURVE SMOOTH",
"367 320 LINE SMOOTH",
"367 291 OFFCURVE",
"376 278 OFFCURVE",
"409 278 CURVE SMOOTH",
"518 278 LINE",
"518 124 LINE",
"492 112 OFFCURVE",
"446 105 OFFCURVE",
"405 105 CURVE SMOOTH",
"277 105 OFFCURVE",
"195 176 OFFCURVE",
"195 340 CURVE SMOOTH",
"195 503 OFFCURVE",
"284 576 OFFCURVE",
"417 576 CURVE SMOOTH",
"485 576 OFFCURVE",
"534 559 OFFCURVE",
"569 540 CURVE SMOOTH",
"584 532 OFFCURVE",
"590 530 OFFCURVE",
"599 545 CURVE SMOOTH",
"637 609 LINE SMOOTH",
"645 623 OFFCURVE",
"644 630 OFFCURVE",
"631 639 CURVE SMOOTH",
"577 675 OFFCURVE",
"493 695 OFFCURVE",
"396 695 CURVE SMOOTH",
"168 695 OFFCURVE",
"31 572 OFFCURVE",
"31 340 CURVE SMOOTH",
"31 108 OFFCURVE",
"167 -15 OFFCURVE",
"396 -15 CURVE SMOOTH"
);
},
{
closed = 1;
nodes = (
"512 753 LINE SMOOTH",
"545 753 OFFCURVE",
"554 766 OFFCURVE",
"554 796 CURVE SMOOTH",
"554 832 LINE SMOOTH",
"554 861 OFFCURVE",
"545 875 OFFCURVE",
"512 875 CURVE SMOOTH",
"241 875 LINE SMOOTH",
"208 875 OFFCURVE",
"199 861 OFFCURVE",
"199 832 CURVE SMOOTH",
"199 796 LINE SMOOTH",
"199 766 OFFCURVE",
"208 753 OFFCURVE",
"241 753 CURVE SMOOTH"
);
}
);
width = 703;
}
);
note = Gmacron;
unicode = 1E20;
},
{
glyphname = H;
lastChange = "2015-07-18 12:40:28 +0000";
layers = (
{
layerId = "EE9CB86C-5849-467B-879F-FFB2F6EA688D";
name = Regular;
paths = (
{
closed = 1;
nodes = (
"171 0 LINE SMOOTH",
"205 0 OFFCURVE",
"216 14 OFFCURVE",
"216 43 CURVE SMOOTH",
"216 281 LINE",
"494 281 LINE",
"494 43 LINE SMOOTH",
"494 14 OFFCURVE",
"506 0 OFFCURVE",
"540 0 CURVE SMOOTH",
"614 0 LINE SMOOTH",
"648 0 OFFCURVE",
"660 14 OFFCURVE",
"660 43 CURVE SMOOTH",
"660 636 LINE SMOOTH",
"660 665 OFFCURVE",
"648 680 OFFCURVE",
"614 680 CURVE SMOOTH",
"540 680 LINE SMOOTH",
"506 680 OFFCURVE",
"494 665 OFFCURVE",
"494 636 CURVE SMOOTH",
"494 402 LINE",
"216 402 LINE",
"216 636 LINE SMOOTH",
"216 665 OFFCURVE",
"205 680 OFFCURVE",
"171 680 CURVE SMOOTH",
"96 680 LINE SMOOTH",
"63 680 OFFCURVE",
"51 665 OFFCURVE",
"51 636 CURVE SMOOTH",
"51 43 LINE SMOOTH",
"51 14 OFFCURVE",
"63 0 OFFCURVE",
"96 0 CURVE SMOOTH"
);
}
);
width = 711;
}
);
note = H;
unicode = 0048;
},
{
glyphname = Hbar;
lastChange = "2015-07-18 12:40:33 +0000";
layers = (
{
layerId = "EE9CB86C-5849-467B-879F-FFB2F6EA688D";
name = Regular;
paths = (
{
closed = 1;
nodes = (
"199 0 LINE SMOOTH",
"233 0 OFFCURVE",
"244 14 OFFCURVE",
"244 43 CURVE SMOOTH",
"244 281 LINE",
"522 281 LINE",
"522 43 LINE SMOOTH",
"522 14 OFFCURVE",
"534 0 OFFCURVE",
"568 0 CURVE SMOOTH",
"642 0 LINE SMOOTH",
"676 0 OFFCURVE",
"688 14 OFFCURVE",
"688 43 CURVE SMOOTH",
"688 636 LINE SMOOTH",
"688 665 OFFCURVE",
"676 680 OFFCURVE",
"642 680 CURVE SMOOTH",
"568 680 LINE SMOOTH",
"534 680 OFFCURVE",
"522 665 OFFCURVE",
"522 636 CURVE SMOOTH",
"522 402 LINE",
"244 402 LINE",
"244 636 LINE SMOOTH",
"244 665 OFFCURVE",
"233 680 OFFCURVE",
"199 680 CURVE SMOOTH",
"124 680 LINE SMOOTH",
"91 680 OFFCURVE",
"79 665 OFFCURVE",
"79 636 CURVE SMOOTH",
"79 43 LINE SMOOTH",
"79 14 OFFCURVE",
"91 0 OFFCURVE",
"124 0 CURVE SMOOTH"
);
},
{
closed = 1;
nodes = (
"701 486 LINE SMOOTH",
"726 486 OFFCURVE",
"733 491 OFFCURVE",
"733 516 CURVE SMOOTH",
"733 556 LINE SMOOTH",
"733 580 OFFCURVE",
"726 587 OFFCURVE",
"701 587 CURVE SMOOTH",
"62 587 LINE SMOOTH",
"37 587 OFFCURVE",
"30 580 OFFCURVE",
"30 556 CURVE SMOOTH",
"30 516 LINE SMOOTH",
"30 491 OFFCURVE",
"37 486 OFFCURVE",
"62 486 CURVE SMOOTH"
);
}
);
width = 725;
}
);
note = Hbar;
unicode = 0126;
},
{
glyphname = Hbrevebelow;
lastChange = "2015-07-18 12:40:34 +0000";
layers = (
{
layerId = "EE9CB86C-5849-467B-879F-FFB2F6EA688D";
name = Regular;
paths = (
{
closed = 1;
nodes = (
"171 0 LINE SMOOTH",
"205 0 OFFCURVE",
"216 14 OFFCURVE",
"216 43 CURVE SMOOTH",
"216 281 LINE",
"494 281 LINE",
"494 43 LINE SMOOTH",
"494 14 OFFCURVE",
"506 0 OFFCURVE",
"540 0 CURVE SMOOTH",
"614 0 LINE SMOOTH",
"648 0 OFFCURVE",
"660 14 OFFCURVE",
"660 43 CURVE SMOOTH",
"660 636 LINE SMOOTH",
"660 665 OFFCURVE",
"648 680 OFFCURVE",
"614 680 CURVE SMOOTH",
"540 680 LINE SMOOTH",
"506 680 OFFCURVE",
"494 665 OFFCURVE",
"494 636 CURVE SMOOTH",
"494 402 LINE",
"216 402 LINE",
"216 636 LINE SMOOTH",
"216 665 OFFCURVE",
"205 680 OFFCURVE",
"171 680 CURVE SMOOTH",
"96 680 LINE SMOOTH",
"63 680 OFFCURVE",
"51 665 OFFCURVE",
"51 636 CURVE SMOOTH",
"51 43 LINE SMOOTH",
"51 14 OFFCURVE",
"63 0 OFFCURVE",
"96 0 CURVE SMOOTH"
);
},
{
closed = 1;
nodes = (
"475 -223 OFFCURVE",
"533 -151 OFFCURVE",
"533 -55 CURVE SMOOTH",
"533 -44 OFFCURVE",
"527 -37 OFFCURVE",
"517 -37 CURVE SMOOTH",
"430 -37 LINE SMOOTH",
"416 -37 OFFCURVE",
"413 -44 OFFCURVE",
"413 -56 CURVE SMOOTH",
"413 -93 OFFCURVE",
"399 -118 OFFCURVE",
"356 -118 CURVE SMOOTH",
"314 -118 OFFCURVE",
"299 -93 OFFCURVE",
"299 -56 CURVE SMOOTH",
"299 -44 OFFCURVE",
"296 -37 OFFCURVE",
"282 -37 CURVE SMOOTH",
"195 -37 LINE SMOOTH",
"185 -37 OFFCURVE",
"179 -44 OFFCURVE",
"179 -55 CURVE SMOOTH",
"179 -151 OFFCURVE",
"236 -223 OFFCURVE",
"356 -223 CURVE SMOOTH"
);
}
);
width = 711;
}
);
note = Hbrevebelow;
unicode = 1E2A;
},
{
glyphname = Hcircumflex;
lastChange = "2015-07-18 12:40:34 +0000";
layers = (
{
layerId = "EE9CB86C-5849-467B-879F-FFB2F6EA688D";
name = Regular;
paths = (
{
closed = 1;
nodes = (
"171 0 LINE SMOOTH",
"205 0 OFFCURVE",
"216 14 OFFCURVE",
"216 43 CURVE SMOOTH",
"216 281 LINE",
"494 281 LINE",
"494 43 LINE SMOOTH",
"494 14 OFFCURVE",
"506 0 OFFCURVE",
"540 0 CURVE SMOOTH",
"614 0 LINE SMOOTH",
"648 0 OFFCURVE",
"660 14 OFFCURVE",
"660 43 CURVE SMOOTH",
"660 636 LINE SMOOTH",
"660 665 OFFCURVE",
"648 680 OFFCURVE",
"614 680 CURVE SMOOTH",
"540 680 LINE SMOOTH",
"506 680 OFFCURVE",
"494 665 OFFCURVE",
"494 636 CURVE SMOOTH",
"494 402 LINE",
"216 402 LINE",
"216 636 LINE SMOOTH",
"216 665 OFFCURVE",
"205 680 OFFCURVE",
"171 680 CURVE SMOOTH",
"96 680 LINE SMOOTH",
"63 680 OFFCURVE",
"51 665 OFFCURVE",
"51 636 CURVE SMOOTH",
"51 43 LINE SMOOTH",
"51 14 OFFCURVE",
"63 0 OFFCURVE",
"96 0 CURVE SMOOTH"
);
},
{
closed = 1;
nodes = (
"248 746 LINE SMOOTH",
"277 746 OFFCURVE",
"285 753 OFFCURVE",
"296 770 CURVE SMOOTH",
"355 858 LINE",
"414 770 LINE SMOOTH",
"425 753 OFFCURVE",
"433 746 OFFCURVE",
"462 746 CURVE SMOOTH",
"523 746 LINE SMOOTH",
"549 746 OFFCURVE",
"558 762 OFFCURVE",
"540 786 CURVE SMOOTH",
"440 919 LINE SMOOTH",
"427 936 OFFCURVE",
"423 943 OFFCURVE",
"394 943 CURVE SMOOTH",
"315 943 LINE SMOOTH",
"286 943 OFFCURVE",
"283 936 OFFCURVE",
"269 919 CURVE",
"169 786 LINE SMOOTH",
"151 762 OFFCURVE",
"161 746 OFFCURVE",
"187 746 CURVE SMOOTH"
);
}
);
width = 711;
}
);
note = Hcircumflex;
unicode = 0124;
},
{
glyphname = Hdotbelow;
lastChange = "2015-07-18 12:40:33 +0000";
layers = (
{
layerId = "EE9CB86C-5849-467B-879F-FFB2F6EA688D";
name = Regular;
paths = (
{
closed = 1;
nodes = (
"171 0 LINE SMOOTH",
"205 0 OFFCURVE",
"216 14 OFFCURVE",
"216 43 CURVE SMOOTH",
"216 281 LINE",
"494 281 LINE",
"494 43 LINE SMOOTH",
"494 14 OFFCURVE",
"506 0 OFFCURVE",
"540 0 CURVE SMOOTH",
"614 0 LINE SMOOTH",
"648 0 OFFCURVE",
"660 14 OFFCURVE",
"660 43 CURVE SMOOTH",
"660 636 LINE SMOOTH",
"660 665 OFFCURVE",
"648 680 OFFCURVE",
"614 680 CURVE SMOOTH",
"540 680 LINE SMOOTH",
"506 680 OFFCURVE",
"494 665 OFFCURVE",
"494 636 CURVE SMOOTH",
"494 402 LINE",
"216 402 LINE",
"216 636 LINE SMOOTH",
"216 665 OFFCURVE",
"205 680 OFFCURVE",
"171 680 CURVE SMOOTH",
"96 680 LINE SMOOTH",
"63 680 OFFCURVE",
"51 665 OFFCURVE",
"51 636 CURVE SMOOTH",
"51 43 LINE SMOOTH",
"51 14 OFFCURVE",
"63 0 OFFCURVE",
"96 0 CURVE SMOOTH"
);
},
{
closed = 1;
nodes = (
"371 -195 LINE SMOOTH",
"404 -195 OFFCURVE",
"425 -169 OFFCURVE",
"425 -138 CURVE SMOOTH",
"425 -116 LINE SMOOTH",
"425 -84 OFFCURVE",
"403 -59 OFFCURVE",
"371 -59 CURVE SMOOTH",
"347 -59 LINE SMOOTH",
"316 -59 OFFCURVE",
"293 -84 OFFCURVE",
"293 -116 CURVE SMOOTH",
"293 -138 LINE SMOOTH",
"293 -169 OFFCURVE",
"316 -195 OFFCURVE",
"347 -195 CURVE SMOOTH"
);
}
);
width = 711;
}
);
note = Hdotbelow;
unicode = 1E24;
},
{
glyphname = I;
lastChange = "2015-07-18 12:40:28 +0000";
layers = (
{
layerId = "EE9CB86C-5849-467B-879F-FFB2F6EA688D";
name = Regular;
paths = (
{
closed = 1;
nodes = (
"171 0 LINE SMOOTH",
"205 0 OFFCURVE",
"216 14 OFFCURVE",
"216 43 CURVE SMOOTH",
"216 636 LINE SMOOTH",
"216 665 OFFCURVE",
"205 680 OFFCURVE",
"171 680 CURVE SMOOTH",
"96 680 LINE SMOOTH",
"63 680 OFFCURVE",
"51 665 OFFCURVE",
"51 636 CURVE SMOOTH",
"51 43 LINE SMOOTH",
"51 14 OFFCURVE",
"63 0 OFFCURVE",
"96 0 CURVE SMOOTH"
);
}
);
width = 267;
}
);
note = I;
unicode = 0049;
},
{
glyphname = IJ;
lastChange = "2015-07-18 12:40:34 +0000";
layers = (
{
layerId = "EE9CB86C-5849-467B-879F-FFB2F6EA688D";
name = Regular;
paths = (
{
closed = 1;
nodes = (
"599 -15 OFFCURVE",
"673 73 OFFCURVE",
"673 199 CURVE SMOOTH",
"673 636 LINE SMOOTH",
"673 665 OFFCURVE",
"661 680 OFFCURVE",
"627 680 CURVE SMOOTH",
"553 680 LINE SMOOTH",
"519 680 OFFCURVE",
"507 665 OFFCURVE",
"507 636 CURVE SMOOTH",
"507 199 LINE SMOOTH",
"507 137 OFFCURVE",
"481 104 OFFCURVE",
"417 104 CURVE SMOOTH",
"371 104 OFFCURVE",
"331 120 OFFCURVE",
"303 139 CURVE SMOOTH",
"290 148 OFFCURVE",
"281 149 OFFCURVE",
"272 134 CURVE SMOOTH",
"236 73 LINE SMOOTH",
"228 59 OFFCURVE",
"228 48 OFFCURVE",
"240 40 CURVE SMOOTH",
"291 6 OFFCURVE",
"358 -15 OFFCURVE",
"443 -15 CURVE SMOOTH"
);
},
{
closed = 1;
nodes = (
"171 0 LINE SMOOTH",
"205 0 OFFCURVE",
"216 14 OFFCURVE",
"216 43 CURVE SMOOTH",
"216 636 LINE SMOOTH",
"216 665 OFFCURVE",
"205 680 OFFCURVE",
"171 680 CURVE SMOOTH",
"96 680 LINE SMOOTH",
"63 680 OFFCURVE",
"51 665 OFFCURVE",
"51 636 CURVE SMOOTH",
"51 43 LINE SMOOTH",
"51 14 OFFCURVE",
"63 0 OFFCURVE",
"96 0 CURVE SMOOTH"
);
}
);
width = 724;
}
);
note = IJ;
unicode = 0132;
},
{
glyphname = Iacute;
lastChange = "2015-07-18 12:40:34 +0000";
layers = (
{
layerId = "EE9CB86C-5849-467B-879F-FFB2F6EA688D";
name = Regular;
paths = (
{
closed = 1;
nodes = (
"183 0 LINE SMOOTH",
"217 0 OFFCURVE",
"228 14 OFFCURVE",
"228 43 CURVE SMOOTH",
"228 636 LINE SMOOTH",
"228 665 OFFCURVE",
"217 680 OFFCURVE",
"183 680 CURVE SMOOTH",
"108 680 LINE SMOOTH",
"75 680 OFFCURVE",
"63 665 OFFCURVE",
"63 636 CURVE SMOOTH",
"63 43 LINE SMOOTH",
"63 14 OFFCURVE",
"75 0 OFFCURVE",
"108 0 CURVE SMOOTH"
);
},
{
closed = 1;
nodes = (
"168 747 LINE SMOOTH",
"201 747 OFFCURVE",
"209 753 OFFCURVE",
"221 775 CURVE SMOOTH",
"286 897 LINE SMOOTH",
"300 923 OFFCURVE",
"287 936 OFFCURVE",
"260 936 CURVE SMOOTH",
"163 936 LINE SMOOTH",
"132 936 OFFCURVE",
"126 928 OFFCURVE",
"118 907 CURVE SMOOTH",
"73 781 LINE SMOOTH",
"66 761 OFFCURVE",
"72 747 OFFCURVE",
"98 747 CURVE SMOOTH"
);
}
);
width = 290;
}
);
note = Iacute;
unicode = 00CD;
},
{
glyphname = Ibreve;
lastChange = "2015-07-18 12:40:33 +0000";
layers = (
{
layerId = "EE9CB86C-5849-467B-879F-FFB2F6EA688D";
name = Regular;
paths = (
{
closed = 1;
nodes = (
"189 0 LINE SMOOTH",
"223 0 OFFCURVE",
"234 14 OFFCURVE",
"234 43 CURVE SMOOTH",
"234 636 LINE SMOOTH",
"234 665 OFFCURVE",
"223 680 OFFCURVE",
"189 680 CURVE SMOOTH",
"114 680 LINE SMOOTH",
"81 680 OFFCURVE",
"69 665 OFFCURVE",
"69 636 CURVE SMOOTH",
"69 43 LINE SMOOTH",
"69 14 OFFCURVE",
"81 0 OFFCURVE",
"114 0 CURVE SMOOTH"
);
},
{
closed = 1;
nodes = (
"271 747 OFFCURVE",
"329 819 OFFCURVE",
"329 915 CURVE SMOOTH",
"329 926 OFFCURVE",
"323 933 OFFCURVE",
"313 933 CURVE SMOOTH",
"226 933 LINE SMOOTH",
"212 933 OFFCURVE",
"209 926 OFFCURVE",
"209 914 CURVE SMOOTH",
"209 877 OFFCURVE",
"194 852 OFFCURVE",
"152 852 CURVE SMOOTH",
"109 852 OFFCURVE",
"95 877 OFFCURVE",
"95 914 CURVE SMOOTH",
"95 926 OFFCURVE",
"92 933 OFFCURVE",
"78 933 CURVE SMOOTH",
"-9 933 LINE SMOOTH",
"-19 933 OFFCURVE",
"-25 926 OFFCURVE",
"-25 915 CURVE SMOOTH",
"-25 819 OFFCURVE",
"32 747 OFFCURVE",
"152 747 CURVE SMOOTH"
);
}
);
width = 305;
}
);
note = Ibreve;
unicode = 012C;
},
{
glyphname = Icaron;
lastChange = "2015-07-18 12:40:34 +0000";
layers = (
{
layerId = "EE9CB86C-5849-467B-879F-FFB2F6EA688D";
name = Regular;
paths = (
{
closed = 1;
nodes = (
"200 0 LINE SMOOTH",
"234 0 OFFCURVE",
"245 14 OFFCURVE",
"245 43 CURVE SMOOTH",
"245 636 LINE SMOOTH",
"245 665 OFFCURVE",
"234 680 OFFCURVE",
"200 680 CURVE SMOOTH",
"125 680 LINE SMOOTH",
"92 680 OFFCURVE",
"80 665 OFFCURVE",
"80 636 CURVE SMOOTH",
"80 43 LINE SMOOTH",
"80 14 OFFCURVE",
"92 0 OFFCURVE",
"125 0 CURVE SMOOTH"
);
},
{
closed = 1;
nodes = (
"191 740 LINE SMOOTH",
"220 740 OFFCURVE",
"224 746 OFFCURVE",
"237 764 CURVE SMOOTH",
"337 897 LINE SMOOTH",
"355 920 OFFCURVE",
"349 936 OFFCURVE",
"323 936 CURVE SMOOTH",
"258 936 LINE SMOOTH",
"229 936 OFFCURVE",
"222 931 OFFCURVE",
"211 914 CURVE SMOOTH",
"152 825 LINE",
"92 914 LINE SMOOTH",
"81 931 OFFCURVE",
"74 936 OFFCURVE",
"45 936 CURVE SMOOTH",
"-20 936 LINE SMOOTH",
"-46 936 OFFCURVE",
"-52 920 OFFCURVE",
"-34 897 CURVE SMOOTH",
"66 764 LINE SMOOTH",
"80 746 OFFCURVE",
"83 740 OFFCURVE",
"112 740 CURVE SMOOTH"
);
}
);
width = 325;
}
);
note = Icaron;
unicode = 01CF;
},
{
glyphname = Icircumflex;
lastChange = "2015-07-18 12:40:34 +0000";
layers = (
{
layerId = "EE9CB86C-5849-467B-879F-FFB2F6EA688D";
name = Regular;
paths = (
{
closed = 1;
nodes = (
"183 0 LINE SMOOTH",
"217 0 OFFCURVE",
"228 14 OFFCURVE",
"228 43 CURVE SMOOTH",
"228 636 LINE SMOOTH",
"228 665 OFFCURVE",
"217 680 OFFCURVE",
"183 680 CURVE SMOOTH",
"108 680 LINE SMOOTH",
"75 680 OFFCURVE",
"63 665 OFFCURVE",
"63 636 CURVE SMOOTH",
"63 43 LINE SMOOTH",
"63 14 OFFCURVE",
"75 0 OFFCURVE",
"108 0 CURVE SMOOTH"
);
},
{
closed = 1;
nodes = (
"38 753 LINE SMOOTH",
"67 753 OFFCURVE",
"75 760 OFFCURVE",
"86 777 CURVE SMOOTH",
"145 865 LINE",
"204 777 LINE SMOOTH",
"215 760 OFFCURVE",
"223 753 OFFCURVE",
"252 753 CURVE SMOOTH",
"313 753 LINE SMOOTH",
"339 753 OFFCURVE",
"348 769 OFFCURVE",
"330 793 CURVE SMOOTH",
"230 926 LINE SMOOTH",
"217 943 OFFCURVE",
"213 950 OFFCURVE",
"184 950 CURVE SMOOTH",
"105 950 LINE SMOOTH",
"76 950 OFFCURVE",
"73 943 OFFCURVE",
"59 926 CURVE",
"-41 793 LINE SMOOTH",
"-59 769 OFFCURVE",
"-49 753 OFFCURVE",
"-23 753 CURVE SMOOTH"
);
}
);
width = 289;
}
);
note = Icircumflex;
unicode = 00CE;
},
{
glyphname = Idieresis;
lastChange = "2015-07-18 12:40:35 +0000";
layers = (
{
layerId = "EE9CB86C-5849-467B-879F-FFB2F6EA688D";
name = Regular;
paths = (
{
closed = 1;
nodes = (
"172 0 LINE SMOOTH",
"206 0 OFFCURVE",
"217 14 OFFCURVE",
"217 43 CURVE SMOOTH",
"217 636 LINE SMOOTH",
"217 665 OFFCURVE",
"206 680 OFFCURVE",
"172 680 CURVE SMOOTH",
"97 680 LINE SMOOTH",
"64 680 OFFCURVE",
"52 665 OFFCURVE",
"52 636 CURVE SMOOTH",
"52 43 LINE SMOOTH",
"52 14 OFFCURVE",
"64 0 OFFCURVE",
"97 0 CURVE SMOOTH"
);
},
{
closed = 1;
nodes = (
"47 704 LINE SMOOTH",
"80 704 OFFCURVE",
"101 730 OFFCURVE",
"101 761 CURVE SMOOTH",
"101 783 LINE SMOOTH",
"101 815 OFFCURVE",
"79 840 OFFCURVE",
"47 840 CURVE SMOOTH",
"24 840 LINE SMOOTH",
"-8 840 OFFCURVE",
"-30 815 OFFCURVE",
"-30 783 CURVE SMOOTH",
"-30 761 LINE SMOOTH",
"-30 730 OFFCURVE",
"-8 704 OFFCURVE",
"24 704 CURVE SMOOTH"
);
},
{
closed = 1;
nodes = (
"253 704 LINE SMOOTH",
"286 704 OFFCURVE",
"307 730 OFFCURVE",
"307 761 CURVE SMOOTH",
"307 783 LINE SMOOTH",
"307 815 OFFCURVE",
"285 840 OFFCURVE",
"253 840 CURVE SMOOTH",
"229 840 LINE SMOOTH",
"198 840 OFFCURVE",
"175 815 OFFCURVE",
"175 783 CURVE SMOOTH",
"175 761 LINE SMOOTH",
"175 730 OFFCURVE",
"198 704 OFFCURVE",
"229 704 CURVE SMOOTH"
);
}
);
width = 277;
}
);
note = Idieresis;
unicode = 00CF;
},
{
glyphname = Idotaccent;
lastChange = "2015-07-18 12:40:35 +0000";
layers = (
{
layerId = "EE9CB86C-5849-467B-879F-FFB2F6EA688D";
name = Regular;
paths = (
{
closed = 1;
nodes = (
"171 0 LINE SMOOTH",
"205 0 OFFCURVE",
"216 14 OFFCURVE",
"216 43 CURVE SMOOTH",
"216 636 LINE SMOOTH",
"216 665 OFFCURVE",
"205 680 OFFCURVE",
"171 680 CURVE SMOOTH",
"96 680 LINE SMOOTH",
"63 680 OFFCURVE",
"51 665 OFFCURVE",
"51 636 CURVE SMOOTH",
"51 43 LINE SMOOTH",
"51 14 OFFCURVE",
"63 0 OFFCURVE",
"96 0 CURVE SMOOTH"
);
},
{
closed = 1;
nodes = (
"149 737 LINE SMOOTH",
"181 737 OFFCURVE",
"203 763 OFFCURVE",
"203 794 CURVE SMOOTH",
"203 816 LINE SMOOTH",
"203 848 OFFCURVE",
"180 873 OFFCURVE",
"149 873 CURVE SMOOTH",
"125 873 LINE SMOOTH",
"93 873 OFFCURVE",
"71 848 OFFCURVE",
"71 816 CURVE SMOOTH",
"71 794 LINE SMOOTH",
"71 763 OFFCURVE",
"93 737 OFFCURVE",
"125 737 CURVE SMOOTH"
);
}
);
width = 267;
}
);
note = Idotaccent;
unicode = 0130;
},
{
glyphname = Idotbelow;
lastChange = "2015-07-18 12:40:35 +0000";
layers = (
{
layerId = "EE9CB86C-5849-467B-879F-FFB2F6EA688D";
name = Regular;
paths = (
{
closed = 1;
nodes = (
"171 0 LINE SMOOTH",
"205 0 OFFCURVE",
"216 14 OFFCURVE",
"216 43 CURVE SMOOTH",
"216 636 LINE SMOOTH",
"216 665 OFFCURVE",
"205 680 OFFCURVE",
"171 680 CURVE SMOOTH",
"96 680 LINE SMOOTH",
"63 680 OFFCURVE",
"51 665 OFFCURVE",
"51 636 CURVE SMOOTH",
"51 43 LINE SMOOTH",
"51 14 OFFCURVE",
"63 0 OFFCURVE",
"96 0 CURVE SMOOTH"
);
},
{
closed = 1;
nodes = (
"150 -195 LINE SMOOTH",
"183 -195 OFFCURVE",
"204 -169 OFFCURVE",
"204 -138 CURVE SMOOTH",
"204 -116 LINE SMOOTH",
"204 -84 OFFCURVE",
"182 -59 OFFCURVE",
"150 -59 CURVE SMOOTH",
"126 -59 LINE SMOOTH",
"95 -59 OFFCURVE",
"72 -84 OFFCURVE",
"72 -116 CURVE SMOOTH",
"72 -138 LINE SMOOTH",
"72 -169 OFFCURVE",
"95 -195 OFFCURVE",
"126 -195 CURVE SMOOTH"
);
}
);
width = 267;
}
);
note = Idotbelow;
unicode = 1ECA;
},
{
glyphname = Igrave;
lastChange = "2015-07-18 12:40:35 +0000";
layers = (
{
layerId = "EE9CB86C-5849-467B-879F-FFB2F6EA688D";
name = Regular;
paths = (
{
closed = 1;
nodes = (
"171 0 LINE SMOOTH",
"205 0 OFFCURVE",
"216 14 OFFCURVE",
"216 43 CURVE SMOOTH",
"216 636 LINE SMOOTH",
"216 665 OFFCURVE",
"205 680 OFFCURVE",
"171 680 CURVE SMOOTH",
"96 680 LINE SMOOTH",
"63 680 OFFCURVE",
"51 665 OFFCURVE",
"51 636 CURVE SMOOTH",
"51 43 LINE SMOOTH",
"51 14 OFFCURVE",
"63 0 OFFCURVE",
"96 0 CURVE SMOOTH"
);
},
{
closed = 1;
nodes = (
"174 747 LINE SMOOTH",
"200 747 OFFCURVE",
"207 761 OFFCURVE",
"200 781 CURVE SMOOTH",
"154 907 LINE SMOOTH",
"146 929 OFFCURVE",
"141 936 OFFCURVE",
"109 936 CURVE SMOOTH",
"13 936 LINE SMOOTH",
"-14 936 OFFCURVE",
"-28 923 OFFCURVE",
"-14 897 CURVE SMOOTH",
"52 775 LINE SMOOTH",
"64 753 OFFCURVE",
"71 747 OFFCURVE",
"104 747 CURVE SMOOTH"
);
}
);
width = 267;
}
);
note = Igrave;
unicode = 00CC;
},
{
glyphname = Ihookabove;
lastChange = "2015-07-18 12:40:35 +0000";
layers = (
{
layerId = "EE9CB86C-5849-467B-879F-FFB2F6EA688D";
name = Regular;
paths = (
{
closed = 1;
nodes = (
"171 0 LINE SMOOTH",
"205 0 OFFCURVE",
"216 14 OFFCURVE",
"216 43 CURVE SMOOTH",
"216 636 LINE SMOOTH",
"216 665 OFFCURVE",
"205 680 OFFCURVE",
"171 680 CURVE SMOOTH",
"96 680 LINE SMOOTH",
"63 680 OFFCURVE",
"51 665 OFFCURVE",
"51 636 CURVE SMOOTH",
"51 43 LINE SMOOTH",
"51 14 OFFCURVE",
"63 0 OFFCURVE",
"96 0 CURVE SMOOTH"
);
},
{
closed = 1;
nodes = (
"165 729 LINE SMOOTH",
"181 729 OFFCURVE",
"188 737 OFFCURVE",
"188 752 CURVE SMOOTH",
"188 771 LINE",
"239 771 OFFCURVE",
"283 807 OFFCURVE",
"283 869 CURVE SMOOTH",
"283 934 OFFCURVE",
"238 972 OFFCURVE",
"146 972 CURVE SMOOTH",
"105 972 OFFCURVE",
"55 961 OFFCURVE",
"27 942 CURVE SMOOTH",
"21 938 OFFCURVE",
"21 935 OFFCURVE",
"23 929 CURVE",
"47 875 LINE",
"50 870 OFFCURVE",
"53 870 OFFCURVE",
"58 872 CURVE",
"81 883 OFFCURVE",
"102 891 OFFCURVE",
"129 891 CURVE SMOOTH",
"159 891 OFFCURVE",
"173 882 OFFCURVE",
"173 863 CURVE SMOOTH",
"173 840 OFFCURVE",
"157 831 OFFCURVE",
"119 831 CURVE SMOOTH",
"91 831 OFFCURVE",
"83 821 OFFCURVE",
"83 800 CURVE SMOOTH",
"83 752 LINE SMOOTH",
"83 737 OFFCURVE",
"90 729 OFFCURVE",
"106 729 CURVE SMOOTH"
);
}
);
width = 267;
}
);
note = Ihookabove;
unicode = 1EC8;
},
{
glyphname = Imacron;
lastChange = "2015-07-18 12:40:34 +0000";
layers = (
{
layerId = "EE9CB86C-5849-467B-879F-FFB2F6EA688D";
name = Regular;
paths = (
{
closed = 1;
nodes = (
"170 0 LINE SMOOTH",
"204 0 OFFCURVE",
"216 14 OFFCURVE",
"216 43 CURVE SMOOTH",
"216 636 LINE SMOOTH",
"216 665 OFFCURVE",
"204 680 OFFCURVE",
"170 680 CURVE SMOOTH",
"96 680 LINE SMOOTH",
"62 680 OFFCURVE",
"51 665 OFFCURVE",
"51 636 CURVE SMOOTH",
"51 43 LINE SMOOTH",
"51 14 OFFCURVE",
"62 0 OFFCURVE",
"96 0 CURVE SMOOTH"
);
},
{
closed = 1;
nodes = (
"271 752 LINE SMOOTH",
"304 752 OFFCURVE",
"314 765 OFFCURVE",
"314 794 CURVE SMOOTH",
"314 831 LINE SMOOTH",
"314 860 OFFCURVE",
"304 874 OFFCURVE",
"271 874 CURVE SMOOTH",
"0 874 LINE SMOOTH",
"-33 874 OFFCURVE",
"-42 860 OFFCURVE",
"-42 831 CURVE SMOOTH",
"-42 794 LINE SMOOTH",
"-42 765 OFFCURVE",
"-33 752 OFFCURVE",
"0 752 CURVE SMOOTH"
);
}
);
width = 267;
}
);
note = Imacron;
unicode = 012A;
},
{
glyphname = Iogonek;
lastChange = "2015-07-18 12:40:35 +0000";
layers = (
{
layerId = "EE9CB86C-5849-467B-879F-FFB2F6EA688D";
name = Regular;
paths = (
{
closed = 1;
nodes = (
"171 0 LINE SMOOTH",
"205 0 OFFCURVE",
"216 14 OFFCURVE",
"216 43 CURVE SMOOTH",
"216 636 LINE SMOOTH",
"216 665 OFFCURVE",
"205 680 OFFCURVE",
"171 680 CURVE SMOOTH",
"96 680 LINE SMOOTH",
"63 680 OFFCURVE",
"51 665 OFFCURVE",
"51 636 CURVE SMOOTH",
"51 43 LINE SMOOTH",
"51 14 OFFCURVE",
"63 0 OFFCURVE",
"96 0 CURVE SMOOTH"
);
},
{
closed = 1;
nodes = (
"146 -209 OFFCURVE",
"174 -206 OFFCURVE",
"196 -195 CURVE SMOOTH",
"209 -189 OFFCURVE",
"209 -185 OFFCURVE",
"206 -178 CURVE SMOOTH",
"188 -139 LINE SMOOTH",
"185 -132 OFFCURVE",
"181 -131 OFFCURVE",
"174 -134 CURVE",
"168 -137 OFFCURVE",
"161 -138 OFFCURVE",
"152 -138 CURVE SMOOTH",
"136 -138 OFFCURVE",
"128 -129 OFFCURVE",
"128 -111 CURVE SMOOTH",
"128 -82 OFFCURVE",
"141 -61 OFFCURVE",
"188 -6 CURVE SMOOTH",
"195 2 OFFCURVE",
"190 10 OFFCURVE",
"178 10 CURVE SMOOTH",
"100 10 LINE SMOOTH",
"87 10 OFFCURVE",
"83 6 OFFCURVE",
"75 -3 CURVE SMOOTH",
"31 -53 OFFCURVE",
"14 -90 OFFCURVE",
"14 -126 CURVE SMOOTH",
"14 -171 OFFCURVE",
"43 -209 OFFCURVE",
"108 -209 CURVE SMOOTH"
);
}
);
width = 267;
}
);
note = Iogonek;
unicode = 012E;
},
{
glyphname = Itilde;
lastChange = "2015-07-18 12:40:36 +0000";
layers = (
{
layerId = "EE9CB86C-5849-467B-879F-FFB2F6EA688D";
name = Regular;
paths = (
{
closed = 1;
nodes = (
"171 0 LINE SMOOTH",
"205 0 OFFCURVE",
"216 14 OFFCURVE",
"216 43 CURVE SMOOTH",
"216 636 LINE SMOOTH",
"216 665 OFFCURVE",
"205 680 OFFCURVE",
"171 680 CURVE SMOOTH",
"96 680 LINE SMOOTH",
"63 680 OFFCURVE",
"51 665 OFFCURVE",
"51 636 CURVE SMOOTH",
"51 43 LINE SMOOTH",
"51 14 OFFCURVE",
"63 0 OFFCURVE",
"96 0 CURVE SMOOTH"
);
},
{
closed = 1;
nodes = (
"281 730 OFFCURVE",
"313 755 OFFCURVE",
"348 807 CURVE SMOOTH",
"367 834 OFFCURVE",
"364 848 OFFCURVE",
"333 872 CURVE SMOOTH",
"301 896 OFFCURVE",
"283 900 OFFCURVE",
"268 881 CURVE SMOOTH",
"247 855 OFFCURVE",
"235 846 OFFCURVE",
"209 846 CURVE SMOOTH",
"157 846 OFFCURVE",
"118 897 OFFCURVE",
"38 897 CURVE SMOOTH",
"-16 897 OFFCURVE",
"-47 868 OFFCURVE",
"-80 824 CURVE SMOOTH",
"-99 798 OFFCURVE",
"-96 784 OFFCURVE",
"-67 761 CURVE SMOOTH",
"-36 736 OFFCURVE",
"-18 731 OFFCURVE",
"-3 749 CURVE SMOOTH",
"17 772 OFFCURVE",
"29 781 OFFCURVE",
"55 781 CURVE SMOOTH",
"107 781 OFFCURVE",
"157 730 OFFCURVE",
"222 730 CURVE SMOOTH"
);
}
);
width = 267;
}
);
note = Itilde;
unicode = 0128;
},
{
glyphname = J;
lastChange = "2015-07-18 12:40:29 +0000";
layers = (
{
layerId = "EE9CB86C-5849-467B-879F-FFB2F6EA688D";
name = Regular;
paths = (
{
closed = 1;
nodes = (
"380 -15 OFFCURVE",
"454 73 OFFCURVE",
"454 199 CURVE SMOOTH",
"454 636 LINE SMOOTH",
"454 665 OFFCURVE",
"442 680 OFFCURVE",
"408 680 CURVE SMOOTH",
"334 680 LINE SMOOTH",
"300 680 OFFCURVE",
"288 665 OFFCURVE",
"288 636 CURVE SMOOTH",
"288 199 LINE SMOOTH",
"288 137 OFFCURVE",
"262 104 OFFCURVE",
"198 104 CURVE SMOOTH",
"152 104 OFFCURVE",
"112 120 OFFCURVE",
"84 139 CURVE SMOOTH",
"71 148 OFFCURVE",
"62 149 OFFCURVE",
"53 134 CURVE SMOOTH",
"17 73 LINE SMOOTH",
"9 59 OFFCURVE",
"9 48 OFFCURVE",
"21 40 CURVE SMOOTH",
"72 6 OFFCURVE",
"139 -15 OFFCURVE",
"224 -15 CURVE SMOOTH"
);
}
);
width = 500;
}
);
note = J;
unicode = 004A;
},
{
glyphname = Jcircumflex;
lastChange = "2015-07-18 12:40:36 +0000";
layers = (
{
layerId = "EE9CB86C-5849-467B-879F-FFB2F6EA688D";
name = Regular;
paths = (
{
closed = 1;
nodes = (
"380 -15 OFFCURVE",
"454 73 OFFCURVE",
"454 199 CURVE SMOOTH",
"454 636 LINE SMOOTH",
"454 665 OFFCURVE",
"442 680 OFFCURVE",
"408 680 CURVE SMOOTH",
"334 680 LINE SMOOTH",
"300 680 OFFCURVE",
"288 665 OFFCURVE",
"288 636 CURVE SMOOTH",
"288 199 LINE SMOOTH",
"288 137 OFFCURVE",
"262 104 OFFCURVE",
"198 104 CURVE SMOOTH",
"152 104 OFFCURVE",
"112 120 OFFCURVE",
"84 139 CURVE SMOOTH",
"71 148 OFFCURVE",
"62 149 OFFCURVE",
"53 134 CURVE SMOOTH",
"17 73 LINE SMOOTH",
"9 59 OFFCURVE",
"9 48 OFFCURVE",
"21 40 CURVE SMOOTH",
"72 6 OFFCURVE",
"139 -15 OFFCURVE",
"224 -15 CURVE SMOOTH"
);
},
{
closed = 1;
nodes = (
"267 746 LINE SMOOTH",
"296 746 OFFCURVE",
"304 753 OFFCURVE",
"315 770 CURVE SMOOTH",
"374 858 LINE",
"433 770 LINE SMOOTH",
"444 753 OFFCURVE",
"452 746 OFFCURVE",
"481 746 CURVE SMOOTH",
"542 746 LINE SMOOTH",
"568 746 OFFCURVE",
"577 762 OFFCURVE",
"559 786 CURVE SMOOTH",
"459 919 LINE SMOOTH",
"446 936 OFFCURVE",
"442 943 OFFCURVE",
"413 943 CURVE SMOOTH",
"334 943 LINE SMOOTH",
"305 943 OFFCURVE",
"302 936 OFFCURVE",
"288 919 CURVE",
"188 786 LINE SMOOTH",
"170 762 OFFCURVE",
"180 746 OFFCURVE",
"206 746 CURVE SMOOTH"
);
}
);
width = 570;
}
);
note = Jcircumflex;
unicode = 0134;
},
{
glyphname = K;
lastChange = "2015-07-18 12:40:34 +0000";
layers = (
{
layerId = "EE9CB86C-5849-467B-879F-FFB2F6EA688D";
name = Regular;
paths = (
{
closed = 1;
nodes = (
"596 0 LINE SMOOTH",
"614 0 OFFCURVE",
"619 18 OFFCURVE",
"608 33 CURVE",
"364 342 LINE",
"601 647 LINE SMOOTH",
"612 662 OFFCURVE",
"607 680 OFFCURVE",
"589 680 CURVE SMOOTH",
"466 680 LINE SMOOTH",
"447 680 OFFCURVE",
"441 678 OFFCURVE",
"433 667 CURVE SMOOTH",
"219 382 LINE SMOOTH",
"209 369 OFFCURVE",
"203 361 OFFCURVE",
"203 342 CURVE SMOOTH",
"203 323 OFFCURVE",
"210 314 OFFCURVE",
"219 302 CURVE SMOOTH",
"440 12 LINE SMOOTH",
"448 2 OFFCURVE",
"455 0 OFFCURVE",
"471 0 CURVE SMOOTH"
);
},
{
closed = 1;
nodes = (
"171 0 LINE SMOOTH",
"205 0 OFFCURVE",
"216 14 OFFCURVE",
"216 43 CURVE SMOOTH",
"216 636 LINE SMOOTH",
"216 665 OFFCURVE",
"205 680 OFFCURVE",
"171 680 CURVE SMOOTH",
"96 680 LINE SMOOTH",
"63 680 OFFCURVE",
"51 665 OFFCURVE",
"51 636 CURVE SMOOTH",
"51 43 LINE SMOOTH",
"51 14 OFFCURVE",
"63 0 OFFCURVE",
"96 0 CURVE SMOOTH"
);
}
);
width = 647;
}
);
note = K;
unicode = 004B;
},
{
glyphname = Kcommaaccent;
lastChange = "2015-07-18 12:40:35 +0000";
layers = (
{
layerId = "EE9CB86C-5849-467B-879F-FFB2F6EA688D";
name = Regular;
paths = (
{
closed = 1;
nodes = (
"596 0 LINE SMOOTH",
"614 0 OFFCURVE",
"619 18 OFFCURVE",
"608 33 CURVE",
"364 342 LINE",
"601 647 LINE SMOOTH",
"612 662 OFFCURVE",
"607 680 OFFCURVE",
"589 680 CURVE SMOOTH",
"466 680 LINE SMOOTH",
"447 680 OFFCURVE",
"441 678 OFFCURVE",
"433 667 CURVE SMOOTH",
"219 382 LINE SMOOTH",
"209 369 OFFCURVE",
"203 361 OFFCURVE",
"203 342 CURVE SMOOTH",
"203 323 OFFCURVE",
"210 314 OFFCURVE",
"219 302 CURVE SMOOTH",
"440 12 LINE SMOOTH",
"448 2 OFFCURVE",
"455 0 OFFCURVE",
"471 0 CURVE SMOOTH"
);
},
{
closed = 1;
nodes = (
"282 -251 LINE SMOOTH",
"302 -251 OFFCURVE",
"311 -244 OFFCURVE",
"316 -231 CURVE",
"382 -77 LINE SMOOTH",
"394 -48 OFFCURVE",
"389 -36 OFFCURVE",
"357 -36 CURVE SMOOTH",
"291 -36 LINE SMOOTH",
"264 -36 OFFCURVE",
"255 -42 OFFCURVE",
"248 -67 CURVE SMOOTH",
"202 -222 LINE SMOOTH",
"197 -239 OFFCURVE",
"201 -251 OFFCURVE",
"222 -251 CURVE SMOOTH"
);
},
{
closed = 1;
nodes = (
"171 0 LINE SMOOTH",
"205 0 OFFCURVE",
"216 14 OFFCURVE",
"216 43 CURVE SMOOTH",
"216 636 LINE SMOOTH",
"216 665 OFFCURVE",
"205 680 OFFCURVE",
"171 680 CURVE SMOOTH",
"96 680 LINE SMOOTH",
"63 680 OFFCURVE",
"51 665 OFFCURVE",
"51 636 CURVE SMOOTH",
"51 43 LINE SMOOTH",
"51 14 OFFCURVE",
"63 0 OFFCURVE",
"96 0 CURVE SMOOTH"
);
}
);
width = 647;
}
);
note = Kcommaaccent;
unicode = 0136;
},
{
glyphname = L;
lastChange = "2015-07-18 12:40:29 +0000";
layers = (
{
layerId = "EE9CB86C-5849-467B-879F-FFB2F6EA688D";
name = Regular;
paths = (
{
closed = 1;
nodes = (
"498 0 LINE SMOOTH",
"531 0 OFFCURVE",
"540 13 OFFCURVE",
"540 42 CURVE SMOOTH",
"540 78 LINE SMOOTH",
"540 108 OFFCURVE",
"531 121 OFFCURVE",
"498 121 CURVE SMOOTH",
"216 121 LINE",
"216 636 LINE SMOOTH",
"216 665 OFFCURVE",
"205 680 OFFCURVE",
"171 680 CURVE SMOOTH",
"96 680 LINE SMOOTH",
"63 680 OFFCURVE",
"51 665 OFFCURVE",
"51 636 CURVE SMOOTH",
"51 43 LINE SMOOTH",
"51 14 OFFCURVE",
"63 0 OFFCURVE",
"96 0 CURVE SMOOTH"
);
}
);
width = 551;
}
);
note = L;
unicode = 004C;
},
{
glyphname = Lacute;
lastChange = "2015-07-18 12:40:35 +0000";
layers = (
{
layerId = "EE9CB86C-5849-467B-879F-FFB2F6EA688D";
name = Regular;
paths = (
{
closed = 1;
nodes = (
"498 0 LINE SMOOTH",
"531 0 OFFCURVE",
"540 13 OFFCURVE",
"540 42 CURVE SMOOTH",
"540 78 LINE SMOOTH",
"540 108 OFFCURVE",
"531 121 OFFCURVE",
"498 121 CURVE SMOOTH",
"216 121 LINE",
"216 636 LINE SMOOTH",
"216 665 OFFCURVE",
"205 680 OFFCURVE",
"171 680 CURVE SMOOTH",
"96 680 LINE SMOOTH",
"63 680 OFFCURVE",
"51 665 OFFCURVE",
"51 636 CURVE SMOOTH",
"51 43 LINE SMOOTH",
"51 14 OFFCURVE",
"63 0 OFFCURVE",
"96 0 CURVE SMOOTH"
);
},
{
closed = 1;
nodes = (
"179 723 LINE SMOOTH",
"212 723 OFFCURVE",
"220 729 OFFCURVE",
"232 751 CURVE SMOOTH",
"297 873 LINE SMOOTH",
"311 899 OFFCURVE",
"298 912 OFFCURVE",
"271 912 CURVE SMOOTH",
"174 912 LINE SMOOTH",
"143 912 OFFCURVE",
"137 904 OFFCURVE",
"129 883 CURVE SMOOTH",
"84 757 LINE SMOOTH",
"77 737 OFFCURVE",
"83 723 OFFCURVE",
"109 723 CURVE SMOOTH"
);
}
);
width = 551;
}
);
note = Lacute;
unicode = 0139;
},
{
glyphname = Lcaron;
lastChange = "2015-07-18 12:40:33 +0000";
layers = (
{
layerId = "EE9CB86C-5849-467B-879F-FFB2F6EA688D";
name = Regular;
paths = (
{
closed = 1;
nodes = (
"498 0 LINE SMOOTH",
"531 0 OFFCURVE",
"540 13 OFFCURVE",
"540 42 CURVE SMOOTH",
"540 78 LINE SMOOTH",
"540 108 OFFCURVE",
"531 121 OFFCURVE",
"498 121 CURVE SMOOTH",
"216 121 LINE",
"216 636 LINE SMOOTH",
"216 665 OFFCURVE",
"205 680 OFFCURVE",
"171 680 CURVE SMOOTH",
"96 680 LINE SMOOTH",
"63 680 OFFCURVE",
"51 665 OFFCURVE",
"51 636 CURVE SMOOTH",
"51 43 LINE SMOOTH",
"51 14 OFFCURVE",
"63 0 OFFCURVE",
"96 0 CURVE SMOOTH"
);
},
{
closed = 1;
nodes = (
"421 512 LINE SMOOTH",
"441 512 OFFCURVE",
"450 519 OFFCURVE",
"455 532 CURVE",
"521 686 LINE SMOOTH",
"533 715 OFFCURVE",
"528 727 OFFCURVE",
"496 727 CURVE SMOOTH",
"430 727 LINE SMOOTH",
"403 727 OFFCURVE",
"394 721 OFFCURVE",
"387 696 CURVE SMOOTH",
"341 541 LINE SMOOTH",
"336 524 OFFCURVE",
"340 512 OFFCURVE",
"361 512 CURVE SMOOTH"
);
}
);
width = 575;
}
);
note = Lcaron;
unicode = 013D;
},
{
glyphname = Lcommaaccent;
lastChange = "2015-07-18 12:40:33 +0000";
layers = (
{
layerId = "EE9CB86C-5849-467B-879F-FFB2F6EA688D";
name = Regular;
paths = (
{
closed = 1;
nodes = (
"498 0 LINE SMOOTH",
"531 0 OFFCURVE",
"540 13 OFFCURVE",
"540 42 CURVE SMOOTH",
"540 78 LINE SMOOTH",
"540 108 OFFCURVE",
"531 121 OFFCURVE",
"498 121 CURVE SMOOTH",
"216 121 LINE",
"216 636 LINE SMOOTH",
"216 665 OFFCURVE",
"205 680 OFFCURVE",
"171 680 CURVE SMOOTH",
"96 680 LINE SMOOTH",
"63 680 OFFCURVE",
"51 665 OFFCURVE",
"51 636 CURVE SMOOTH",
"51 43 LINE SMOOTH",
"51 14 OFFCURVE",
"63 0 OFFCURVE",
"96 0 CURVE SMOOTH"
);
},
{
closed = 1;
nodes = (
"269 -251 LINE SMOOTH",
"289 -251 OFFCURVE",
"298 -244 OFFCURVE",
"303 -231 CURVE",
"369 -77 LINE SMOOTH",
"381 -48 OFFCURVE",
"376 -36 OFFCURVE",
"344 -36 CURVE SMOOTH",
"278 -36 LINE SMOOTH",
"251 -36 OFFCURVE",
"242 -42 OFFCURVE",
"235 -67 CURVE SMOOTH",
"189 -222 LINE SMOOTH",
"184 -239 OFFCURVE",
"188 -251 OFFCURVE",
"209 -251 CURVE SMOOTH"
);
}
);
width = 551;
}
);
note = Lcommaaccent;
unicode = 013B;
},
{
glyphname = Ldot;
lastChange = "2015-07-18 12:40:34 +0000";
layers = (
{
layerId = "EE9CB86C-5849-467B-879F-FFB2F6EA688D";
name = Regular;
paths = (
{
closed = 1;
nodes = (
"498 0 LINE SMOOTH",
"531 0 OFFCURVE",
"540 13 OFFCURVE",
"540 42 CURVE SMOOTH",
"540 78 LINE SMOOTH",
"540 108 OFFCURVE",
"531 121 OFFCURVE",
"498 121 CURVE SMOOTH",
"216 121 LINE",
"216 636 LINE SMOOTH",
"216 665 OFFCURVE",
"205 680 OFFCURVE",
"171 680 CURVE SMOOTH",
"96 680 LINE SMOOTH",
"63 680 OFFCURVE",
"51 665 OFFCURVE",
"51 636 CURVE SMOOTH",
"51 43 LINE SMOOTH",
"51 14 OFFCURVE",
"63 0 OFFCURVE",
"96 0 CURVE SMOOTH"
);
},
{
closed = 1;
nodes = (
"394 279 LINE SMOOTH",
"427 279 OFFCURVE",
"448 305 OFFCURVE",
"448 336 CURVE SMOOTH",
"448 358 LINE SMOOTH",
"448 390 OFFCURVE",
"426 415 OFFCURVE",
"394 415 CURVE SMOOTH",
"371 415 LINE SMOOTH",
"339 415 OFFCURVE",
"317 390 OFFCURVE",
"317 358 CURVE SMOOTH",
"317 336 LINE SMOOTH",
"317 305 OFFCURVE",
"339 279 OFFCURVE",
"371 279 CURVE SMOOTH"
);
}
);
width = 551;
}
);
note = Ldot;
unicode = 013F;
},
{
glyphname = Ldotbelow;
lastChange = "2015-07-18 12:40:35 +0000";
layers = (
{
layerId = "EE9CB86C-5849-467B-879F-FFB2F6EA688D";
name = Regular;
paths = (
{
closed = 1;
nodes = (
"498 0 LINE SMOOTH",
"531 0 OFFCURVE",
"540 13 OFFCURVE",
"540 42 CURVE SMOOTH",
"540 78 LINE SMOOTH",
"540 108 OFFCURVE",
"531 121 OFFCURVE",
"498 121 CURVE SMOOTH",
"216 121 LINE",
"216 636 LINE SMOOTH",
"216 665 OFFCURVE",
"205 680 OFFCURVE",
"171 680 CURVE SMOOTH",
"96 680 LINE SMOOTH",
"63 680 OFFCURVE",
"51 665 OFFCURVE",
"51 636 CURVE SMOOTH",
"51 43 LINE SMOOTH",
"51 14 OFFCURVE",
"63 0 OFFCURVE",
"96 0 CURVE SMOOTH"
);
},
{
closed = 1;
nodes = (
"318 -195 LINE SMOOTH",
"351 -195 OFFCURVE",
"372 -169 OFFCURVE",
"372 -138 CURVE SMOOTH",
"372 -116 LINE SMOOTH",
"372 -84 OFFCURVE",
"350 -59 OFFCURVE",
"318 -59 CURVE SMOOTH",
"294 -59 LINE SMOOTH",
"263 -59 OFFCURVE",
"240 -84 OFFCURVE",
"240 -116 CURVE SMOOTH",
"240 -138 LINE SMOOTH",
"240 -169 OFFCURVE",
"263 -195 OFFCURVE",
"294 -195 CURVE SMOOTH"
);
}
);
width = 551;
}
);
note = Ldotbelow;
unicode = 1E36;
},
{
glyphname = Ldotbelowmacron;
lastChange = "2015-07-18 12:40:34 +0000";
layers = (
{
layerId = "EE9CB86C-5849-467B-879F-FFB2F6EA688D";
name = Regular;
paths = (
{
closed = 1;
nodes = (
"498 0 LINE SMOOTH",
"531 0 OFFCURVE",
"540 13 OFFCURVE",
"540 42 CURVE SMOOTH",
"540 78 LINE SMOOTH",
"540 108 OFFCURVE",
"531 121 OFFCURVE",
"498 121 CURVE SMOOTH",
"216 121 LINE",
"216 636 LINE SMOOTH",
"216 665 OFFCURVE",
"205 680 OFFCURVE",
"171 680 CURVE SMOOTH",
"96 680 LINE SMOOTH",
"63 680 OFFCURVE",
"51 665 OFFCURVE",
"51 636 CURVE SMOOTH",
"51 43 LINE SMOOTH",
"51 14 OFFCURVE",
"63 0 OFFCURVE",
"96 0 CURVE SMOOTH"
);
},
{
closed = 1;
nodes = (
"318 -195 LINE SMOOTH",
"351 -195 OFFCURVE",
"372 -169 OFFCURVE",
"372 -138 CURVE SMOOTH",
"372 -116 LINE SMOOTH",
"372 -84 OFFCURVE",
"350 -59 OFFCURVE",
"318 -59 CURVE SMOOTH",
"294 -59 LINE SMOOTH",
"263 -59 OFFCURVE",
"240 -84 OFFCURVE",
"240 -116 CURVE SMOOTH",
"240 -138 LINE SMOOTH",
"240 -169 OFFCURVE",
"263 -195 OFFCURVE",
"294 -195 CURVE SMOOTH"
);
},
{
closed = 1;
nodes = (
"264 753 LINE SMOOTH",
"297 753 OFFCURVE",
"306 766 OFFCURVE",
"306 796 CURVE SMOOTH",
"306 832 LINE SMOOTH",
"306 861 OFFCURVE",
"297 875 OFFCURVE",
"264 875 CURVE SMOOTH",
"-7 875 LINE SMOOTH",
"-40 875 OFFCURVE",
"-49 861 OFFCURVE",
"-49 832 CURVE SMOOTH",
"-49 796 LINE SMOOTH",
"-49 766 OFFCURVE",
"-40 753 OFFCURVE",
"-7 753 CURVE SMOOTH"
);
}
);
width = 551;
}
);
note = Ldotbelowmacron;
unicode = 1E38;
},
{
glyphname = Llinebelow;
lastChange = "2015-07-18 12:40:34 +0000";
layers = (
{
layerId = "EE9CB86C-5849-467B-879F-FFB2F6EA688D";
name = Regular;
paths = (
{
closed = 1;
nodes = (
"498 0 LINE SMOOTH",
"531 0 OFFCURVE",
"540 13 OFFCURVE",
"540 42 CURVE SMOOTH",
"540 78 LINE SMOOTH",
"540 108 OFFCURVE",
"531 121 OFFCURVE",
"498 121 CURVE SMOOTH",
"216 121 LINE",
"216 636 LINE SMOOTH",
"216 665 OFFCURVE",
"205 680 OFFCURVE",
"171 680 CURVE SMOOTH",
"96 680 LINE SMOOTH",
"63 680 OFFCURVE",
"51 665 OFFCURVE",
"51 636 CURVE SMOOTH",
"51 43 LINE SMOOTH",
"51 14 OFFCURVE",
"63 0 OFFCURVE",
"96 0 CURVE SMOOTH"
);
},
{
closed = 1;
nodes = (
"404 -174 LINE SMOOTH",
"437 -174 OFFCURVE",
"446 -161 OFFCURVE",
"446 -132 CURVE SMOOTH",
"446 -107 LINE SMOOTH",
"446 -78 OFFCURVE",
"437 -64 OFFCURVE",
"404 -64 CURVE SMOOTH",
"152 -64 LINE SMOOTH",
"119 -64 OFFCURVE",
"110 -78 OFFCURVE",
"110 -107 CURVE SMOOTH",
"110 -132 LINE SMOOTH",
"110 -161 OFFCURVE",
"119 -174 OFFCURVE",
"152 -174 CURVE SMOOTH"
);
}
);
width = 551;
}
);
note = Llinebelow;
unicode = 1E3A;
},
{
glyphname = Lslash;
lastChange = "2015-07-18 12:40:35 +0000";
layers = (
{
layerId = "EE9CB86C-5849-467B-879F-FFB2F6EA688D";
name = Regular;
paths = (
{
closed = 1;
nodes = (
"582 0 LINE SMOOTH",
"615 0 OFFCURVE",
"624 13 OFFCURVE",
"624 42 CURVE SMOOTH",
"624 78 LINE SMOOTH",
"624 108 OFFCURVE",
"615 121 OFFCURVE",
"582 121 CURVE SMOOTH",
"300 121 LINE",
"300 636 LINE SMOOTH",
"300 665 OFFCURVE",
"288 680 OFFCURVE",
"254 680 CURVE SMOOTH",
"180 680 LINE SMOOTH",
"146 680 OFFCURVE",
"135 665 OFFCURVE",
"135 636 CURVE SMOOTH",
"135 43 LINE SMOOTH",
"135 14 OFFCURVE",
"146 0 OFFCURVE",
"180 0 CURVE SMOOTH"
);
},
{
closed = 1;
nodes = (
"415 391 LINE SMOOTH",
"428 398 OFFCURVE",
"433 406 OFFCURVE",
"425 419 CURVE SMOOTH",
"388 480 LINE SMOOTH",
"379 494 OFFCURVE",
"371 496 OFFCURVE",
"358 488 CURVE SMOOTH",
"14 292 LINE SMOOTH",
"1 285 OFFCURVE",
"-3 276 OFFCURVE",
"6 262 CURVE",
"42 201 LINE SMOOTH",
"50 187 OFFCURVE",
"59 187 OFFCURVE",
"72 195 CURVE SMOOTH"
);
}
);
width = 635;
}
);
note = Lslash;
unicode = 0141;
},
{
glyphname = M;
lastChange = "2015-07-18 12:40:29 +0000";
layers = (
{
layerId = "EE9CB86C-5849-467B-879F-FFB2F6EA688D";
name = Regular;
paths = (
{
closed = 1;
nodes = (
"157 0 LINE SMOOTH",
"191 0 OFFCURVE",
"203 14 OFFCURVE",
"203 43 CURVE SMOOTH",
"203 421 LINE",
"336 122 LINE SMOOTH",
"347 98 OFFCURVE",
"356 84 OFFCURVE",
"388 84 CURVE SMOOTH",
"421 84 OFFCURVE",
"429 98 OFFCURVE",
"440 122 CURVE SMOOTH",
"574 421 LINE",
"574 43 LINE SMOOTH",
"574 14 OFFCURVE",
"586 0 OFFCURVE",
"620 0 CURVE SMOOTH",
"681 0 LINE SMOOTH",
"714 0 OFFCURVE",
"726 14 OFFCURVE",
"726 43 CURVE SMOOTH",
"726 637 LINE SMOOTH",
"726 666 OFFCURVE",
"714 680 OFFCURVE",
"680 680 CURVE SMOOTH",
"606 680 LINE SMOOTH",
"584 680 OFFCURVE",
"570 677 OFFCURVE",
"562 658 CURVE SMOOTH",
"388 250 LINE",
"215 658 LINE SMOOTH",
"207 677 OFFCURVE",
"193 680 OFFCURVE",
"171 680 CURVE SMOOTH",
"97 680 LINE SMOOTH",
"63 680 OFFCURVE",
"51 666 OFFCURVE",
"51 637 CURVE SMOOTH",
"51 43 LINE SMOOTH",
"51 14 OFFCURVE",
"63 0 OFFCURVE",
"96 0 CURVE SMOOTH"
);
}
);
width = 777;
}
);
note = M;
unicode = 004D;
},
{
glyphname = Mdotbelow;
lastChange = "2015-07-18 12:40:34 +0000";
layers = (
{
layerId = "EE9CB86C-5849-467B-879F-FFB2F6EA688D";
name = Regular;
paths = (
{
closed = 1;
nodes = (
"157 0 LINE SMOOTH",
"191 0 OFFCURVE",
"203 14 OFFCURVE",
"203 43 CURVE SMOOTH",
"203 421 LINE",
"336 122 LINE SMOOTH",
"347 98 OFFCURVE",
"356 84 OFFCURVE",
"388 84 CURVE SMOOTH",
"421 84 OFFCURVE",
"429 98 OFFCURVE",
"440 122 CURVE SMOOTH",
"574 421 LINE",
"574 43 LINE SMOOTH",
"574 14 OFFCURVE",
"586 0 OFFCURVE",
"620 0 CURVE SMOOTH",
"681 0 LINE SMOOTH",
"714 0 OFFCURVE",
"726 14 OFFCURVE",
"726 43 CURVE SMOOTH",
"726 637 LINE SMOOTH",
"726 666 OFFCURVE",
"714 680 OFFCURVE",
"680 680 CURVE SMOOTH",
"606 680 LINE SMOOTH",
"584 680 OFFCURVE",
"570 677 OFFCURVE",
"562 658 CURVE SMOOTH",
"388 250 LINE",
"215 658 LINE SMOOTH",
"207 677 OFFCURVE",
"193 680 OFFCURVE",
"171 680 CURVE SMOOTH",
"97 680 LINE SMOOTH",
"63 680 OFFCURVE",
"51 666 OFFCURVE",
"51 637 CURVE SMOOTH",
"51 43 LINE SMOOTH",
"51 14 OFFCURVE",
"63 0 OFFCURVE",
"96 0 CURVE SMOOTH"
);
},
{
closed = 1;
nodes = (
"405 -195 LINE SMOOTH",
"438 -195 OFFCURVE",
"459 -169 OFFCURVE",
"459 -138 CURVE SMOOTH",
"459 -116 LINE SMOOTH",
"459 -84 OFFCURVE",
"437 -59 OFFCURVE",
"405 -59 CURVE SMOOTH",
"381 -59 LINE SMOOTH",
"350 -59 OFFCURVE",
"327 -84 OFFCURVE",
"327 -116 CURVE SMOOTH",
"327 -138 LINE SMOOTH",
"327 -169 OFFCURVE",
"350 -195 OFFCURVE",
"381 -195 CURVE SMOOTH"
);
}
);
width = 777;
}
);
note = Mdotbelow;
unicode = 1E42;
},
{
glyphname = N;
lastChange = "2015-07-18 12:40:29 +0000";
layers = (
{
layerId = "EE9CB86C-5849-467B-879F-FFB2F6EA688D";
name = Regular;
paths = (
{
closed = 1;
nodes = (
"171 0 LINE SMOOTH",
"205 0 OFFCURVE",
"216 14 OFFCURVE",
"216 43 CURVE SMOOTH",
"216 416 LINE",
"497 22 LINE SMOOTH",
"510 4 OFFCURVE",
"519 0 OFFCURVE",
"540 0 CURVE SMOOTH",
"603 0 LINE SMOOTH",
"637 0 OFFCURVE",
"648 14 OFFCURVE",
"648 43 CURVE SMOOTH",
"648 636 LINE SMOOTH",
"648 665 OFFCURVE",
"637 680 OFFCURVE",
"603 680 CURVE SMOOTH",
"528 680 LINE SMOOTH",
"495 680 OFFCURVE",
"483 665 OFFCURVE",
"483 636 CURVE SMOOTH",
"483 263 LINE",
"203 658 LINE SMOOTH",
"190 676 OFFCURVE",
"181 680 OFFCURVE",
"159 680 CURVE SMOOTH",
"97 680 LINE SMOOTH",
"63 680 OFFCURVE",
"51 666 OFFCURVE",
"51 637 CURVE SMOOTH",
"51 43 LINE SMOOTH",
"51 14 OFFCURVE",
"63 0 OFFCURVE",
"96 0 CURVE SMOOTH"
);
}
);
width = 699;
}
);
note = N;
unicode = 004E;
},
{
glyphname = Nacute;
lastChange = "2015-07-18 12:40:36 +0000";
layers = (
{
layerId = "EE9CB86C-5849-467B-879F-FFB2F6EA688D";
name = Regular;
paths = (
{
closed = 1;
nodes = (
"171 0 LINE SMOOTH",
"205 0 OFFCURVE",
"216 14 OFFCURVE",
"216 43 CURVE SMOOTH",
"216 416 LINE",
"497 22 LINE SMOOTH",
"510 4 OFFCURVE",
"519 0 OFFCURVE",
"540 0 CURVE SMOOTH",
"603 0 LINE SMOOTH",
"637 0 OFFCURVE",
"648 14 OFFCURVE",
"648 43 CURVE SMOOTH",
"648 636 LINE SMOOTH",
"648 665 OFFCURVE",
"637 680 OFFCURVE",
"603 680 CURVE SMOOTH",
"528 680 LINE SMOOTH",
"495 680 OFFCURVE",
"483 665 OFFCURVE",
"483 636 CURVE SMOOTH",
"483 263 LINE",
"203 658 LINE SMOOTH",
"190 676 OFFCURVE",
"181 680 OFFCURVE",
"159 680 CURVE SMOOTH",
"97 680 LINE SMOOTH",
"63 680 OFFCURVE",
"51 666 OFFCURVE",
"51 637 CURVE SMOOTH",
"51 43 LINE SMOOTH",
"51 14 OFFCURVE",
"63 0 OFFCURVE",
"96 0 CURVE SMOOTH"
);
},
{
closed = 1;
nodes = (
"369 735 LINE SMOOTH",
"402 735 OFFCURVE",
"410 741 OFFCURVE",
"422 763 CURVE SMOOTH",
"487 885 LINE SMOOTH",
"501 911 OFFCURVE",
"488 924 OFFCURVE",
"461 924 CURVE SMOOTH",
"364 924 LINE SMOOTH",
"333 924 OFFCURVE",
"327 916 OFFCURVE",
"319 895 CURVE SMOOTH",
"274 769 LINE SMOOTH",
"267 749 OFFCURVE",
"273 735 OFFCURVE",
"299 735 CURVE SMOOTH"
);
}
);
width = 699;
}
);
note = Nacute;
unicode = 0143;
},
{
glyphname = Ncaron;
lastChange = "2015-07-18 12:40:34 +0000";
layers = (
{
layerId = "EE9CB86C-5849-467B-879F-FFB2F6EA688D";
name = Regular;
paths = (
{
closed = 1;
nodes = (
"171 0 LINE SMOOTH",
"205 0 OFFCURVE",
"216 14 OFFCURVE",
"216 43 CURVE SMOOTH",
"216 416 LINE",
"497 22 LINE SMOOTH",
"510 4 OFFCURVE",
"519 0 OFFCURVE",
"540 0 CURVE SMOOTH",
"603 0 LINE SMOOTH",
"637 0 OFFCURVE",
"648 14 OFFCURVE",
"648 43 CURVE SMOOTH",
"648 636 LINE SMOOTH",
"648 665 OFFCURVE",
"637 680 OFFCURVE",
"603 680 CURVE SMOOTH",
"528 680 LINE SMOOTH",
"495 680 OFFCURVE",
"483 665 OFFCURVE",
"483 636 CURVE SMOOTH",
"483 263 LINE",
"203 658 LINE SMOOTH",
"190 676 OFFCURVE",
"181 680 OFFCURVE",
"159 680 CURVE SMOOTH",
"97 680 LINE SMOOTH",
"63 680 OFFCURVE",
"51 666 OFFCURVE",
"51 637 CURVE SMOOTH",
"51 43 LINE SMOOTH",
"51 14 OFFCURVE",
"63 0 OFFCURVE",
"96 0 CURVE SMOOTH"
);
},
{
closed = 1;
nodes = (
"389 740 LINE SMOOTH",
"418 740 OFFCURVE",
"422 746 OFFCURVE",
"435 764 CURVE SMOOTH",
"535 897 LINE SMOOTH",
"553 920 OFFCURVE",
"547 936 OFFCURVE",
"521 936 CURVE SMOOTH",
"456 936 LINE SMOOTH",
"427 936 OFFCURVE",
"420 931 OFFCURVE",
"409 914 CURVE SMOOTH",
"350 825 LINE",
"290 914 LINE SMOOTH",
"279 931 OFFCURVE",
"272 936 OFFCURVE",
"243 936 CURVE SMOOTH",
"178 936 LINE SMOOTH",
"152 936 OFFCURVE",
"146 920 OFFCURVE",
"164 897 CURVE SMOOTH",
"264 764 LINE SMOOTH",
"278 746 OFFCURVE",
"281 740 OFFCURVE",
"310 740 CURVE SMOOTH"
);
}
);
width = 699;
}
);
note = Ncaron;
unicode = 0147;
},
{
glyphname = Ncommaaccent;
lastChange = "2015-07-18 12:40:33 +0000";
layers = (
{
layerId = "EE9CB86C-5849-467B-879F-FFB2F6EA688D";
name = Regular;
paths = (
{
closed = 1;
nodes = (
"171 0 LINE SMOOTH",
"205 0 OFFCURVE",
"216 14 OFFCURVE",
"216 43 CURVE SMOOTH",
"216 416 LINE",
"497 22 LINE SMOOTH",
"510 4 OFFCURVE",
"519 0 OFFCURVE",
"540 0 CURVE SMOOTH",
"603 0 LINE SMOOTH",
"637 0 OFFCURVE",
"648 14 OFFCURVE",
"648 43 CURVE SMOOTH",
"648 636 LINE SMOOTH",
"648 665 OFFCURVE",
"637 680 OFFCURVE",
"603 680 CURVE SMOOTH",
"528 680 LINE SMOOTH",
"495 680 OFFCURVE",
"483 665 OFFCURVE",
"483 636 CURVE SMOOTH",
"483 263 LINE",
"203 658 LINE SMOOTH",
"190 676 OFFCURVE",
"181 680 OFFCURVE",
"159 680 CURVE SMOOTH",
"97 680 LINE SMOOTH",
"63 680 OFFCURVE",
"51 666 OFFCURVE",
"51 637 CURVE SMOOTH",
"51 43 LINE SMOOTH",
"51 14 OFFCURVE",
"63 0 OFFCURVE",
"96 0 CURVE SMOOTH"
);
},
{
closed = 1;
nodes = (
"331 -251 LINE SMOOTH",
"351 -251 OFFCURVE",
"360 -244 OFFCURVE",
"365 -231 CURVE",
"431 -77 LINE SMOOTH",
"443 -48 OFFCURVE",
"438 -36 OFFCURVE",
"406 -36 CURVE SMOOTH",
"340 -36 LINE SMOOTH",
"313 -36 OFFCURVE",
"304 -42 OFFCURVE",
"297 -67 CURVE SMOOTH",
"251 -222 LINE SMOOTH",
"246 -239 OFFCURVE",
"250 -251 OFFCURVE",
"271 -251 CURVE SMOOTH"
);
}
);
width = 699;
}
);
note = Ncommaaccent;
unicode = 0145;
},
{
glyphname = Ndotaccent;
lastChange = "2015-07-18 12:40:35 +0000";
layers = (
{
layerId = "EE9CB86C-5849-467B-879F-FFB2F6EA688D";
name = Regular;
paths = (
{
closed = 1;
nodes = (
"171 0 LINE SMOOTH",
"205 0 OFFCURVE",
"216 14 OFFCURVE",
"216 43 CURVE SMOOTH",
"216 416 LINE",
"497 22 LINE SMOOTH",
"510 4 OFFCURVE",
"519 0 OFFCURVE",
"540 0 CURVE SMOOTH",
"603 0 LINE SMOOTH",
"637 0 OFFCURVE",
"648 14 OFFCURVE",
"648 43 CURVE SMOOTH",
"648 636 LINE SMOOTH",
"648 665 OFFCURVE",
"637 680 OFFCURVE",
"603 680 CURVE SMOOTH",
"528 680 LINE SMOOTH",
"495 680 OFFCURVE",
"483 665 OFFCURVE",
"483 636 CURVE SMOOTH",
"483 263 LINE",
"203 658 LINE SMOOTH",
"190 676 OFFCURVE",
"181 680 OFFCURVE",
"159 680 CURVE SMOOTH",
"97 680 LINE SMOOTH",
"63 680 OFFCURVE",
"51 666 OFFCURVE",
"51 637 CURVE SMOOTH",
"51 43 LINE SMOOTH",
"51 14 OFFCURVE",
"63 0 OFFCURVE",
"96 0 CURVE SMOOTH"
);
},
{
closed = 1;
nodes = (
"366 749 LINE SMOOTH",
"398 749 OFFCURVE",
"420 775 OFFCURVE",
"420 806 CURVE SMOOTH",
"420 828 LINE SMOOTH",
"420 860 OFFCURVE",
"397 885 OFFCURVE",
"366 885 CURVE SMOOTH",
"342 885 LINE SMOOTH",
"310 885 OFFCURVE",
"288 860 OFFCURVE",
"288 828 CURVE SMOOTH",
"288 806 LINE SMOOTH",
"288 775 OFFCURVE",
"310 749 OFFCURVE",
"342 749 CURVE SMOOTH"
);
}
);
width = 699;
}
);
note = Ndotaccent;
unicode = 1E44;
},
{
glyphname = Ndotbelow;
lastChange = "2015-07-18 12:40:36 +0000";
layers = (
{
layerId = "EE9CB86C-5849-467B-879F-FFB2F6EA688D";
name = Regular;
paths = (
{
closed = 1;
nodes = (
"171 0 LINE SMOOTH",
"205 0 OFFCURVE",
"216 14 OFFCURVE",
"216 43 CURVE SMOOTH",
"216 416 LINE",
"497 22 LINE SMOOTH",
"510 4 OFFCURVE",
"519 0 OFFCURVE",
"540 0 CURVE SMOOTH",
"603 0 LINE SMOOTH",
"637 0 OFFCURVE",
"648 14 OFFCURVE",
"648 43 CURVE SMOOTH",
"648 636 LINE SMOOTH",
"648 665 OFFCURVE",
"637 680 OFFCURVE",
"603 680 CURVE SMOOTH",
"528 680 LINE SMOOTH",
"495 680 OFFCURVE",
"483 665 OFFCURVE",
"483 636 CURVE SMOOTH",
"483 263 LINE",
"203 658 LINE SMOOTH",
"190 676 OFFCURVE",
"181 680 OFFCURVE",
"159 680 CURVE SMOOTH",
"97 680 LINE SMOOTH",
"63 680 OFFCURVE",
"51 666 OFFCURVE",
"51 637 CURVE SMOOTH",
"51 43 LINE SMOOTH",
"51 14 OFFCURVE",
"63 0 OFFCURVE",
"96 0 CURVE SMOOTH"
);
},
{
closed = 1;
nodes = (
"373 -195 LINE SMOOTH",
"406 -195 OFFCURVE",
"427 -169 OFFCURVE",
"427 -138 CURVE SMOOTH",
"427 -116 LINE SMOOTH",
"427 -84 OFFCURVE",
"405 -59 OFFCURVE",
"373 -59 CURVE SMOOTH",
"349 -59 LINE SMOOTH",
"318 -59 OFFCURVE",
"295 -84 OFFCURVE",
"295 -116 CURVE SMOOTH",
"295 -138 LINE SMOOTH",
"295 -169 OFFCURVE",
"318 -195 OFFCURVE",
"349 -195 CURVE SMOOTH"
);
}
);
width = 699;
}
);
note = Ndotbelow;
unicode = 1E46;
},
{
glyphname = Eng;
lastChange = "2015-07-18 12:40:29 +0000";
layers = (
{
layerId = "EE9CB86C-5849-467B-879F-FFB2F6EA688D";
name = Regular;
paths = (
{
closed = 1;
nodes = (
"575 -244 OFFCURVE",
"648 -156 OFFCURVE",
"648 -30 CURVE SMOOTH",
"648 636 LINE SMOOTH",
"648 665 OFFCURVE",
"637 680 OFFCURVE",
"603 680 CURVE SMOOTH",
"528 680 LINE SMOOTH",
"495 680 OFFCURVE",
"483 665 OFFCURVE",
"483 636 CURVE SMOOTH",
"483 263 LINE",
"203 658 LINE SMOOTH",
"190 676 OFFCURVE",
"181 680 OFFCURVE",
"159 680 CURVE SMOOTH",
"97 680 LINE SMOOTH",
"63 680 OFFCURVE",
"51 666 OFFCURVE",
"51 637 CURVE SMOOTH",
"51 43 LINE SMOOTH",
"51 14 OFFCURVE",
"63 0 OFFCURVE",
"96 0 CURVE SMOOTH",
"171 0 LINE SMOOTH",
"205 0 OFFCURVE",
"216 14 OFFCURVE",
"216 43 CURVE SMOOTH",
"216 416 LINE",
"483 42 LINE",
"483 -29 LINE SMOOTH",
"483 -92 OFFCURVE",
"456 -125 OFFCURVE",
"393 -125 CURVE SMOOTH",
"347 -125 OFFCURVE",
"306 -111 OFFCURVE",
"278 -92 CURVE SMOOTH",
"265 -83 OFFCURVE",
"256 -83 OFFCURVE",
"247 -98 CURVE SMOOTH",
"211 -159 LINE SMOOTH",
"203 -173 OFFCURVE",
"203 -184 OFFCURVE",
"215 -192 CURVE SMOOTH",
"266 -225 OFFCURVE",
"333 -244 OFFCURVE",
"419 -244 CURVE SMOOTH"
);
}
);
width = 699;
}
);
note = Eng;
unicode = 014A;
},
{
glyphname = Nlinebelow;
lastChange = "2015-07-18 12:40:34 +0000";
layers = (
{
layerId = "EE9CB86C-5849-467B-879F-FFB2F6EA688D";
name = Regular;
paths = (
{
closed = 1;
nodes = (
"171 0 LINE SMOOTH",
"205 0 OFFCURVE",
"216 14 OFFCURVE",
"216 43 CURVE SMOOTH",
"216 416 LINE",
"497 22 LINE SMOOTH",
"510 4 OFFCURVE",
"519 0 OFFCURVE",
"540 0 CURVE SMOOTH",
"603 0 LINE SMOOTH",
"637 0 OFFCURVE",
"648 14 OFFCURVE",
"648 43 CURVE SMOOTH",
"648 636 LINE SMOOTH",
"648 665 OFFCURVE",
"637 680 OFFCURVE",
"603 680 CURVE SMOOTH",
"528 680 LINE SMOOTH",
"495 680 OFFCURVE",
"483 665 OFFCURVE",
"483 636 CURVE SMOOTH",
"483 263 LINE",
"203 658 LINE SMOOTH",
"190 676 OFFCURVE",
"181 680 OFFCURVE",
"159 680 CURVE SMOOTH",
"97 680 LINE SMOOTH",
"63 680 OFFCURVE",
"51 666 OFFCURVE",
"51 637 CURVE SMOOTH",
"51 43 LINE SMOOTH",
"51 14 OFFCURVE",
"63 0 OFFCURVE",
"96 0 CURVE SMOOTH"
);
},
{
closed = 1;
nodes = (
"476 -174 LINE SMOOTH",
"509 -174 OFFCURVE",
"518 -161 OFFCURVE",
"518 -132 CURVE SMOOTH",
"518 -107 LINE SMOOTH",
"518 -78 OFFCURVE",
"509 -64 OFFCURVE",
"476 -64 CURVE SMOOTH",
"224 -64 LINE SMOOTH",
"191 -64 OFFCURVE",
"182 -78 OFFCURVE",
"182 -107 CURVE SMOOTH",
"182 -132 LINE SMOOTH",
"182 -161 OFFCURVE",
"191 -174 OFFCURVE",
"224 -174 CURVE SMOOTH"
);
}
);
width = 699;
}
);
note = Nlinebelow;
unicode = 1E48;
},
{
glyphname = Ntilde;
lastChange = "2015-07-18 12:40:34 +0000";
layers = (
{
layerId = "EE9CB86C-5849-467B-879F-FFB2F6EA688D";
name = Regular;
paths = (
{
closed = 1;
nodes = (
"171 0 LINE SMOOTH",
"205 0 OFFCURVE",
"216 14 OFFCURVE",
"216 43 CURVE SMOOTH",
"216 416 LINE",
"497 22 LINE SMOOTH",
"510 4 OFFCURVE",
"519 0 OFFCURVE",
"540 0 CURVE SMOOTH",
"603 0 LINE SMOOTH",
"637 0 OFFCURVE",
"648 14 OFFCURVE",
"648 43 CURVE SMOOTH",
"648 636 LINE SMOOTH",
"648 665 OFFCURVE",
"637 680 OFFCURVE",
"603 680 CURVE SMOOTH",
"528 680 LINE SMOOTH",
"495 680 OFFCURVE",
"483 665 OFFCURVE",
"483 636 CURVE SMOOTH",
"483 263 LINE",
"203 658 LINE SMOOTH",
"190 676 OFFCURVE",
"181 680 OFFCURVE",
"159 680 CURVE SMOOTH",
"97 680 LINE SMOOTH",
"63 680 OFFCURVE",
"51 666 OFFCURVE",
"51 637 CURVE SMOOTH",
"51 43 LINE SMOOTH",
"51 14 OFFCURVE",
"63 0 OFFCURVE",
"96 0 CURVE SMOOTH"
);
},
{
closed = 1;
nodes = (
"502 754 OFFCURVE",
"534 779 OFFCURVE",
"569 831 CURVE SMOOTH",
"588 858 OFFCURVE",
"585 872 OFFCURVE",
"554 896 CURVE SMOOTH",
"522 920 OFFCURVE",
"504 924 OFFCURVE",
"489 905 CURVE SMOOTH",
"468 879 OFFCURVE",
"456 870 OFFCURVE",
"430 870 CURVE SMOOTH",
"378 870 OFFCURVE",
"339 921 OFFCURVE",
"259 921 CURVE SMOOTH",
"205 921 OFFCURVE",
"174 892 OFFCURVE",
"141 848 CURVE SMOOTH",
"122 822 OFFCURVE",
"125 808 OFFCURVE",
"154 785 CURVE SMOOTH",
"185 760 OFFCURVE",
"203 755 OFFCURVE",
"218 773 CURVE SMOOTH",
"238 796 OFFCURVE",
"250 805 OFFCURVE",
"276 805 CURVE SMOOTH",
"328 805 OFFCURVE",
"378 754 OFFCURVE",
"443 754 CURVE SMOOTH"
);
}
);
width = 699;
}
);
note = Ntilde;
unicode = 00D1;
},
{
glyphname = O;
lastChange = "2015-07-18 12:40:35 +0000";
layers = (
{
layerId = "EE9CB86C-5849-467B-879F-FFB2F6EA688D";
name = Regular;
paths = (
{
closed = 1;
nodes = (
"607 -15 OFFCURVE",
"728 116 OFFCURVE",
"728 340 CURVE SMOOTH",
"728 564 OFFCURVE",
"607 695 OFFCURVE",
"380 695 CURVE SMOOTH",
"152 695 OFFCURVE",
"31 564 OFFCURVE",
"31 340 CURVE SMOOTH",
"31 116 OFFCURVE",
"152 -15 OFFCURVE",
"380 -15 CURVE SMOOTH"
);
},
{
closed = 1;
nodes = (
"257 104 OFFCURVE",
"195 185 OFFCURVE",
"195 340 CURVE SMOOTH",
"195 495 OFFCURVE",
"257 576 OFFCURVE",
"380 576 CURVE SMOOTH",
"502 576 OFFCURVE",
"564 495 OFFCURVE",
"564 340 CURVE SMOOTH",
"564 185 OFFCURVE",
"502 104 OFFCURVE",
"380 104 CURVE SMOOTH"
);
}
);
width = 759;
}
);
note = O;
unicode = 004F;
},
{
glyphname = Oacute;
lastChange = "2015-07-18 12:40:36 +0000";
layers = (
{
layerId = "EE9CB86C-5849-467B-879F-FFB2F6EA688D";
name = Regular;
paths = (
{
closed = 1;
nodes = (
"607 -15 OFFCURVE",
"728 116 OFFCURVE",
"728 340 CURVE SMOOTH",
"728 564 OFFCURVE",
"607 695 OFFCURVE",
"380 695 CURVE SMOOTH",
"152 695 OFFCURVE",
"31 564 OFFCURVE",
"31 340 CURVE SMOOTH",
"31 116 OFFCURVE",
"152 -15 OFFCURVE",
"380 -15 CURVE SMOOTH"
);
},
{
closed = 1;
nodes = (
"257 104 OFFCURVE",
"195 185 OFFCURVE",
"195 340 CURVE SMOOTH",
"195 495 OFFCURVE",
"257 576 OFFCURVE",
"380 576 CURVE SMOOTH",
"502 576 OFFCURVE",
"564 495 OFFCURVE",
"564 340 CURVE SMOOTH",
"564 185 OFFCURVE",
"502 104 OFFCURVE",
"380 104 CURVE SMOOTH"
);
},
{
closed = 1;
nodes = (
"405 747 LINE SMOOTH",
"438 747 OFFCURVE",
"446 753 OFFCURVE",
"458 775 CURVE SMOOTH",
"523 897 LINE SMOOTH",
"537 923 OFFCURVE",
"524 936 OFFCURVE",
"497 936 CURVE SMOOTH",
"400 936 LINE SMOOTH",
"369 936 OFFCURVE",
"363 928 OFFCURVE",
"355 907 CURVE SMOOTH",
"310 781 LINE SMOOTH",
"303 761 OFFCURVE",
"309 747 OFFCURVE",
"335 747 CURVE SMOOTH"
);
}
);
width = 759;
}
);
note = Oacute;
unicode = 00D3;
},
{
glyphname = Obreve;
lastChange = "2015-07-18 12:40:36 +0000";
layers = (
{
layerId = "EE9CB86C-5849-467B-879F-FFB2F6EA688D";
name = Regular;
paths = (
{
closed = 1;
nodes = (
"607 -15 OFFCURVE",
"728 116 OFFCURVE",
"728 340 CURVE SMOOTH",
"728 564 OFFCURVE",
"607 695 OFFCURVE",
"380 695 CURVE SMOOTH",
"152 695 OFFCURVE",
"31 564 OFFCURVE",
"31 340 CURVE SMOOTH",
"31 116 OFFCURVE",
"152 -15 OFFCURVE",
"380 -15 CURVE SMOOTH"
);
},
{
closed = 1;
nodes = (
"257 104 OFFCURVE",
"195 185 OFFCURVE",
"195 340 CURVE SMOOTH",
"195 495 OFFCURVE",
"257 576 OFFCURVE",
"380 576 CURVE SMOOTH",
"502 576 OFFCURVE",
"564 495 OFFCURVE",
"564 340 CURVE SMOOTH",
"564 185 OFFCURVE",
"502 104 OFFCURVE",
"380 104 CURVE SMOOTH"
);
},
{
closed = 1;
nodes = (
"499 738 OFFCURVE",
"557 810 OFFCURVE",
"557 906 CURVE SMOOTH",
"557 917 OFFCURVE",
"551 924 OFFCURVE",
"541 924 CURVE SMOOTH",
"454 924 LINE SMOOTH",
"440 924 OFFCURVE",
"437 917 OFFCURVE",
"437 905 CURVE SMOOTH",
"437 868 OFFCURVE",
"422 843 OFFCURVE",
"380 843 CURVE SMOOTH",
"337 843 OFFCURVE",
"323 868 OFFCURVE",
"323 905 CURVE SMOOTH",
"323 917 OFFCURVE",
"320 924 OFFCURVE",
"306 924 CURVE SMOOTH",
"219 924 LINE SMOOTH",
"209 924 OFFCURVE",
"203 917 OFFCURVE",
"203 906 CURVE SMOOTH",
"203 810 OFFCURVE",
"260 738 OFFCURVE",
"380 738 CURVE SMOOTH"
);
}
);
width = 759;
}
);
note = Obreve;
unicode = 014E;
},
{
glyphname = Ocaron;
lastChange = "2015-07-18 12:40:34 +0000";
layers = (
{
layerId = "EE9CB86C-5849-467B-879F-FFB2F6EA688D";
name = Regular;
paths = (
{
closed = 1;
nodes = (
"607 -15 OFFCURVE",
"728 116 OFFCURVE",
"728 340 CURVE SMOOTH",
"728 564 OFFCURVE",
"607 695 OFFCURVE",
"380 695 CURVE SMOOTH",
"152 695 OFFCURVE",
"31 564 OFFCURVE",
"31 340 CURVE SMOOTH",
"31 116 OFFCURVE",
"152 -15 OFFCURVE",
"380 -15 CURVE SMOOTH"
);
},
{
closed = 1;
nodes = (
"257 104 OFFCURVE",
"195 185 OFFCURVE",
"195 340 CURVE SMOOTH",
"195 495 OFFCURVE",
"257 576 OFFCURVE",
"380 576 CURVE SMOOTH",
"502 576 OFFCURVE",
"564 495 OFFCURVE",
"564 340 CURVE SMOOTH",
"564 185 OFFCURVE",
"502 104 OFFCURVE",
"380 104 CURVE SMOOTH"
);
},
{
closed = 1;
nodes = (
"419 740 LINE SMOOTH",
"448 740 OFFCURVE",
"452 746 OFFCURVE",
"465 764 CURVE SMOOTH",
"565 897 LINE SMOOTH",
"583 920 OFFCURVE",
"577 936 OFFCURVE",
"551 936 CURVE SMOOTH",
"486 936 LINE SMOOTH",
"457 936 OFFCURVE",
"450 931 OFFCURVE",
"439 914 CURVE SMOOTH",
"380 825 LINE",
"320 914 LINE SMOOTH",
"309 931 OFFCURVE",
"302 936 OFFCURVE",
"273 936 CURVE SMOOTH",
"208 936 LINE SMOOTH",
"182 936 OFFCURVE",
"176 920 OFFCURVE",
"194 897 CURVE SMOOTH",
"294 764 LINE SMOOTH",
"308 746 OFFCURVE",
"311 740 OFFCURVE",
"340 740 CURVE SMOOTH"
);
}
);
width = 759;
}
);
note = Ocaron;
unicode = 01D1;
},
{
glyphname = Ocircumflex;
lastChange = "2015-07-18 12:40:36 +0000";
layers = (
{
layerId = "EE9CB86C-5849-467B-879F-FFB2F6EA688D";
name = Regular;
paths = (
{
closed = 1;
nodes = (
"607 -15 OFFCURVE",
"728 116 OFFCURVE",
"728 340 CURVE SMOOTH",
"728 564 OFFCURVE",
"607 695 OFFCURVE",
"380 695 CURVE SMOOTH",
"152 695 OFFCURVE",
"31 564 OFFCURVE",
"31 340 CURVE SMOOTH",
"31 116 OFFCURVE",
"152 -15 OFFCURVE",
"380 -15 CURVE SMOOTH"
);
},
{
closed = 1;
nodes = (
"257 104 OFFCURVE",
"195 185 OFFCURVE",
"195 340 CURVE SMOOTH",
"195 495 OFFCURVE",
"257 576 OFFCURVE",
"380 576 CURVE SMOOTH",
"502 576 OFFCURVE",
"564 495 OFFCURVE",
"564 340 CURVE SMOOTH",
"564 185 OFFCURVE",
"502 104 OFFCURVE",
"380 104 CURVE SMOOTH"
);
},
{
closed = 1;
nodes = (
"273 746 LINE SMOOTH",
"302 746 OFFCURVE",
"310 753 OFFCURVE",
"321 770 CURVE SMOOTH",
"380 858 LINE",
"439 770 LINE SMOOTH",
"450 753 OFFCURVE",
"458 746 OFFCURVE",
"487 746 CURVE SMOOTH",
"548 746 LINE SMOOTH",
"574 746 OFFCURVE",
"583 762 OFFCURVE",
"565 786 CURVE SMOOTH",
"465 919 LINE SMOOTH",
"452 936 OFFCURVE",
"448 943 OFFCURVE",
"419 943 CURVE SMOOTH",
"340 943 LINE SMOOTH",
"311 943 OFFCURVE",
"308 936 OFFCURVE",
"294 919 CURVE",
"194 786 LINE SMOOTH",
"176 762 OFFCURVE",
"186 746 OFFCURVE",
"212 746 CURVE SMOOTH"
);
}
);
width = 759;
}
);
note = Ocircumflex;
unicode = 00D4;
},
{
glyphname = Ocircumflexacute;
lastChange = "2015-07-18 12:40:35 +0000";
layers = (
{
layerId = "EE9CB86C-5849-467B-879F-FFB2F6EA688D";
name = Regular;
paths = (
{
closed = 1;
nodes = (
"607 -15 OFFCURVE",
"728 116 OFFCURVE",
"728 340 CURVE SMOOTH",
"728 564 OFFCURVE",
"607 695 OFFCURVE",
"380 695 CURVE SMOOTH",
"152 695 OFFCURVE",
"31 564 OFFCURVE",
"31 340 CURVE SMOOTH",
"31 116 OFFCURVE",
"152 -15 OFFCURVE",
"380 -15 CURVE SMOOTH"
);
},
{
closed = 1;
nodes = (
"257 104 OFFCURVE",
"195 185 OFFCURVE",
"195 340 CURVE SMOOTH",
"195 495 OFFCURVE",
"257 576 OFFCURVE",
"380 576 CURVE SMOOTH",
"502 576 OFFCURVE",
"564 495 OFFCURVE",
"564 340 CURVE SMOOTH",
"564 185 OFFCURVE",
"502 104 OFFCURVE",
"380 104 CURVE SMOOTH"
);
},
{
closed = 1;
nodes = (
"277 729 LINE SMOOTH",
"304 729 OFFCURVE",
"313 734 OFFCURVE",
"324 751 CURVE",
"380 826 LINE",
"436 751 LINE",
"447 734 OFFCURVE",
"455 729 OFFCURVE",
"483 729 CURVE SMOOTH",
"541 729 LINE SMOOTH",
"567 729 OFFCURVE",
"576 746 OFFCURVE",
"557 769 CURVE SMOOTH",
"459 890 LINE SMOOTH",
"446 907 OFFCURVE",
"441 914 OFFCURVE",
"412 914 CURVE SMOOTH",
"347 914 LINE SMOOTH",
"319 914 OFFCURVE",
"314 907 OFFCURVE",
"300 890 CURVE SMOOTH",
"202 769 LINE SMOOTH",
"184 746 OFFCURVE",
"192 729 OFFCURVE",
"219 729 CURVE SMOOTH"
);
},
{
closed = 1;
nodes = (
"551 872 LINE SMOOTH",
"580 872 OFFCURVE",
"587 876 OFFCURVE",
"600 899 CURVE SMOOTH",
"646 983 LINE SMOOTH",
"659 1007 OFFCURVE",
"653 1022 OFFCURVE",
"627 1022 CURVE SMOOTH",
"565 1022 LINE SMOOTH",
"538 1022 OFFCURVE",
"533 1014 OFFCURVE",
"526 993 CURVE SMOOTH",
"492 901 LINE SMOOTH",
"486 885 OFFCURVE",
"493 872 OFFCURVE",
"514 872 CURVE SMOOTH"
);
}
);
width = 759;
}
);
note = Ocircumflexacute;
unicode = 1ED0;
},
{
glyphname = Ocircumflexdotbelow;
lastChange = "2015-07-18 12:40:34 +0000";
layers = (
{
layerId = "EE9CB86C-5849-467B-879F-FFB2F6EA688D";
name = Regular;
paths = (
{
closed = 1;
nodes = (
"607 -15 OFFCURVE",
"728 116 OFFCURVE",
"728 340 CURVE SMOOTH",
"728 564 OFFCURVE",
"607 695 OFFCURVE",
"380 695 CURVE SMOOTH",
"152 695 OFFCURVE",
"31 564 OFFCURVE",
"31 340 CURVE SMOOTH",
"31 116 OFFCURVE",
"152 -15 OFFCURVE",
"380 -15 CURVE SMOOTH"
);
},
{
closed = 1;
nodes = (
"390 -195 LINE SMOOTH",
"423 -195 OFFCURVE",
"444 -169 OFFCURVE",
"444 -138 CURVE SMOOTH",
"444 -116 LINE SMOOTH",
"444 -84 OFFCURVE",
"422 -59 OFFCURVE",
"390 -59 CURVE SMOOTH",
"366 -59 LINE SMOOTH",
"335 -59 OFFCURVE",
"312 -84 OFFCURVE",
"312 -116 CURVE SMOOTH",
"312 -138 LINE SMOOTH",
"312 -169 OFFCURVE",
"335 -195 OFFCURVE",
"366 -195 CURVE SMOOTH"
);
},
{
closed = 1;
nodes = (
"257 104 OFFCURVE",
"195 185 OFFCURVE",
"195 340 CURVE SMOOTH",
"195 495 OFFCURVE",
"257 576 OFFCURVE",
"380 576 CURVE SMOOTH",
"502 576 OFFCURVE",
"564 495 OFFCURVE",
"564 340 CURVE SMOOTH",
"564 185 OFFCURVE",
"502 104 OFFCURVE",
"380 104 CURVE SMOOTH"
);
},
{
closed = 1;
nodes = (
"273 734 LINE SMOOTH",
"302 734 OFFCURVE",
"310 741 OFFCURVE",
"321 758 CURVE SMOOTH",
"380 846 LINE",
"439 758 LINE SMOOTH",
"450 741 OFFCURVE",
"458 734 OFFCURVE",
"487 734 CURVE SMOOTH",
"548 734 LINE SMOOTH",
"574 734 OFFCURVE",
"583 750 OFFCURVE",
"565 774 CURVE SMOOTH",
"465 907 LINE SMOOTH",
"452 924 OFFCURVE",
"448 931 OFFCURVE",
"419 931 CURVE SMOOTH",
"340 931 LINE SMOOTH",
"311 931 OFFCURVE",
"308 924 OFFCURVE",
"294 907 CURVE",
"194 774 LINE SMOOTH",
"176 750 OFFCURVE",
"186 734 OFFCURVE",
"212 734 CURVE SMOOTH"
);
}
);
width = 759;
}
);
note = Ocircumflexdotbelow;
unicode = 1ED8;
},
{
glyphname = Ocircumflexgrave;
lastChange = "2015-07-18 12:40:35 +0000";
layers = (
{
layerId = "EE9CB86C-5849-467B-879F-FFB2F6EA688D";
name = Regular;
paths = (
{
closed = 1;
nodes = (
"607 -15 OFFCURVE",
"728 116 OFFCURVE",
"728 340 CURVE SMOOTH",
"728 564 OFFCURVE",
"607 695 OFFCURVE",
"380 695 CURVE SMOOTH",
"152 695 OFFCURVE",
"31 564 OFFCURVE",
"31 340 CURVE SMOOTH",
"31 116 OFFCURVE",
"152 -15 OFFCURVE",
"380 -15 CURVE SMOOTH"
);
},
{
closed = 1;
nodes = (
"257 104 OFFCURVE",
"195 185 OFFCURVE",
"195 340 CURVE SMOOTH",
"195 495 OFFCURVE",
"257 576 OFFCURVE",
"380 576 CURVE SMOOTH",
"502 576 OFFCURVE",
"564 495 OFFCURVE",
"564 340 CURVE SMOOTH",
"564 185 OFFCURVE",
"502 104 OFFCURVE",
"380 104 CURVE SMOOTH"
);
},
{
closed = 1;
nodes = (
"246 872 LINE SMOOTH",
"267 872 OFFCURVE",
"274 885 OFFCURVE",
"268 901 CURVE SMOOTH",
"234 993 LINE SMOOTH",
"227 1014 OFFCURVE",
"222 1022 OFFCURVE",
"195 1022 CURVE SMOOTH",
"133 1022 LINE SMOOTH",
"107 1022 OFFCURVE",
"101 1007 OFFCURVE",
"114 983 CURVE SMOOTH",
"160 899 LINE SMOOTH",
"173 876 OFFCURVE",
"180 872 OFFCURVE",
"209 872 CURVE SMOOTH"
);
},
{
closed = 1;
nodes = (
"277 729 LINE SMOOTH",
"305 729 OFFCURVE",
"313 734 OFFCURVE",
"324 751 CURVE",
"380 826 LINE",
"436 751 LINE",
"447 734 OFFCURVE",
"456 729 OFFCURVE",
"483 729 CURVE SMOOTH",
"541 729 LINE SMOOTH",
"568 729 OFFCURVE",
"576 746 OFFCURVE",
"558 769 CURVE SMOOTH",
"460 890 LINE SMOOTH",
"446 907 OFFCURVE",
"441 914 OFFCURVE",
"413 914 CURVE SMOOTH",
"348 914 LINE SMOOTH",
"319 914 OFFCURVE",
"314 907 OFFCURVE",
"301 890 CURVE SMOOTH",
"203 769 LINE SMOOTH",
"184 746 OFFCURVE",
"193 729 OFFCURVE",
"219 729 CURVE SMOOTH"
);
}
);
width = 759;
}
);
note = Ocircumflexgrave;
unicode = 1ED2;
},
{
glyphname = Ocircumflexhookabove;
lastChange = "2015-07-18 12:40:34 +0000";
layers = (
{
layerId = "EE9CB86C-5849-467B-879F-FFB2F6EA688D";
name = Regular;
paths = (
{
closed = 1;
nodes = (
"607 -15 OFFCURVE",
"728 116 OFFCURVE",
"728 340 CURVE SMOOTH",
"728 564 OFFCURVE",
"607 695 OFFCURVE",
"380 695 CURVE SMOOTH",
"152 695 OFFCURVE",
"31 564 OFFCURVE",
"31 340 CURVE SMOOTH",
"31 116 OFFCURVE",
"152 -15 OFFCURVE",
"380 -15 CURVE SMOOTH"
);
},
{
closed = 1;
nodes = (
"257 104 OFFCURVE",
"195 185 OFFCURVE",
"195 340 CURVE SMOOTH",
"195 495 OFFCURVE",
"257 576 OFFCURVE",
"380 576 CURVE SMOOTH",
"502 576 OFFCURVE",
"564 495 OFFCURVE",
"564 340 CURVE SMOOTH",
"564 185 OFFCURVE",
"502 104 OFFCURVE",
"380 104 CURVE SMOOTH"
);
},
{
closed = 1;
nodes = (
"277 729 LINE SMOOTH",
"305 729 OFFCURVE",
"313 734 OFFCURVE",
"324 751 CURVE",
"380 826 LINE",
"436 751 LINE SMOOTH",
"448 734 OFFCURVE",
"456 729 OFFCURVE",
"483 729 CURVE SMOOTH",
"541 729 LINE SMOOTH",
"568 729 OFFCURVE",
"576 746 OFFCURVE",
"558 769 CURVE SMOOTH",
"460 890 LINE SMOOTH",
"446 907 OFFCURVE",
"441 914 OFFCURVE",
"413 914 CURVE SMOOTH",
"348 914 LINE SMOOTH",
"319 914 OFFCURVE",
"314 907 OFFCURVE",
"301 890 CURVE SMOOTH",
"203 769 LINE SMOOTH",
"184 746 OFFCURVE",
"193 729 OFFCURVE",
"219 729 CURVE SMOOTH"
);
},
{
closed = 1;
nodes = (
"563 861 LINE SMOOTH",
"575 861 OFFCURVE",
"581 868 OFFCURVE",
"581 880 CURVE SMOOTH",
"581 895 LINE",
"618 895 OFFCURVE",
"650 917 OFFCURVE",
"650 963 CURVE SMOOTH",
"650 1012 OFFCURVE",
"619 1038 OFFCURVE",
"551 1038 CURVE SMOOTH",
"517 1038 OFFCURVE",
"481 1030 OFFCURVE",
"458 1017 CURVE SMOOTH",
"453 1014 OFFCURVE",
"453 1011 OFFCURVE",
"455 1007 CURVE SMOOTH",
"474 967 LINE SMOOTH",
"476 963 OFFCURVE",
"479 963 OFFCURVE",
"482 965 CURVE",
"496 973 OFFCURVE",
"514 978 OFFCURVE",
"533 978 CURVE SMOOTH",
"552 978 OFFCURVE",
"561 972 OFFCURVE",
"561 959 CURVE SMOOTH",
"561 942 OFFCURVE",
"551 937 OFFCURVE",
"525 937 CURVE SMOOTH",
"504 937 OFFCURVE",
"496 929 OFFCURVE",
"496 911 CURVE SMOOTH",
"496 880 LINE SMOOTH",
"496 868 OFFCURVE",
"502 861 OFFCURVE",
"515 861 CURVE SMOOTH"
);
}
);
width = 759;
}
);
note = Ocircumflexhookabove;
unicode = 1ED4;
},
{
glyphname = Ocircumflextilde;
lastChange = "2015-07-18 12:40:36 +0000";
layers = (
{
layerId = "EE9CB86C-5849-467B-879F-FFB2F6EA688D";
name = Regular;
paths = (
{
closed = 1;
nodes = (
"607 -15 OFFCURVE",
"728 116 OFFCURVE",
"728 340 CURVE SMOOTH",
"728 564 OFFCURVE",
"607 695 OFFCURVE",
"380 695 CURVE SMOOTH",
"152 695 OFFCURVE",
"31 564 OFFCURVE",
"31 340 CURVE SMOOTH",
"31 116 OFFCURVE",
"152 -15 OFFCURVE",
"380 -15 CURVE SMOOTH"
);
},
{
closed = 1;
nodes = (
"257 104 OFFCURVE",
"195 185 OFFCURVE",
"195 340 CURVE SMOOTH",
"195 495 OFFCURVE",
"257 576 OFFCURVE",
"380 576 CURVE SMOOTH",
"502 576 OFFCURVE",
"564 495 OFFCURVE",
"564 340 CURVE SMOOTH",
"564 185 OFFCURVE",
"502 104 OFFCURVE",
"380 104 CURVE SMOOTH"
);
},
{
closed = 1;
nodes = (
"489 731 OFFCURVE",
"557 793 OFFCURVE",
"557 879 CURVE SMOOTH",
"557 890 OFFCURVE",
"551 897 OFFCURVE",
"541 897 CURVE SMOOTH",
"458 897 LINE SMOOTH",
"444 897 OFFCURVE",
"441 890 OFFCURVE",
"441 878 CURVE SMOOTH",
"441 848 OFFCURVE",
"425 824 OFFCURVE",
"380 824 CURVE SMOOTH",
"334 824 OFFCURVE",
"319 848 OFFCURVE",
"319 878 CURVE SMOOTH",
"319 890 OFFCURVE",
"316 897 OFFCURVE",
"302 897 CURVE SMOOTH",
"219 897 LINE SMOOTH",
"209 897 OFFCURVE",
"203 890 OFFCURVE",
"203 879 CURVE SMOOTH",
"203 793 OFFCURVE",
"270 731 OFFCURVE",
"380 731 CURVE SMOOTH"
);
},
{
closed = 1;
nodes = (
"488 919 OFFCURVE",
"513 937 OFFCURVE",
"541 977 CURVE SMOOTH",
"556 998 OFFCURVE",
"554 1007 OFFCURVE",
"530 1027 CURVE",
"505 1045 OFFCURVE",
"490 1047 OFFCURVE",
"479 1031 CURVE",
"462 1011 OFFCURVE",
"452 1006 OFFCURVE",
"432 1006 CURVE SMOOTH",
"391 1006 OFFCURVE",
"359 1044 OFFCURVE",
"297 1044 CURVE SMOOTH",
"254 1044 OFFCURVE",
"229 1022 OFFCURVE",
"205 986 CURVE",
"189 966 OFFCURVE",
"192 957 OFFCURVE",
"213 939 CURVE SMOOTH",
"238 919 OFFCURVE",
"253 917 OFFCURVE",
"265 932 CURVE",
"280 949 OFFCURVE",
"289 956 OFFCURVE",
"311 956 CURVE SMOOTH",
"352 956 OFFCURVE",
"391 919 OFFCURVE",
"441 919 CURVE SMOOTH"
);
}
);
width = 759;
}
);
note = Ocircumflextilde;
unicode = 1ED6;
},
{
glyphname = Odieresis;
lastChange = "2015-07-18 12:40:35 +0000";
layers = (
{
layerId = "EE9CB86C-5849-467B-879F-FFB2F6EA688D";
name = Regular;
paths = (
{
closed = 1;
nodes = (
"607 -15 OFFCURVE",
"728 116 OFFCURVE",
"728 340 CURVE SMOOTH",
"728 564 OFFCURVE",
"607 695 OFFCURVE",
"380 695 CURVE SMOOTH",
"152 695 OFFCURVE",
"31 564 OFFCURVE",
"31 340 CURVE SMOOTH",
"31 116 OFFCURVE",
"152 -15 OFFCURVE",
"380 -15 CURVE SMOOTH"
);
},
{
closed = 1;
nodes = (
"257 104 OFFCURVE",
"195 185 OFFCURVE",
"195 340 CURVE SMOOTH",
"195 495 OFFCURVE",
"257 576 OFFCURVE",
"380 576 CURVE SMOOTH",
"502 576 OFFCURVE",
"564 495 OFFCURVE",
"564 340 CURVE SMOOTH",
"564 185 OFFCURVE",
"502 104 OFFCURVE",
"380 104 CURVE SMOOTH"
);
},
{
closed = 1;
nodes = (
"288 731 LINE SMOOTH",
"321 731 OFFCURVE",
"342 757 OFFCURVE",
"342 788 CURVE SMOOTH",
"342 810 LINE SMOOTH",
"342 842 OFFCURVE",
"320 867 OFFCURVE",
"288 867 CURVE SMOOTH",
"265 867 LINE SMOOTH",
"233 867 OFFCURVE",
"211 842 OFFCURVE",
"211 810 CURVE SMOOTH",
"211 788 LINE SMOOTH",
"211 757 OFFCURVE",
"233 731 OFFCURVE",
"265 731 CURVE SMOOTH"
);
},
{
closed = 1;
nodes = (
"494 731 LINE SMOOTH",
"527 731 OFFCURVE",
"548 757 OFFCURVE",
"548 788 CURVE SMOOTH",
"548 810 LINE SMOOTH",
"548 842 OFFCURVE",
"526 867 OFFCURVE",
"494 867 CURVE SMOOTH",
"470 867 LINE SMOOTH",
"439 867 OFFCURVE",
"416 842 OFFCURVE",
"416 810 CURVE SMOOTH",
"416 788 LINE SMOOTH",
"416 757 OFFCURVE",
"439 731 OFFCURVE",
"470 731 CURVE SMOOTH"
);
}
);
width = 759;
}
);
note = Odieresis;
unicode = 00D6;
},
{
glyphname = Odotbelow;
lastChange = "2015-07-18 12:40:34 +0000";
layers = (
{
layerId = "EE9CB86C-5849-467B-879F-FFB2F6EA688D";
name = Regular;
paths = (
{
closed = 1;
nodes = (
"607 -15 OFFCURVE",
"728 116 OFFCURVE",
"728 340 CURVE SMOOTH",
"728 564 OFFCURVE",
"607 695 OFFCURVE",
"380 695 CURVE SMOOTH",
"152 695 OFFCURVE",
"31 564 OFFCURVE",
"31 340 CURVE SMOOTH",
"31 116 OFFCURVE",
"152 -15 OFFCURVE",
"380 -15 CURVE SMOOTH"
);
},
{
closed = 1;
nodes = (
"390 -195 LINE SMOOTH",
"423 -195 OFFCURVE",
"444 -169 OFFCURVE",
"444 -138 CURVE SMOOTH",
"444 -116 LINE SMOOTH",
"444 -84 OFFCURVE",
"422 -59 OFFCURVE",
"390 -59 CURVE SMOOTH",
"366 -59 LINE SMOOTH",
"335 -59 OFFCURVE",
"312 -84 OFFCURVE",
"312 -116 CURVE SMOOTH",
"312 -138 LINE SMOOTH",
"312 -169 OFFCURVE",
"335 -195 OFFCURVE",
"366 -195 CURVE SMOOTH"
);
},
{
closed = 1;
nodes = (
"257 104 OFFCURVE",
"195 185 OFFCURVE",
"195 340 CURVE SMOOTH",
"195 495 OFFCURVE",
"257 576 OFFCURVE",
"380 576 CURVE SMOOTH",
"502 576 OFFCURVE",
"564 495 OFFCURVE",
"564 340 CURVE SMOOTH",
"564 185 OFFCURVE",
"502 104 OFFCURVE",
"380 104 CURVE SMOOTH"
);
}
);
width = 759;
}
);
note = Odotbelow;
unicode = 1ECC;
},
{
glyphname = Ograve;
lastChange = "2015-07-18 12:40:35 +0000";
layers = (
{
layerId = "EE9CB86C-5849-467B-879F-FFB2F6EA688D";
name = Regular;
paths = (
{
closed = 1;
nodes = (
"607 -15 OFFCURVE",
"728 116 OFFCURVE",
"728 340 CURVE SMOOTH",
"728 564 OFFCURVE",
"607 695 OFFCURVE",
"380 695 CURVE SMOOTH",
"152 695 OFFCURVE",
"31 564 OFFCURVE",
"31 340 CURVE SMOOTH",
"31 116 OFFCURVE",
"152 -15 OFFCURVE",
"380 -15 CURVE SMOOTH"
);
},
{
closed = 1;
nodes = (
"257 104 OFFCURVE",
"195 185 OFFCURVE",
"195 340 CURVE SMOOTH",
"195 495 OFFCURVE",
"257 576 OFFCURVE",
"380 576 CURVE SMOOTH",
"502 576 OFFCURVE",
"564 495 OFFCURVE",
"564 340 CURVE SMOOTH",
"564 185 OFFCURVE",
"502 104 OFFCURVE",
"380 104 CURVE SMOOTH"
);
},
{
closed = 1;
nodes = (
"436 747 LINE SMOOTH",
"462 747 OFFCURVE",
"469 761 OFFCURVE",
"462 781 CURVE SMOOTH",
"416 907 LINE SMOOTH",
"408 929 OFFCURVE",
"403 936 OFFCURVE",
"371 936 CURVE SMOOTH",
"275 936 LINE SMOOTH",
"248 936 OFFCURVE",
"234 923 OFFCURVE",
"248 897 CURVE SMOOTH",
"314 775 LINE SMOOTH",
"326 753 OFFCURVE",
"333 747 OFFCURVE",
"366 747 CURVE SMOOTH"
);
}
);
width = 759;
}
);
note = Ograve;
unicode = 00D2;
},
{
glyphname = Ohookabove;
lastChange = "2015-07-18 12:40:34 +0000";
layers = (
{
layerId = "EE9CB86C-5849-467B-879F-FFB2F6EA688D";
name = Regular;
paths = (
{
closed = 1;
nodes = (
"607 -15 OFFCURVE",
"728 116 OFFCURVE",
"728 340 CURVE SMOOTH",
"728 564 OFFCURVE",
"607 695 OFFCURVE",
"380 695 CURVE SMOOTH",
"152 695 OFFCURVE",
"31 564 OFFCURVE",
"31 340 CURVE SMOOTH",
"31 116 OFFCURVE",
"152 -15 OFFCURVE",
"380 -15 CURVE SMOOTH"
);
},
{
closed = 1;
nodes = (
"257 104 OFFCURVE",
"195 185 OFFCURVE",
"195 340 CURVE SMOOTH",
"195 495 OFFCURVE",
"257 576 OFFCURVE",
"380 576 CURVE SMOOTH",
"502 576 OFFCURVE",
"564 495 OFFCURVE",
"564 340 CURVE SMOOTH",
"564 185 OFFCURVE",
"502 104 OFFCURVE",
"380 104 CURVE SMOOTH"
);
},
{
closed = 1;
nodes = (
"414 729 LINE SMOOTH",
"430 729 OFFCURVE",
"437 737 OFFCURVE",
"437 752 CURVE SMOOTH",
"437 771 LINE",
"488 771 OFFCURVE",
"532 807 OFFCURVE",
"532 869 CURVE SMOOTH",
"532 934 OFFCURVE",
"487 972 OFFCURVE",
"395 972 CURVE SMOOTH",
"354 972 OFFCURVE",
"304 961 OFFCURVE",
"276 942 CURVE SMOOTH",
"270 938 OFFCURVE",
"270 935 OFFCURVE",
"272 929 CURVE",
"296 875 LINE",
"299 870 OFFCURVE",
"302 870 OFFCURVE",
"307 872 CURVE",
"330 883 OFFCURVE",
"351 891 OFFCURVE",
"378 891 CURVE SMOOTH",
"408 891 OFFCURVE",
"422 882 OFFCURVE",
"422 863 CURVE SMOOTH",
"422 840 OFFCURVE",
"406 831 OFFCURVE",
"368 831 CURVE SMOOTH",
"340 831 OFFCURVE",
"332 821 OFFCURVE",
"332 800 CURVE SMOOTH",
"332 752 LINE SMOOTH",
"332 737 OFFCURVE",
"339 729 OFFCURVE",
"355 729 CURVE SMOOTH"
);
}
);
width = 759;
}
);
note = Ohookabove;
unicode = 1ECE;
},
{
glyphname = Ohorn;
lastChange = "2015-07-18 12:40:34 +0000";
layers = (
{
layerId = "EE9CB86C-5849-467B-879F-FFB2F6EA688D";
name = Regular;
paths = (
{
closed = 1;
nodes = (
"607 -15 OFFCURVE",
"728 116 OFFCURVE",
"728 340 CURVE SMOOTH",
"728 413 OFFCURVE",
"715 475 OFFCURVE",
"689 526 CURVE",
"772 553 OFFCURVE",
"806 618 OFFCURVE",
"806 718 CURVE SMOOTH",
"806 742 OFFCURVE",
"800 749 OFFCURVE",
"780 749 CURVE SMOOTH",
"693 749 LINE SMOOTH",
"676 749 OFFCURVE",
"670 742 OFFCURVE",
"670 718 CURVE SMOOTH",
"670 658 OFFCURVE",
"653 632 OFFCURVE",
"610 626 CURVE",
"553 671 OFFCURVE",
"476 695 OFFCURVE",
"380 695 CURVE SMOOTH",
"152 695 OFFCURVE",
"31 564 OFFCURVE",
"31 340 CURVE SMOOTH",
"31 116 OFFCURVE",
"152 -15 OFFCURVE",
"380 -15 CURVE SMOOTH"
);
},
{
closed = 1;
nodes = (
"257 104 OFFCURVE",
"195 185 OFFCURVE",
"195 340 CURVE SMOOTH",
"195 495 OFFCURVE",
"257 576 OFFCURVE",
"380 576 CURVE SMOOTH",
"502 576 OFFCURVE",
"564 495 OFFCURVE",
"564 340 CURVE SMOOTH",
"564 185 OFFCURVE",
"502 104 OFFCURVE",
"380 104 CURVE SMOOTH"
);
}
);
width = 807;
}
);
note = Ohorn;
unicode = 01A0;
},
{
glyphname = Ohornacute;
lastChange = "2015-07-18 12:40:36 +0000";
layers = (
{
layerId = "EE9CB86C-5849-467B-879F-FFB2F6EA688D";
name = Regular;
paths = (
{
closed = 1;
nodes = (
"607 -15 OFFCURVE",
"728 116 OFFCURVE",
"728 340 CURVE SMOOTH",
"728 413 OFFCURVE",
"715 475 OFFCURVE",
"689 526 CURVE",
"772 553 OFFCURVE",
"806 618 OFFCURVE",
"806 718 CURVE SMOOTH",
"806 742 OFFCURVE",
"800 749 OFFCURVE",
"780 749 CURVE SMOOTH",
"693 749 LINE SMOOTH",
"676 749 OFFCURVE",
"670 742 OFFCURVE",
"670 718 CURVE SMOOTH",
"670 658 OFFCURVE",
"653 632 OFFCURVE",
"610 626 CURVE",
"553 671 OFFCURVE",
"476 695 OFFCURVE",
"380 695 CURVE SMOOTH",
"152 695 OFFCURVE",
"31 564 OFFCURVE",
"31 340 CURVE SMOOTH",
"31 116 OFFCURVE",
"152 -15 OFFCURVE",
"380 -15 CURVE SMOOTH"
);
},
{
closed = 1;
nodes = (
"257 104 OFFCURVE",
"195 185 OFFCURVE",
"195 340 CURVE SMOOTH",
"195 495 OFFCURVE",
"257 576 OFFCURVE",
"380 576 CURVE SMOOTH",
"502 576 OFFCURVE",
"564 495 OFFCURVE",
"564 340 CURVE SMOOTH",
"564 185 OFFCURVE",
"502 104 OFFCURVE",
"380 104 CURVE SMOOTH"
);
},
{
closed = 1;
nodes = (
"416 723 LINE SMOOTH",
"449 723 OFFCURVE",
"457 729 OFFCURVE",
"469 751 CURVE SMOOTH",
"534 873 LINE SMOOTH",
"548 899 OFFCURVE",
"535 912 OFFCURVE",
"508 912 CURVE SMOOTH",
"411 912 LINE SMOOTH",
"380 912 OFFCURVE",
"374 904 OFFCURVE",
"366 883 CURVE SMOOTH",
"321 757 LINE SMOOTH",
"314 737 OFFCURVE",
"320 723 OFFCURVE",
"346 723 CURVE SMOOTH"
);
}
);
width = 807;
}
);
note = Ohornacute;
unicode = 1EDA;
},
{
glyphname = Ohorndotbelow;
lastChange = "2015-07-18 12:40:33 +0000";
layers = (
{
layerId = "EE9CB86C-5849-467B-879F-FFB2F6EA688D";
name = Regular;
paths = (
{
closed = 1;
nodes = (
"607 -15 OFFCURVE",
"728 116 OFFCURVE",
"728 340 CURVE SMOOTH",
"728 413 OFFCURVE",
"715 475 OFFCURVE",
"689 526 CURVE",
"772 553 OFFCURVE",
"806 618 OFFCURVE",
"806 718 CURVE SMOOTH",
"806 742 OFFCURVE",
"800 749 OFFCURVE",
"780 749 CURVE SMOOTH",
"693 749 LINE SMOOTH",
"676 749 OFFCURVE",
"670 742 OFFCURVE",
"670 718 CURVE SMOOTH",
"670 658 OFFCURVE",
"653 632 OFFCURVE",
"610 626 CURVE",
"553 671 OFFCURVE",
"476 695 OFFCURVE",
"380 695 CURVE SMOOTH",
"152 695 OFFCURVE",
"31 564 OFFCURVE",
"31 340 CURVE SMOOTH",
"31 116 OFFCURVE",
"152 -15 OFFCURVE",
"380 -15 CURVE SMOOTH"
);
},
{
closed = 1;
nodes = (
"390 -195 LINE SMOOTH",
"423 -195 OFFCURVE",
"444 -169 OFFCURVE",
"444 -138 CURVE SMOOTH",
"444 -116 LINE SMOOTH",
"444 -84 OFFCURVE",
"422 -59 OFFCURVE",
"390 -59 CURVE SMOOTH",
"366 -59 LINE SMOOTH",
"335 -59 OFFCURVE",
"312 -84 OFFCURVE",
"312 -116 CURVE SMOOTH",
"312 -138 LINE SMOOTH",
"312 -169 OFFCURVE",
"335 -195 OFFCURVE",
"366 -195 CURVE SMOOTH"
);
},
{
closed = 1;
nodes = (
"257 104 OFFCURVE",
"195 185 OFFCURVE",
"195 340 CURVE SMOOTH",
"195 495 OFFCURVE",
"257 576 OFFCURVE",
"380 576 CURVE SMOOTH",
"502 576 OFFCURVE",
"564 495 OFFCURVE",
"564 340 CURVE SMOOTH",
"564 185 OFFCURVE",
"502 104 OFFCURVE",
"380 104 CURVE SMOOTH"
);
}
);
width = 807;
}
);
note = Ohorndotbelow;
unicode = 1EE2;
},
{
glyphname = Ohorngrave;
lastChange = "2015-07-18 12:40:35 +0000";
layers = (
{
layerId = "EE9CB86C-5849-467B-879F-FFB2F6EA688D";
name = Regular;
paths = (
{
closed = 1;
nodes = (
"607 -15 OFFCURVE",
"728 116 OFFCURVE",
"728 340 CURVE SMOOTH",
"728 413 OFFCURVE",
"715 475 OFFCURVE",
"689 526 CURVE",
"772 553 OFFCURVE",
"806 618 OFFCURVE",
"806 718 CURVE SMOOTH",
"806 742 OFFCURVE",
"800 749 OFFCURVE",
"780 749 CURVE SMOOTH",
"693 749 LINE SMOOTH",
"676 749 OFFCURVE",
"670 742 OFFCURVE",
"670 718 CURVE SMOOTH",
"670 658 OFFCURVE",
"653 632 OFFCURVE",
"610 626 CURVE",
"553 671 OFFCURVE",
"476 695 OFFCURVE",
"380 695 CURVE SMOOTH",
"152 695 OFFCURVE",
"31 564 OFFCURVE",
"31 340 CURVE SMOOTH",
"31 116 OFFCURVE",
"152 -15 OFFCURVE",
"380 -15 CURVE SMOOTH"
);
},
{
closed = 1;
nodes = (
"257 104 OFFCURVE",
"195 185 OFFCURVE",
"195 340 CURVE SMOOTH",
"195 495 OFFCURVE",
"257 576 OFFCURVE",
"380 576 CURVE SMOOTH",
"502 576 OFFCURVE",
"564 495 OFFCURVE",
"564 340 CURVE SMOOTH",
"564 185 OFFCURVE",
"502 104 OFFCURVE",
"380 104 CURVE SMOOTH"
);
},
{
closed = 1;
nodes = (
"449 723 LINE SMOOTH",
"475 723 OFFCURVE",
"482 737 OFFCURVE",
"475 757 CURVE SMOOTH",
"429 883 LINE SMOOTH",
"421 905 OFFCURVE",
"416 912 OFFCURVE",
"384 912 CURVE SMOOTH",
"288 912 LINE SMOOTH",
"261 912 OFFCURVE",
"247 899 OFFCURVE",
"261 873 CURVE SMOOTH",
"327 751 LINE SMOOTH",
"339 729 OFFCURVE",
"346 723 OFFCURVE",
"379 723 CURVE SMOOTH"
);
}
);
width = 807;
}
);
note = Ohorngrave;
unicode = 1EDC;
},
{
glyphname = Ohornhookabove;
lastChange = "2015-07-18 12:40:34 +0000";
layers = (
{
layerId = "EE9CB86C-5849-467B-879F-FFB2F6EA688D";
name = Regular;
paths = (
{
closed = 1;
nodes = (
"607 -15 OFFCURVE",
"728 116 OFFCURVE",
"728 340 CURVE SMOOTH",
"728 413 OFFCURVE",
"715 475 OFFCURVE",
"689 526 CURVE",
"772 553 OFFCURVE",
"806 618 OFFCURVE",
"806 718 CURVE SMOOTH",
"806 742 OFFCURVE",
"800 749 OFFCURVE",
"780 749 CURVE SMOOTH",
"693 749 LINE SMOOTH",
"676 749 OFFCURVE",
"670 742 OFFCURVE",
"670 718 CURVE SMOOTH",
"670 658 OFFCURVE",
"653 632 OFFCURVE",
"610 626 CURVE",
"553 671 OFFCURVE",
"476 695 OFFCURVE",
"380 695 CURVE SMOOTH",
"152 695 OFFCURVE",
"31 564 OFFCURVE",
"31 340 CURVE SMOOTH",
"31 116 OFFCURVE",
"152 -15 OFFCURVE",
"380 -15 CURVE SMOOTH"
);
},
{
closed = 1;
nodes = (
"257 104 OFFCURVE",
"195 185 OFFCURVE",
"195 340 CURVE SMOOTH",
"195 495 OFFCURVE",
"257 576 OFFCURVE",
"380 576 CURVE SMOOTH",
"502 576 OFFCURVE",
"564 495 OFFCURVE",
"564 340 CURVE SMOOTH",
"564 185 OFFCURVE",
"502 104 OFFCURVE",
"380 104 CURVE SMOOTH"
);
},
{
closed = 1;
nodes = (
"404 729 LINE SMOOTH",
"420 729 OFFCURVE",
"427 737 OFFCURVE",
"427 752 CURVE SMOOTH",
"427 771 LINE",
"478 771 OFFCURVE",
"522 807 OFFCURVE",
"522 869 CURVE SMOOTH",
"522 934 OFFCURVE",
"477 972 OFFCURVE",
"385 972 CURVE SMOOTH",
"344 972 OFFCURVE",
"294 961 OFFCURVE",
"266 942 CURVE SMOOTH",
"260 938 OFFCURVE",
"260 935 OFFCURVE",
"262 929 CURVE",
"286 875 LINE",
"289 870 OFFCURVE",
"292 870 OFFCURVE",
"297 872 CURVE",
"320 883 OFFCURVE",
"341 891 OFFCURVE",
"368 891 CURVE SMOOTH",
"398 891 OFFCURVE",
"412 882 OFFCURVE",
"412 863 CURVE SMOOTH",
"412 840 OFFCURVE",
"396 831 OFFCURVE",
"358 831 CURVE SMOOTH",
"330 831 OFFCURVE",
"322 821 OFFCURVE",
"322 800 CURVE SMOOTH",
"322 752 LINE SMOOTH",
"322 737 OFFCURVE",
"329 729 OFFCURVE",
"345 729 CURVE SMOOTH"
);
}
);
width = 807;
}
);
note = Ohornhookabove;
unicode = 1EDE;
},
{
glyphname = Ohorntilde;
lastChange = "2015-07-18 12:40:35 +0000";
layers = (
{
layerId = "EE9CB86C-5849-467B-879F-FFB2F6EA688D";
name = Regular;
paths = (
{
closed = 1;
nodes = (
"607 -15 OFFCURVE",
"728 116 OFFCURVE",
"728 340 CURVE SMOOTH",
"728 413 OFFCURVE",
"715 475 OFFCURVE",
"689 526 CURVE",
"772 553 OFFCURVE",
"806 618 OFFCURVE",
"806 718 CURVE SMOOTH",
"806 742 OFFCURVE",
"800 749 OFFCURVE",
"780 749 CURVE SMOOTH",
"693 749 LINE SMOOTH",
"676 749 OFFCURVE",
"670 742 OFFCURVE",
"670 718 CURVE SMOOTH",
"670 658 OFFCURVE",
"653 632 OFFCURVE",
"610 626 CURVE",
"553 671 OFFCURVE",
"476 695 OFFCURVE",
"380 695 CURVE SMOOTH",
"152 695 OFFCURVE",
"31 564 OFFCURVE",
"31 340 CURVE SMOOTH",
"31 116 OFFCURVE",
"152 -15 OFFCURVE",
"380 -15 CURVE SMOOTH"
);
},
{
closed = 1;
nodes = (
"257 104 OFFCURVE",
"195 185 OFFCURVE",
"195 340 CURVE SMOOTH",
"195 495 OFFCURVE",
"257 576 OFFCURVE",
"380 576 CURVE SMOOTH",
"502 576 OFFCURVE",
"564 495 OFFCURVE",
"564 340 CURVE SMOOTH",
"564 185 OFFCURVE",
"502 104 OFFCURVE",
"380 104 CURVE SMOOTH"
);
},
{
closed = 1;
nodes = (
"553 736 OFFCURVE",
"585 761 OFFCURVE",
"620 813 CURVE SMOOTH",
"639 840 OFFCURVE",
"636 854 OFFCURVE",
"605 878 CURVE SMOOTH",
"573 902 OFFCURVE",
"555 906 OFFCURVE",
"540 887 CURVE SMOOTH",
"519 861 OFFCURVE",
"507 852 OFFCURVE",
"481 852 CURVE SMOOTH",
"429 852 OFFCURVE",
"390 903 OFFCURVE",
"310 903 CURVE SMOOTH",
"256 903 OFFCURVE",
"225 874 OFFCURVE",
"192 830 CURVE SMOOTH",
"173 804 OFFCURVE",
"176 790 OFFCURVE",
"205 767 CURVE SMOOTH",
"236 742 OFFCURVE",
"254 737 OFFCURVE",
"269 755 CURVE SMOOTH",
"289 778 OFFCURVE",
"301 787 OFFCURVE",
"327 787 CURVE SMOOTH",
"379 787 OFFCURVE",
"429 736 OFFCURVE",
"494 736 CURVE SMOOTH"
);
}
);
width = 807;
}
);
note = Ohorntilde;
unicode = 1EE0;
},
{
glyphname = Ohungarumlaut;
lastChange = "2015-07-18 12:40:34 +0000";
layers = (
{
layerId = "EE9CB86C-5849-467B-879F-FFB2F6EA688D";
name = Regular;
paths = (
{
closed = 1;
nodes = (
"607 -15 OFFCURVE",
"728 116 OFFCURVE",
"728 340 CURVE SMOOTH",
"728 564 OFFCURVE",
"607 695 OFFCURVE",
"380 695 CURVE SMOOTH",
"152 695 OFFCURVE",
"31 564 OFFCURVE",
"31 340 CURVE SMOOTH",
"31 116 OFFCURVE",
"152 -15 OFFCURVE",
"380 -15 CURVE SMOOTH"
);
},
{
closed = 1;
nodes = (
"257 104 OFFCURVE",
"195 185 OFFCURVE",
"195 340 CURVE SMOOTH",
"195 495 OFFCURVE",
"257 576 OFFCURVE",
"380 576 CURVE SMOOTH",
"502 576 OFFCURVE",
"564 495 OFFCURVE",
"564 340 CURVE SMOOTH",
"564 185 OFFCURVE",
"502 104 OFFCURVE",
"380 104 CURVE SMOOTH"
);
},
{
closed = 1;
nodes = (
"294 741 LINE SMOOTH",
"328 741 OFFCURVE",
"332 749 OFFCURVE",
"347 769 CURVE",
"429 891 LINE SMOOTH",
"446 915 OFFCURVE",
"430 930 OFFCURVE",
"403 930 CURVE SMOOTH",
"318 930 LINE SMOOTH",
"287 930 OFFCURVE",
"283 921 OFFCURVE",
"273 901 CURVE SMOOTH",
"211 775 LINE SMOOTH",
"202 756 OFFCURVE",
"210 741 OFFCURVE",
"236 741 CURVE SMOOTH"
);
},
{
closed = 1;
nodes = (
"515 741 LINE SMOOTH",
"548 741 OFFCURVE",
"553 749 OFFCURVE",
"567 769 CURVE SMOOTH",
"650 891 LINE SMOOTH",
"667 915 OFFCURVE",
"650 930 OFFCURVE",
"623 930 CURVE SMOOTH",
"539 930 LINE SMOOTH",
"507 930 OFFCURVE",
"504 921 OFFCURVE",
"494 901 CURVE SMOOTH",
"431 775 LINE SMOOTH",
"422 756 OFFCURVE",
"431 741 OFFCURVE",
"457 741 CURVE SMOOTH"
);
}
);
width = 759;
}
);
note = Ohungarumlaut;
unicode = 0150;
},
{
glyphname = Omacron;
lastChange = "2015-07-18 12:40:36 +0000";
layers = (
{
layerId = "EE9CB86C-5849-467B-879F-FFB2F6EA688D";
name = Regular;
paths = (
{
closed = 1;
nodes = (
"607 -15 OFFCURVE",
"728 116 OFFCURVE",
"728 340 CURVE SMOOTH",
"728 564 OFFCURVE",
"607 695 OFFCURVE",
"380 695 CURVE SMOOTH",
"152 695 OFFCURVE",
"31 564 OFFCURVE",
"31 340 CURVE SMOOTH",
"31 116 OFFCURVE",
"152 -15 OFFCURVE",
"380 -15 CURVE SMOOTH"
);
},
{
closed = 1;
nodes = (
"257 104 OFFCURVE",
"195 185 OFFCURVE",
"195 340 CURVE SMOOTH",
"195 495 OFFCURVE",
"257 576 OFFCURVE",
"380 576 CURVE SMOOTH",
"502 576 OFFCURVE",
"564 495 OFFCURVE",
"564 340 CURVE SMOOTH",
"564 185 OFFCURVE",
"502 104 OFFCURVE",
"380 104 CURVE SMOOTH"
);
},
{
closed = 1;
nodes = (
"516 753 LINE SMOOTH",
"549 753 OFFCURVE",
"558 766 OFFCURVE",
"558 796 CURVE SMOOTH",
"558 832 LINE SMOOTH",
"558 861 OFFCURVE",
"549 875 OFFCURVE",
"516 875 CURVE SMOOTH",
"245 875 LINE SMOOTH",
"212 875 OFFCURVE",
"203 861 OFFCURVE",
"203 832 CURVE SMOOTH",
"203 796 LINE SMOOTH",
"203 766 OFFCURVE",
"212 753 OFFCURVE",
"245 753 CURVE SMOOTH"
);
}
);
width = 759;
}
);
note = Omacron;
unicode = 014C;
},
{
glyphname = Oslash;
lastChange = "2015-07-18 12:40:35 +0000";
layers = (
{
layerId = "EE9CB86C-5849-467B-879F-FFB2F6EA688D";
name = Regular;
paths = (
{
closed = 1;
nodes = (
"607 -15 OFFCURVE",
"728 116 OFFCURVE",
"728 340 CURVE SMOOTH",
"728 564 OFFCURVE",
"607 695 OFFCURVE",
"380 695 CURVE SMOOTH",
"152 695 OFFCURVE",
"31 564 OFFCURVE",
"31 340 CURVE SMOOTH",
"31 116 OFFCURVE",
"152 -15 OFFCURVE",
"380 -15 CURVE SMOOTH"
);
},
{
closed = 1;
nodes = (
"257 -86 LINE SMOOTH",
"273 -86 OFFCURVE",
"281 -78 OFFCURVE",
"286 -66 CURVE SMOOTH",
"605 720 LINE SMOOTH",
"612 737 OFFCURVE",
"611 751 OFFCURVE",
"592 751 CURVE SMOOTH",
"494 751 LINE SMOOTH",
"477 751 OFFCURVE",
"469 743 OFFCURVE",
"464 731 CURVE SMOOTH",
"145 -55 LINE SMOOTH",
"138 -72 OFFCURVE",
"140 -86 OFFCURVE",
"158 -86 CURVE SMOOTH"
);
},
{
closed = 1;
nodes = (
"257 104 OFFCURVE",
"195 185 OFFCURVE",
"195 340 CURVE SMOOTH",
"195 495 OFFCURVE",
"257 576 OFFCURVE",
"380 576 CURVE SMOOTH",
"502 576 OFFCURVE",
"564 495 OFFCURVE",
"564 340 CURVE SMOOTH",
"564 185 OFFCURVE",
"502 104 OFFCURVE",
"380 104 CURVE SMOOTH"
);
}
);
width = 759;
}
);
note = Oslash;
unicode = 00D8;
},
{
glyphname = Oslashacute;
lastChange = "2015-07-18 12:40:33 +0000";
layers = (
{
layerId = "EE9CB86C-5849-467B-879F-FFB2F6EA688D";
name = Regular;
paths = (
{
closed = 1;
nodes = (
"607 -15 OFFCURVE",
"728 116 OFFCURVE",
"728 340 CURVE SMOOTH",
"728 564 OFFCURVE",
"607 695 OFFCURVE",
"380 695 CURVE SMOOTH",
"152 695 OFFCURVE",
"31 564 OFFCURVE",
"31 340 CURVE SMOOTH",
"31 116 OFFCURVE",
"152 -15 OFFCURVE",
"380 -15 CURVE SMOOTH"
);
},
{
closed = 1;
nodes = (
"257 -86 LINE SMOOTH",
"273 -86 OFFCURVE",
"281 -78 OFFCURVE",
"286 -66 CURVE SMOOTH",
"605 720 LINE SMOOTH",
"612 737 OFFCURVE",
"611 751 OFFCURVE",
"592 751 CURVE SMOOTH",
"494 751 LINE SMOOTH",
"477 751 OFFCURVE",
"469 743 OFFCURVE",
"464 731 CURVE SMOOTH",
"145 -55 LINE SMOOTH",
"138 -72 OFFCURVE",
"140 -86 OFFCURVE",
"158 -86 CURVE SMOOTH"
);
},
{
closed = 1;
nodes = (
"257 104 OFFCURVE",
"195 185 OFFCURVE",
"195 340 CURVE SMOOTH",
"195 495 OFFCURVE",
"257 576 OFFCURVE",
"380 576 CURVE SMOOTH",
"502 576 OFFCURVE",
"564 495 OFFCURVE",
"564 340 CURVE SMOOTH",
"564 185 OFFCURVE",
"502 104 OFFCURVE",
"380 104 CURVE SMOOTH"
);
},
{
closed = 1;
nodes = (
"381 723 LINE SMOOTH",
"414 723 OFFCURVE",
"422 729 OFFCURVE",
"434 751 CURVE SMOOTH",
"499 873 LINE SMOOTH",
"513 899 OFFCURVE",
"500 912 OFFCURVE",
"473 912 CURVE SMOOTH",
"376 912 LINE SMOOTH",
"345 912 OFFCURVE",
"339 904 OFFCURVE",
"331 883 CURVE SMOOTH",
"286 757 LINE SMOOTH",
"279 737 OFFCURVE",
"285 723 OFFCURVE",
"311 723 CURVE SMOOTH"
);
}
);
width = 759;
}
);
note = Oslashacute;
unicode = 01FE;
},
{
glyphname = Otilde;
lastChange = "2015-07-18 12:40:33 +0000";
layers = (
{
layerId = "EE9CB86C-5849-467B-879F-FFB2F6EA688D";
name = Regular;
paths = (
{
closed = 1;
nodes = (
"607 -15 OFFCURVE",
"728 116 OFFCURVE",
"728 340 CURVE SMOOTH",
"728 564 OFFCURVE",
"607 695 OFFCURVE",
"380 695 CURVE SMOOTH",
"152 695 OFFCURVE",
"31 564 OFFCURVE",
"31 340 CURVE SMOOTH",
"31 116 OFFCURVE",
"152 -15 OFFCURVE",
"380 -15 CURVE SMOOTH"
);
},
{
closed = 1;
nodes = (
"257 104 OFFCURVE",
"195 185 OFFCURVE",
"195 340 CURVE SMOOTH",
"195 495 OFFCURVE",
"257 576 OFFCURVE",
"380 576 CURVE SMOOTH",
"502 576 OFFCURVE",
"564 495 OFFCURVE",
"564 340 CURVE SMOOTH",
"564 185 OFFCURVE",
"502 104 OFFCURVE",
"380 104 CURVE SMOOTH"
);
},
{
closed = 1;
nodes = (
"536 754 OFFCURVE",
"568 779 OFFCURVE",
"603 831 CURVE SMOOTH",
"622 858 OFFCURVE",
"619 872 OFFCURVE",
"588 896 CURVE SMOOTH",
"556 920 OFFCURVE",
"538 924 OFFCURVE",
"523 905 CURVE SMOOTH",
"502 879 OFFCURVE",
"490 870 OFFCURVE",
"464 870 CURVE SMOOTH",
"412 870 OFFCURVE",
"373 921 OFFCURVE",
"293 921 CURVE SMOOTH",
"239 921 OFFCURVE",
"208 892 OFFCURVE",
"175 848 CURVE SMOOTH",
"156 822 OFFCURVE",
"159 808 OFFCURVE",
"188 785 CURVE SMOOTH",
"219 760 OFFCURVE",
"237 755 OFFCURVE",
"252 773 CURVE SMOOTH",
"272 796 OFFCURVE",
"284 805 OFFCURVE",
"310 805 CURVE SMOOTH",
"362 805 OFFCURVE",
"412 754 OFFCURVE",
"477 754 CURVE SMOOTH"
);
}
);
width = 759;
}
);
note = Otilde;
unicode = 00D5;
},
{
glyphname = OE;
lastChange = "2015-07-18 12:40:34 +0000";
layers = (
{
layerId = "EE9CB86C-5849-467B-879F-FFB2F6EA688D";
name = Regular;
paths = (
{
closed = 1;
nodes = (
"454.152 -15 OFFCURVE",
"532 4 OFFCURVE",
"568 57 CURVE",
"568 43 LINE SMOOTH",
"568 14 OFFCURVE",
"580 0 OFFCURVE",
"613 0 CURVE SMOOTH",
"1027 0 LINE SMOOTH",
"1060 0 OFFCURVE",
"1069 13 OFFCURVE",
"1069 42 CURVE SMOOTH",
"1069 78 LINE SMOOTH",
"1069 108 OFFCURVE",
"1060 121 OFFCURVE",
"1027 121 CURVE SMOOTH",
"733 121 LINE",
"733 280 LINE",
"939 280 LINE SMOOTH",
"972 280 OFFCURVE",
"981 294 OFFCURVE",
"981 323 CURVE SMOOTH",
"981 358 LINE SMOOTH",
"981 387 OFFCURVE",
"972 400 OFFCURVE",
"939 400 CURVE SMOOTH",
"733 400 LINE",
"733 558 LINE",
"1028 558 LINE SMOOTH",
"1061 558 OFFCURVE",
"1070 572 OFFCURVE",
"1070 601 CURVE SMOOTH",
"1070 638 LINE SMOOTH",
"1070 667 OFFCURVE",
"1061 680 OFFCURVE",
"1028 680 CURVE SMOOTH",
"613 680 LINE SMOOTH",
"580 680 OFFCURVE",
"568 665 OFFCURVE",
"568 636 CURVE SMOOTH",
"568 621 LINE",
"537 664 OFFCURVE",
"473 695 OFFCURVE",
"380 695 CURVE SMOOTH",
"152 695 OFFCURVE",
"31 564 OFFCURVE",
"31 340 CURVE SMOOTH",
"31 116 OFFCURVE",
"152 -15 OFFCURVE",
"380 -15 CURVE SMOOTH"
);
},
{
closed = 1;
nodes = (
"257 104 OFFCURVE",
"195 185 OFFCURVE",
"195 340 CURVE SMOOTH",
"195 495 OFFCURVE",
"257 576 OFFCURVE",
"380 576 CURVE SMOOTH",
"502 576 OFFCURVE",
"564 495 OFFCURVE",
"564 340 CURVE SMOOTH",
"564 185 OFFCURVE",
"502 104 OFFCURVE",
"380 104 CURVE SMOOTH"
);
}
);
width = 1166;
}
);
note = OE;
unicode = 0152;
},
{
glyphname = P;
lastChange = "2015-07-18 12:40:35 +0000";
layers = (
{
layerId = "EE9CB86C-5849-467B-879F-FFB2F6EA688D";
name = Regular;
paths = (
{
closed = 1;
nodes = (
"171 0 LINE SMOOTH",
"205 0 OFFCURVE",
"216 14 OFFCURVE",
"216 43 CURVE SMOOTH",
"216 221 LINE",
"346 221 LINE SMOOTH",
"525 221 OFFCURVE",
"603 303 OFFCURVE",
"603 450 CURVE SMOOTH",
"603 597 OFFCURVE",
"525 680 OFFCURVE",
"346 680 CURVE SMOOTH",
"96 680 LINE SMOOTH",
"63 680 OFFCURVE",
"51 665 OFFCURVE",
"51 636 CURVE SMOOTH",
"51 43 LINE SMOOTH",
"51 14 OFFCURVE",
"63 0 OFFCURVE",
"96 0 CURVE SMOOTH"
);
},
{
closed = 1;
nodes = (
"217 558 LINE",
"335 558 LINE SMOOTH",
"403 558 OFFCURVE",
"439 524 OFFCURVE",
"439 450 CURVE SMOOTH",
"439 377 OFFCURVE",
"403 342 OFFCURVE",
"335 342 CURVE SMOOTH",
"217 342 LINE"
);
}
);
width = 614;
}
);
note = P;
unicode = 0050;
},
{
glyphname = Thorn;
lastChange = "2015-07-18 12:40:33 +0000";
layers = (
{
layerId = "EE9CB86C-5849-467B-879F-FFB2F6EA688D";
name = Regular;
paths = (
{
closed = 1;
nodes = (
"171 0 LINE SMOOTH",
"205 0 OFFCURVE",
"216 14 OFFCURVE",
"216 43 CURVE SMOOTH",
"216 111 LINE",
"346 111 LINE SMOOTH",
"525 111 OFFCURVE",
"603 193 OFFCURVE",
"603 340 CURVE SMOOTH",
"603 486 OFFCURVE",
"525 570 OFFCURVE",
"346 570 CURVE SMOOTH",
"216 570 LINE",
"216 636 LINE SMOOTH",
"216 665 OFFCURVE",
"205 680 OFFCURVE",
"171 680 CURVE SMOOTH",
"96 680 LINE SMOOTH",
"63 680 OFFCURVE",
"51 665 OFFCURVE",
"51 636 CURVE SMOOTH",
"51 43 LINE SMOOTH",
"51 14 OFFCURVE",
"63 0 OFFCURVE",
"96 0 CURVE SMOOTH"
);
},
{
closed = 1;
nodes = (
"217 448 LINE",
"335 448 LINE SMOOTH",
"403 448 OFFCURVE",
"439 413 OFFCURVE",
"439 340 CURVE SMOOTH",
"439 267 OFFCURVE",
"403 232 OFFCURVE",
"335 232 CURVE SMOOTH",
"217 232 LINE"
);
}
);
width = 634;
}
);
note = Thorn;
unicode = 00DE;
},
{
glyphname = Q;
lastChange = "2015-07-18 12:40:34 +0000";
layers = (
{
layerId = "EE9CB86C-5849-467B-879F-FFB2F6EA688D";
name = Regular;
paths = (
{
closed = 1;
nodes = (
"591 -181 OFFCURVE",
"635 -165 OFFCURVE",
"674 -137 CURVE SMOOTH",
"685 -129 OFFCURVE",
"687 -124 OFFCURVE",
"680 -113 CURVE SMOOTH",
"642 -53 LINE SMOOTH",
"637 -45 OFFCURVE",
"632 -43 OFFCURVE",
"621 -50 CURVE SMOOTH",
"598 -65 OFFCURVE",
"569 -76 OFFCURVE",
"530 -76 CURVE SMOOTH",
"480 -76 OFFCURVE",
"437 -57 OFFCURVE",
"431 -9 CURVE",
"625 11 OFFCURVE",
"728 134 OFFCURVE",
"728 340 CURVE SMOOTH",
"728 564 OFFCURVE",
"607 695 OFFCURVE",
"380 695 CURVE SMOOTH",
"152 695 OFFCURVE",
"31 564 OFFCURVE",
"31 340 CURVE SMOOTH",
"31 140 OFFCURVE",
"127 14 OFFCURVE",
"309 -10 CURVE",
"319 -111 OFFCURVE",
"399 -181 OFFCURVE",
"526 -181 CURVE SMOOTH"
);
},
{
closed = 1;
nodes = (
"257 104 OFFCURVE",
"195 185 OFFCURVE",
"195 340 CURVE SMOOTH",
"195 495 OFFCURVE",
"257 576 OFFCURVE",
"380 576 CURVE SMOOTH",
"502 576 OFFCURVE",
"564 495 OFFCURVE",
"564 340 CURVE SMOOTH",
"564 185 OFFCURVE",
"502 104 OFFCURVE",
"380 104 CURVE SMOOTH"
);
}
);
width = 759;
}
);
note = Q;
unicode = 0051;
},
{
glyphname = R;
lastChange = "2015-07-18 12:40:35 +0000";
layers = (
{
layerId = "EE9CB86C-5849-467B-879F-FFB2F6EA688D";
name = Regular;
paths = (
{
closed = 1;
nodes = (
"171 0 LINE SMOOTH",
"205 0 OFFCURVE",
"216 14 OFFCURVE",
"216 43 CURVE SMOOTH",
"216 239 LINE",
"335 239 LINE",
"427 19 LINE SMOOTH",
"434 3 OFFCURVE",
"442 0 OFFCURVE",
"460 0 CURVE SMOOTH",
"571 0 LINE SMOOTH",
"590 0 OFFCURVE",
"597 14 OFFCURVE",
"589 32 CURVE SMOOTH",
"484 262 LINE",
"563 297 OFFCURVE",
"603 364 OFFCURVE",
"603 458 CURVE SMOOTH",
"603 605 OFFCURVE",
"519 680 OFFCURVE",
"349 680 CURVE SMOOTH",
"96 680 LINE SMOOTH",
"63 680 OFFCURVE",
"51 665 OFFCURVE",
"51 636 CURVE SMOOTH",
"51 43 LINE SMOOTH",
"51 14 OFFCURVE",
"63 0 OFFCURVE",
"96 0 CURVE SMOOTH"
);
},
{
closed = 1;
nodes = (
"216 558 LINE",
"335 558 LINE SMOOTH",
"403 558 OFFCURVE",
"439 528 OFFCURVE",
"439 458 CURVE SMOOTH",
"439 387 OFFCURVE",
"400 358 OFFCURVE",
"325 358 CURVE SMOOTH",
"216 358 LINE"
);
}
);
width = 634;
}
);
note = R;
unicode = 0052;
},
{
glyphname = Racute;
lastChange = "2015-07-18 12:40:34 +0000";
layers = (
{
layerId = "EE9CB86C-5849-467B-879F-FFB2F6EA688D";
name = Regular;
paths = (
{
closed = 1;
nodes = (
"171 0 LINE SMOOTH",
"205 0 OFFCURVE",
"216 14 OFFCURVE",
"216 43 CURVE SMOOTH",
"216 239 LINE",
"335 239 LINE",
"427 19 LINE SMOOTH",
"434 3 OFFCURVE",
"442 0 OFFCURVE",
"460 0 CURVE SMOOTH",
"571 0 LINE SMOOTH",
"590 0 OFFCURVE",
"597 14 OFFCURVE",
"589 32 CURVE SMOOTH",
"484 262 LINE",
"563 297 OFFCURVE",
"603 364 OFFCURVE",
"603 458 CURVE SMOOTH",
"603 605 OFFCURVE",
"519 680 OFFCURVE",
"349 680 CURVE SMOOTH",
"96 680 LINE SMOOTH",
"63 680 OFFCURVE",
"51 665 OFFCURVE",
"51 636 CURVE SMOOTH",
"51 43 LINE SMOOTH",
"51 14 OFFCURVE",
"63 0 OFFCURVE",
"96 0 CURVE SMOOTH"
);
},
{
closed = 1;
nodes = (
"216 558 LINE",
"335 558 LINE SMOOTH",
"403 558 OFFCURVE",
"439 528 OFFCURVE",
"439 458 CURVE SMOOTH",
"439 387 OFFCURVE",
"400 358 OFFCURVE",
"325 358 CURVE SMOOTH",
"216 358 LINE"
);
},
{
closed = 1;
nodes = (
"334 735 LINE SMOOTH",
"367 735 OFFCURVE",
"375 741 OFFCURVE",
"387 763 CURVE SMOOTH",
"452 885 LINE SMOOTH",
"466 911 OFFCURVE",
"453 924 OFFCURVE",
"426 924 CURVE SMOOTH",
"329 924 LINE SMOOTH",
"298 924 OFFCURVE",
"292 916 OFFCURVE",
"284 895 CURVE SMOOTH",
"239 769 LINE SMOOTH",
"232 749 OFFCURVE",
"238 735 OFFCURVE",
"264 735 CURVE SMOOTH"
);
}
);
width = 634;
}
);
note = Racute;
unicode = 0154;
},
{
glyphname = Rcaron;
lastChange = "2015-07-18 12:40:33 +0000";
layers = (
{
layerId = "EE9CB86C-5849-467B-879F-FFB2F6EA688D";
name = Regular;
paths = (
{
closed = 1;
nodes = (
"171 0 LINE SMOOTH",
"205 0 OFFCURVE",
"216 14 OFFCURVE",
"216 43 CURVE SMOOTH",
"216 239 LINE",
"335 239 LINE",
"427 19 LINE SMOOTH",
"434 3 OFFCURVE",
"442 0 OFFCURVE",
"460 0 CURVE SMOOTH",
"571 0 LINE SMOOTH",
"590 0 OFFCURVE",
"597 14 OFFCURVE",
"589 32 CURVE SMOOTH",
"484 262 LINE",
"563 297 OFFCURVE",
"603 364 OFFCURVE",
"603 458 CURVE SMOOTH",
"603 605 OFFCURVE",
"519 680 OFFCURVE",
"349 680 CURVE SMOOTH",
"96 680 LINE SMOOTH",
"63 680 OFFCURVE",
"51 665 OFFCURVE",
"51 636 CURVE SMOOTH",
"51 43 LINE SMOOTH",
"51 14 OFFCURVE",
"63 0 OFFCURVE",
"96 0 CURVE SMOOTH"
);
},
{
closed = 1;
nodes = (
"216 558 LINE",
"335 558 LINE SMOOTH",
"403 558 OFFCURVE",
"439 528 OFFCURVE",
"439 458 CURVE SMOOTH",
"439 387 OFFCURVE",
"400 358 OFFCURVE",
"325 358 CURVE SMOOTH",
"216 358 LINE"
);
},
{
closed = 1;
nodes = (
"363 740 LINE SMOOTH",
"392 740 OFFCURVE",
"396 746 OFFCURVE",
"409 764 CURVE SMOOTH",
"509 897 LINE SMOOTH",
"527 920 OFFCURVE",
"521 936 OFFCURVE",
"495 936 CURVE SMOOTH",
"430 936 LINE SMOOTH",
"401 936 OFFCURVE",
"394 931 OFFCURVE",
"383 914 CURVE SMOOTH",
"324 825 LINE",
"264 914 LINE SMOOTH",
"253 931 OFFCURVE",
"246 936 OFFCURVE",
"217 936 CURVE SMOOTH",
"152 936 LINE SMOOTH",
"126 936 OFFCURVE",
"120 920 OFFCURVE",
"138 897 CURVE SMOOTH",
"238 764 LINE SMOOTH",
"252 746 OFFCURVE",
"255 740 OFFCURVE",
"284 740 CURVE SMOOTH"
);
}
);
width = 634;
}
);
note = Rcaron;
unicode = 0158;
},
{
glyphname = Rcommaaccent;
lastChange = "2015-07-18 12:40:33 +0000";
layers = (
{
layerId = "EE9CB86C-5849-467B-879F-FFB2F6EA688D";
name = Regular;
paths = (
{
closed = 1;
nodes = (
"171 0 LINE SMOOTH",
"205 0 OFFCURVE",
"216 14 OFFCURVE",
"216 43 CURVE SMOOTH",
"216 239 LINE",
"335 239 LINE",
"427 19 LINE SMOOTH",
"434 3 OFFCURVE",
"442 0 OFFCURVE",
"460 0 CURVE SMOOTH",
"571 0 LINE SMOOTH",
"590 0 OFFCURVE",
"597 14 OFFCURVE",
"589 32 CURVE SMOOTH",
"484 262 LINE",
"563 297 OFFCURVE",
"603 364 OFFCURVE",
"603 458 CURVE SMOOTH",
"603 605 OFFCURVE",
"519 680 OFFCURVE",
"349 680 CURVE SMOOTH",
"96 680 LINE SMOOTH",
"63 680 OFFCURVE",
"51 665 OFFCURVE",
"51 636 CURVE SMOOTH",
"51 43 LINE SMOOTH",
"51 14 OFFCURVE",
"63 0 OFFCURVE",
"96 0 CURVE SMOOTH"
);
},
{
closed = 1;
nodes = (
"298 -251 LINE SMOOTH",
"318 -251 OFFCURVE",
"327 -244 OFFCURVE",
"332 -231 CURVE",
"398 -77 LINE SMOOTH",
"410 -48 OFFCURVE",
"405 -36 OFFCURVE",
"373 -36 CURVE SMOOTH",
"307 -36 LINE SMOOTH",
"280 -36 OFFCURVE",
"271 -42 OFFCURVE",
"264 -67 CURVE SMOOTH",
"218 -222 LINE SMOOTH",
"213 -239 OFFCURVE",
"217 -251 OFFCURVE",
"238 -251 CURVE SMOOTH"
);
},
{
closed = 1;
nodes = (
"216 558 LINE",
"335 558 LINE SMOOTH",
"403 558 OFFCURVE",
"439 528 OFFCURVE",
"439 458 CURVE SMOOTH",
"439 387 OFFCURVE",
"400 358 OFFCURVE",
"325 358 CURVE SMOOTH",
"216 358 LINE"
);
}
);
width = 634;
}
);
note = Rcommaaccent;
unicode = 0156;
},
{
glyphname = Rdotbelow;
lastChange = "2015-07-18 12:40:35 +0000";
layers = (
{
layerId = "EE9CB86C-5849-467B-879F-FFB2F6EA688D";
name = Regular;
paths = (
{
closed = 1;
nodes = (
"171 0 LINE SMOOTH",
"205 0 OFFCURVE",
"216 14 OFFCURVE",
"216 43 CURVE SMOOTH",
"216 239 LINE",
"335 239 LINE",
"427 19 LINE SMOOTH",
"434 3 OFFCURVE",
"442 0 OFFCURVE",
"460 0 CURVE SMOOTH",
"571 0 LINE SMOOTH",
"590 0 OFFCURVE",
"597 14 OFFCURVE",
"589 32 CURVE SMOOTH",
"484 262 LINE",
"563 297 OFFCURVE",
"603 364 OFFCURVE",
"603 458 CURVE SMOOTH",
"603 605 OFFCURVE",
"519 680 OFFCURVE",
"349 680 CURVE SMOOTH",
"96 680 LINE SMOOTH",
"63 680 OFFCURVE",
"51 665 OFFCURVE",
"51 636 CURVE SMOOTH",
"51 43 LINE SMOOTH",
"51 14 OFFCURVE",
"63 0 OFFCURVE",
"96 0 CURVE SMOOTH"
);
},
{
closed = 1;
nodes = (
"320 -195 LINE SMOOTH",
"353 -195 OFFCURVE",
"374 -169 OFFCURVE",
"374 -138 CURVE SMOOTH",
"374 -116 LINE SMOOTH",
"374 -84 OFFCURVE",
"352 -59 OFFCURVE",
"320 -59 CURVE SMOOTH",
"296 -59 LINE SMOOTH",
"265 -59 OFFCURVE",
"242 -84 OFFCURVE",
"242 -116 CURVE SMOOTH",
"242 -138 LINE SMOOTH",
"242 -169 OFFCURVE",
"265 -195 OFFCURVE",
"296 -195 CURVE SMOOTH"
);
},
{
closed = 1;
nodes = (
"216 558 LINE",
"335 558 LINE SMOOTH",
"403 558 OFFCURVE",
"439 528 OFFCURVE",
"439 458 CURVE SMOOTH",
"439 387 OFFCURVE",
"400 358 OFFCURVE",
"325 358 CURVE SMOOTH",
"216 358 LINE"
);
}
);
width = 634;
}
);
note = Rdotbelow;
unicode = 1E5A;
},
